<?xml version="1.0" encoding="UTF-8"?>
<svg id="_トップベース" data-name="トップベース" xmlns="http://www.w3.org/2000/svg" width="59.07mm" height="47.25mm" viewBox="0 0 167.43 133.94">
  <defs>
    <style>
      .cls-1 {
        fill: #fff;
      }

      .cls-1, .cls-2 {
        stroke-width: 0px;
      }

      .cls-2 {
        fill: #4e2279;
      }
    </style>
  </defs>
  <g>
    <path class="cls-1" d="m12.37,95.08c-1.63,1.38-3.15,2.69-4.96,3.88-.63.42-2.8,1.75-2.61,2.52,1.12.27,2.59.07,3.76.07,1.52,0,3.04,0,4.57,0,1.24,0,2.59.14,3.82.02.73-.07,1.06-.4,1.74-.47.81-.09,1.32.3,2.05.42,1.31.21,1.88.07,2.79,1.08.47.52.6,1.18,1.01,1.73.37.49.83.91,1.15,1.45.27.45.38.87.6,1.39.29.7.77,1.02,1.29,1.6.62.7,1.15,1.39,1.53,2.18.43.87.54.92,1.51,1.49s1.32,1.22,2.01,1.96c.66.71,1.49,1.04,2.24,1.65,1.51,1.23,2.79,2.18,4.64,3.02,1.82.82,3.8,1.47,5.33,2.54,1.75,1.23,4.31,1.77,6.48,2.37,5.56,1.53,11.24,2.57,16.94,3.36,5.37.75,10.85.53,16.33.53,6.17,0,12.1-.26,18.12-1.46,5.07-1.01,10.05-2.04,14.88-3.71,2.43-.84,4.9-1.63,7.31-2.48.97-.34,2.02-.76,2.95-1.19,1.31-.62,2.08-1.39,3.5-1.94,2.92-1.12,4.83-3.16,7.31-4.75,1.97-1.26,3.93-2.47,5.81-3.82,1.4-1.01,2.36-2.16,3.44-3.39,1.07-1.2,2.38-1.95,3.58-2.99,1.65-1.44,3.08-3.25,4.6-4.81,1.4-1.44,2.4-3.17,3.21-4.86.82-1.73,1.63-3.47,2.28-5.29.6-1.68,1.45-3.33,1.84-5.06.32-1.42.17-2.99.49-4.45.28-1.25.52-2.3.51-3.55-.02-2.16-.04-4.14-.39-6.25-.12-.71.02-1.4-.09-2.1-.14-.93-.49-1.71-.52-2.68s-.47-1.83-.54-2.76c-.07-1-.18-1.65-.43-2.6-.73-2.79-1.67-5.5-2.1-8.35-.16-1.05-.66-1.96-1-2.98-.48-1.43-.78-2.89-1.26-4.32-.65-1.91-1.33-3.4-2.52-5.07-1.03-1.44-1.34-2.89-2.28-4.32-1.21-1.85-2.58-3.5-4.08-5.21-2.05-2.34-4.28-4.58-6.79-6.55-1.25-.98-2.68-2.35-4.13-3.04-1.69-.8-3.26-2.12-5-2.69-3.98-1.31-7.67-3.28-11.73-4.44-3.42-.98-6.89-1.98-10.38-2.69-2.08-.42-4.16-.99-6.34-1.29-1.4-.2-2.92-.27-4.29-.52-.89-.16-1.6-.44-2.54-.46-1.54-.02-3.04-.27-4.55-.51-1.74-.28-3.3-.23-5.07-.33-.81-.05-1.31-.32-2.1-.46-.98-.18-2.18.02-3.2.02-1.54,0-3.09,0-4.63,0-1.64,0-2.93.03-4.49.34-2,.4-3.81.05-5.83.64-2.26.65-4.51.99-6.74,1.74-2.05.69-4,1.46-6.06,2.12-1.61.52-4.09,1.46-5.39,2.5-.74.59-1.01.92-1.99,1.3-.74.29-1.44.47-2.13.82-3.23,1.64-5.72,4.42-8.39,6.54-.64.51-1.06,1.15-1.77,1.6-.84.53-1.02.64-1.64,1.38-1.12,1.35-2.81,2.32-3.94,3.66-.98,1.16-1.77,2.46-2.8,3.59-.3.34-.68.59-.99.92-.65.67-.85,1.51-1.39,2.2-.74.95-1.69,1.7-2.3,2.76-.64,1.11-1.07,2.19-1.77,3.27-1.3,1.99-2.05,4.06-2.97,6.25-1.12,2.65-2.56,5.54-2.48,8.41.03.86-.25,1.16-.46,1.94-.14.5.08,1.01-.02,1.51-.26,1.29-.96,2.54-1.05,3.88-.07,1.06-.53,1.96-.49,3.02.02.76-.17,1.01-.39,1.7-.23.74.07,1.47-.09,2.19-.14.65-.5,1.04-.54,1.72-.03.5.01,1.01.01,1.51,0,1.15,0,2.3,0,3.45,0,2.23-.38,4.77.25,6.9.18.61.23.97.24,1.6,0,.85.38,1.27.55,2.06.1.47-.04,1.03-.03,1.51.02.79.38,1.2.54,1.94.46,2.23-.2,4.83-2.05,6.47"/>
    <path class="cls-2" d="m11.31,94.02c-1.69,1.44-3.4,2.8-5.25,4.04-1.13.76-2.85,1.86-2.75,3.43.04.62.44,1.32,1.1,1.45,1.82.35,3.69.12,5.53.12,1.92,0,3.84.06,5.75.07.87,0,1.72-.06,2.54-.34s1.29.02,2.1.18c.56.11,1.27.04,1.77.36.65.41.9,1.46,1.37,2.07.52.67.98,1.2,1.3,1.99s.76,1.42,1.37,2.06,1.15,1.3,1.57,2.07c.34.62.64,1.17,1.21,1.61.53.42,1.15.67,1.62,1.16.6.62,1.09,1.3,1.78,1.82,1.35,1.02,2.73,2.08,4.15,3,1.52.99,3.2,1.63,4.85,2.34s2.98,1.74,4.57,2.42c3.41,1.46,7.26,2.21,10.87,2.99,4.11.89,8.28,1.62,12.46,2.11,4.14.49,8.32.45,12.48.42,4.17-.03,8.33,0,12.49-.33,4.1-.31,8.12-1.01,12.15-1.85,3.94-.82,7.85-1.76,11.67-3.06,3.8-1.29,8.05-2.24,11.51-4.31,1.51-.9,3.12-1.55,4.63-2.44s2.76-1.98,4.14-2.97c3.06-2.21,6.61-3.84,9.23-6.6,1.28-1.34,2.44-2.59,3.91-3.72,1.52-1.16,2.81-2.52,4.09-3.93s2.57-2.69,3.6-4.25c1.09-1.66,1.91-3.5,2.7-5.31.8-1.83,1.49-3.7,2.23-5.55s1.03-3.62,1.17-5.61c.14-1.96.74-3.81.72-5.8s-.15-3.82-.37-5.74c-.11-.92-.03-1.83-.19-2.75-.15-.84-.36-1.64-.47-2.49s-.41-1.7-.52-2.56c-.1-.81-.18-1.61-.37-2.41-.45-1.9-1.07-3.75-1.55-5.64-.49-1.93-.8-3.79-1.5-5.65s-1.06-3.86-1.78-5.74c-.64-1.67-1.47-3.15-2.45-4.64-1.06-1.61-1.65-3.44-2.77-5.03-1.09-1.55-2.3-3-3.54-4.43-2.53-2.9-5.33-5.38-8.3-7.83-1.37-1.13-2.81-1.94-4.33-2.84-1.57-.93-3.02-1.78-4.75-2.38-3.74-1.3-7.28-3.11-11.09-4.22-4.03-1.18-8.08-2.16-12.17-3.08-1.92-.43-3.84-.84-5.8-1.06-.87-.1-1.75-.15-2.62-.29-.97-.15-1.92-.46-2.9-.55-1.99-.19-3.95-.46-5.94-.66-1.85-.19-3.65-.11-5.46-.54-1.73-.4-3.6-.11-5.36-.11-1.97,0-3.98-.09-5.95.08-.98.09-1.94.31-2.92.41-1.03.11-2.07.07-3.1.18-1.96.21-3.9.84-5.82,1.29-3.63.86-7.26,2.2-10.73,3.55-1.45.56-2.9,1.19-4.13,2.14-.64.5-1.15.91-1.92,1.2-.89.34-1.76.64-2.6,1.11-3.05,1.71-5.68,4.3-8.29,6.61-1.13,1-2.38,1.88-3.39,3.01-1.26,1.4-2.9,2.39-4.1,3.86-.56.69-1.07,1.41-1.6,2.12-.58.77-1.25,1.34-1.9,2.03-.53.56-.84,1.22-1.22,1.88-.46.8-1.17,1.4-1.76,2.1-1.24,1.46-1.95,3.29-2.95,4.92-.97,1.59-1.67,3.3-2.38,5.01s-1.57,3.52-2.2,5.34c-.31.91-.56,1.83-.7,2.78-.12.82-.03,1.71-.23,2.51s-.37,1.44-.38,2.28-.43,1.67-.68,2.47c-.54,1.73-.59,3.56-.89,5.32-.15.88-.48,1.55-.45,2.47s-.43,1.66-.53,2.6c-.2,1.9.02,3.89-.02,5.8-.05,1.89-.22,3.76.09,5.64.14.83.36,1.59.43,2.43s.53,1.6.56,2.42c.03.77-.07,1.43.16,2.19.22.72.46,1.31.46,2.08,0,1.56-.63,2.97-1.76,4.04-1.41,1.33.72,3.45,2.12,2.12,2.21-2.09,3.26-5.49,2.29-8.43-.25-.74-.29-1.21-.28-1.99.01-.84-.34-1.49-.52-2.28s-.16-1.57-.35-2.34c-.23-.93-.31-1.83-.31-2.79,0-1.98.11-3.95.11-5.93,0-.82-.11-1.73-.01-2.54s.56-1.49.59-2.35c.06-1.64.33-3.37.69-4.99.18-.82.22-1.66.46-2.47.26-.9.67-1.77.8-2.7.11-.76.03-1.37.26-2.11.25-.8.2-1.57.27-2.4.14-1.87.92-3.68,1.65-5.38.74-1.73,1.42-3.49,2.22-5.19s1.82-3.26,2.69-4.91c.8-1.54,2.16-2.57,3.05-4.05.39-.65.65-1.26,1.22-1.77.71-.64,1.29-1.36,1.87-2.12,1.14-1.51,2.24-2.8,3.69-4.01,1.16-.96,2.08-2.1,3.31-2.97,1.37-.97,2.62-2.28,3.89-3.4s2.56-2.33,3.97-3.32c.68-.48,1.38-.94,2.13-1.3.86-.42,1.81-.62,2.66-1.06,1.3-.68,2.32-1.73,3.69-2.35,1.47-.67,3.02-1.12,4.54-1.65,1.81-.63,3.59-1.35,5.43-1.88s3.91-.98,5.85-1.45c1.82-.45,3.75-.27,5.6-.58,1.9-.31,3.79-.28,5.71-.28s3.81-.24,5.64-.08c.71.06,1.39.35,2.09.46.96.14,1.94.12,2.9.16,1.92.08,3.79.46,5.7.65,7.83.78,15.53,2.37,23.12,4.53,3.66,1.04,7.09,2.51,10.63,3.91,1.75.69,3.46,1.23,5.07,2.22,1.44.88,2.98,1.58,4.31,2.63,2.92,2.32,5.69,4.76,8.18,7.55,1.24,1.39,2.46,2.8,3.54,4.31,1.09,1.52,1.69,3.23,2.65,4.82.94,1.56,1.91,2.97,2.54,4.7.64,1.76.98,3.6,1.63,5.35.67,1.8.98,3.58,1.44,5.44s1.09,3.76,1.56,5.66c.18.74.27,1.46.35,2.21.1.87.4,1.7.51,2.57.11.79.24,1.53.42,2.31.2.89.1,1.78.22,2.67.24,1.86.35,3.71.36,5.59.01,1.98-.58,3.84-.72,5.8-.27,3.81-1.99,7.51-3.58,10.95-.78,1.69-1.58,3.42-2.74,4.89-1.12,1.43-2.46,2.75-3.71,4.07-1.26,1.33-2.67,2.38-4.08,3.53s-2.38,2.61-3.71,3.78c-2.73,2.4-6.14,4.01-9.04,6.21-1.39,1.06-2.79,2.06-4.4,2.75-1.57.68-2.93,1.7-4.5,2.38-3.67,1.59-7.64,2.78-11.46,3.95-7.56,2.31-15.53,3.86-23.42,4.24-4.09.2-8.19.17-12.29.18-4.04.01-8.04-.12-12.04-.71-4.04-.59-8.06-1.32-12.02-2.26-3.37-.8-7-1.47-9.95-3.33-1.5-.95-3.19-1.52-4.8-2.23s-2.91-1.57-4.22-2.61c-.68-.54-1.42-.99-2.11-1.51-.62-.48-1.04-1.15-1.6-1.7-.52-.5-1.26-.76-1.76-1.25-.41-.4-.61-1.06-.94-1.54-.47-.69-1.01-1.33-1.59-1.93s-.74-1.24-1.1-1.96-.98-1.28-1.44-1.96c-.49-.72-.75-1.51-1.4-2.12-1.11-1.05-2.34-.93-3.7-1.32-.72-.21-1.38-.4-2.13-.32-.82.09-1.53.46-2.37.49-1.82.06-3.67-.06-5.5-.06-1.74,0-3.71.32-5.42-.01.37.48.73.96,1.1,1.45.03.42-.05.18.34-.15.19-.17.4-.31.6-.46.49-.35,1-.66,1.49-1,1.64-1.14,3.17-2.44,4.69-3.73s-.66-3.37-2.12-2.12h0Z"/>
  </g>
  <g>
    <path class="cls-2" d="m55.14,73.27c.07.16.09.31.07.45-.02.14-.07.27-.14.41-.02.02-.07.05-.14.08-.07.04-.13.08-.17.12-.09.02-.17.04-.24.04s-.15.02-.24.07c-.34.07-.55.25-.62.55-.02.05-.07.1-.14.17-.16.02-.27.05-.34.09s-.21.11-.41.22c-.16,0-.32.02-.48.07s-.31.14-.45.27c-.05,0-.08,0-.1.02-.02.01-.06.02-.1.02-.09.05-.19.03-.31-.05-.12-.08-.17-.18-.17-.29v-.21c-.09-.05-.2-.05-.33,0-.13.04-.22,0-.29-.14v-.51c-.07-.05-.13-.09-.19-.12-.06-.03-.12-.06-.19-.09-.09-.18-.19-.38-.31-.58-.12-.21-.23-.39-.34-.55-.09-.07-.17-.09-.24-.07-.07.02-.13.06-.17.1-.05.05-.08.1-.1.15-.02.06-.06.11-.1.15s-.08.1-.1.17-.06.13-.1.17c-.3.14-.6.26-.89.36-.3.1-.58.19-.86.26-.16.11-.32.22-.48.31-.16.09-.31.18-.45.27-.14.02-.27.06-.41.1-.14.04-.26.08-.38.1-.14-.07-.27-.09-.39-.05-.13.03-.28.07-.46.12-.21-.05-.42-.1-.65-.16-.23-.06-.47-.11-.72-.15-.07.02-.14.03-.21.03s-.13.01-.17.03c-.09-.05-.17-.09-.22-.14-.06-.05-.13-.08-.22-.1-.11-.04-.22-.04-.31,0-.09.05-.19.09-.31.14-.12-.05-.24-.07-.38-.09s-.27-.03-.41-.05c-.11-.11-.21-.22-.29-.31-.08-.09-.13-.21-.15-.34-.05-.04-.09-.08-.14-.12-.05-.03-.08-.06-.1-.08-.09-.32-.19-.6-.31-.82-.32-.69-.54-1.44-.65-2.27-.05-.05-.09-.1-.14-.16-.05-.06-.1-.12-.17-.19-.02-.21-.05-.41-.07-.6-.02-.19-.06-.41-.1-.63.04-.14.07-.26.07-.38-.05-.23-.09-.43-.14-.62.09-.27.19-.55.29-.82.1-.27.13-.56.09-.86.05-.09.1-.18.17-.26.07-.08.12-.15.17-.22.21-.23.35-.49.45-.79.07-.25.19-.47.36-.65.17-.18.36-.33.57-.45.25-.11.5-.23.74-.36.24-.13.47-.23.7-.33.05,0,.11,0,.19.02.08.01.14,0,.19-.02.41-.07.77-.09,1.06-.07.14.02.27.02.41,0,.14-.02.26-.04.38-.04l.72-.14c.14.02.28.06.41.1.14.05.28.03.41-.03.05,0,.09,0,.12.02s.06.02.09.02c.11.05.22.1.31.15.09.06.19.09.31.09.25.05.41,0,.48-.14-.02-.39-.05-.64-.09-.76-.03-.11-.11-.3-.22-.55-.07-.14-.12-.28-.14-.43-.02-.15-.05-.29-.07-.43-.02-.09-.04-.18-.05-.26-.01-.08-.06-.17-.15-.26-.3-.09-.66-.16-1.1-.21h-.21c-.21.09-.42.14-.65.14s-.47.02-.72.07c-.16.02-.33.07-.5.14-.17.07-.35.13-.53.17-.18.09-.37.05-.55-.14-.07-.21-.1-.42-.09-.63.01-.22.03-.44.05-.67-.05-.16-.1-.35-.17-.57-.07-.22-.1-.48-.1-.77l.03-.24s-.06-.09-.12-.14c-.06-.05-.11-.08-.15-.1-.07-.07-.08-.14-.03-.21,0-.07.03-.1.1-.1.18-.05.36-.08.52-.1.16-.02.32-.05.48-.07l.41-.41s.1-.03.17-.03c.53.09.91.13,1.15.1s.61-.11,1.12-.27c.25.02.5.06.74.1.24.05.49.06.74.03.07.07.14.13.22.19.08.06.17.12.26.19.11-.05.23-.09.34-.12s.22-.06.31-.09c.14.09.29.18.45.27.11.02.21,0,.29-.07s.17-.1.26-.1c.21.02.37.12.5.29.12.17.27.32.43.43.14.09.27.21.39.34.13.14.26.26.4.38.04.07.09.14.14.21.05.07.08.14.1.21.11.09.22.17.31.22.09.06.17.13.24.22.11.09.23.16.36.21s.22.13.29.24c.05.11.09.23.14.36.04.13.12.23.24.33.07.23.14.46.21.7.07.24.08.49.03.74,0,.12-.01.22-.03.31.04.11.08.24.1.38.02.14.06.26.1.38v.17c0,.07,0,.14-.02.22-.01.08,0,.14.02.19.04.14.1.24.17.31,0,.14-.06.26-.17.38-.05.02-.1.05-.17.07-.07.02-.13.06-.17.1-.27.16-.31.37-.1.62.02.02.06.06.12.12.06.06.1.12.12.19.02.09.03.19.03.29s.01.21.03.33c-.09.44-.26.85-.51,1.24.07.32.18.63.33.93.15.3.28.61.39.93.11.07.21.14.27.21.07.07.15.13.24.17.02.07.04.12.05.14s.02.06.02.1c0,.23.03.46.08.69.06.23.13.45.22.65.09.21.18.4.27.58s.21.37.34.55c.11.09.21.22.27.38s.12.3.17.41Zm-14.8,1s-.03.02-.03.07c.05-.04.06-.07.03-.07Zm7.28-5.63c-.14-.34-.31-.57-.51-.69-.25-.11-.41-.26-.48-.45-.02-.09-.07-.15-.14-.17-.07-.02-.14-.05-.21-.07-.09,0-.2,0-.33.02-.13.01-.25.03-.36.05-.14,0-.27-.02-.39-.07-.13-.05-.25-.08-.36-.1-.21,0-.4.06-.58.17-.09.07-.17.13-.24.19-.07.06-.14.13-.21.22l-.45.82c.05.14.1.26.17.36.07.1.07.25,0,.43.04.21.1.42.15.63.06.22.14.43.26.64.04.05.08.07.1.07.25.05.5.07.75.07s.49-.01.72-.03c.09,0,.16-.01.21-.03.25-.14.56-.26.93-.38.14-.02.26-.12.38-.31.09-.21.18-.43.28-.67.09-.24.19-.48.31-.7Z"/>
    <path class="cls-2" d="m73.09,60.81c-.12.18-.22.37-.31.57s-.14.42-.14.67c-.18.12-.35.26-.5.45-.15.18-.28.38-.39.58-.09.16-.18.31-.26.46-.08.15-.18.3-.29.46-.02.05-.06.05-.12,0-.06-.05-.1-.1-.12-.17,0-.09-.05-.14-.14-.14-.07,0-.13.03-.17.1-.05.02-.09.06-.14.12-.05.06-.09.11-.14.15-.02.02-.06.04-.12.05-.06.01-.11.03-.15.05-.09-.09-.19-.18-.31-.26-.12-.08-.23-.17-.34-.26-.14-.05-.27-.09-.41-.14-.14-.05-.26-.08-.38-.1-.09-.04-.13-.07-.1-.07-.07-.05-.13-.1-.17-.17-.05-.07-.13-.08-.24-.03-.07.07-.1.13-.09.19.01.06,0,.13-.02.22-.16,0-.27.01-.34.03-.05.02-.09.05-.14.07-.05.02-.1.05-.17.07-.07-.02-.15-.04-.24-.05-.09-.01-.19-.03-.31-.05-.21.02-.41.09-.6.19-.19.1-.38.2-.57.29-.14.02-.24.11-.31.27-.09.23-.23.45-.41.65-.18.21-.34.42-.48.65-.02.05-.06.11-.1.19s-.09.15-.14.22c-.02.07-.04.13-.05.19-.01.06-.02.12-.02.19.04.14.09.23.14.27-.05.07-.09.14-.14.21-.05.07-.09.14-.14.21.02.07.03.14.03.21s.01.13.03.17c.07.23.16.41.27.55.07.09.13.19.17.29.05.1.1.22.17.36.09.07.18.14.27.21.09.07.18.15.27.24l.26.26c.08.08.15.17.22.26.09-.02.18-.03.26-.03s.18-.01.29-.04c.05.02.1.04.15.05.06.01.11.03.15.05.16.02.31.05.46.07.15.02.29,0,.43-.07.18-.05.38-.1.58-.15.21-.06.39-.1.55-.12.16.02.31.06.46.1.15.05.3.09.46.14.16-.11.33-.21.5-.29.17-.08.36-.13.57-.15.21.07.36.19.45.38.09.12.17.24.22.38.06.14.12.27.19.41.05.16.11.31.19.45.08.14.17.27.26.41.07.09.14.19.22.31.08.12.14.22.19.31.07.37.05.69-.07.96-.16.11-.32.24-.48.38-.16.14-.32.27-.48.41-.05.09-.09.18-.14.26s-.09.17-.14.26c-.09.02-.18.05-.27.09-.09.03-.18.08-.27.15-.07.02-.14.04-.22.05s-.17.04-.26.08c-.14.09-.31.2-.52.31-.16-.09-.34-.15-.55-.17-.16.12-.34.17-.55.17s-.4.02-.58.07c-.21.02-.39,0-.57-.09-.17-.08-.35-.14-.53-.19l-.48.24-.72-.24c-.09.02-.19.03-.29.03s-.21.01-.33.03c-.09-.05-.2-.09-.31-.14s-.23-.08-.34-.1h-.22c-.08,0-.17.01-.26.03-.14-.09-.24-.17-.31-.24-.09-.07-.18-.14-.27-.22-.09-.08-.19-.13-.31-.16-.39-.21-.72-.47-1-.79-.16-.18-.33-.36-.5-.53-.17-.17-.37-.34-.6-.5-.11-.11-.24-.27-.38-.48-.05-.3-.15-.58-.31-.84-.16-.26-.32-.52-.48-.77.02-.16,0-.3-.07-.41-.07-.11-.13-.24-.17-.38.05-.18.06-.38.05-.6-.01-.22,0-.44.02-.67.02-.11-.05-.25-.21-.41,0-.09.03-.15.09-.19.06-.03.1-.08.12-.15.11-.07.17-.18.17-.34-.05-.05-.09-.11-.12-.19-.03-.08-.07-.14-.12-.19.05-.09.09-.19.14-.31.04-.11.07-.22.07-.31v-.62c.09-.14.18-.24.27-.31,0-.18-.06-.29-.19-.31-.13-.02-.22-.08-.29-.17.16-.53.27-.85.33-.98.06-.12.19-.34.39-.63.02-.25.03-.5.03-.76s.09-.51.28-.79c.04-.02.1-.07.17-.14.07-.07.14-.14.21-.21.05-.11.09-.22.12-.33.03-.1.06-.2.09-.29.14-.11.27-.22.41-.33.14-.1.29-.21.45-.33.05-.05.1-.08.15-.1.06-.02.13-.05.22-.07.11-.02.22-.07.31-.14.09-.07.18-.14.27-.21.05.02.1.03.17.03s.14.01.21.04c.18-.05.34-.13.48-.24.14-.11.29-.24.45-.38.27-.07.55-.13.84-.19.29-.06.55-.14.81-.26.16,0,.31.03.46.1.15.07.3.06.46-.03.04-.05.1-.05.17,0,.23,0,.46.01.7.03.24.02.47.05.7.07.34.05.62-.04.82-.24l.07-.07.07-.07s.1.05.15.07c.06.02.1.05.12.07.57.5,1.22.79,1.96.86.11,0,.23.02.34.07.11.05.22.09.31.14l.72.72c.23.18.31.41.24.69,0,.05,0,.09.02.14s.02.09.02.14Z"/>
    <path class="cls-2" d="m90.98,60.81c-.12.18-.22.37-.31.57s-.14.42-.14.67c-.18.12-.35.26-.5.45-.15.18-.28.38-.39.58-.09.16-.18.31-.26.46-.08.15-.18.3-.29.46-.02.05-.06.05-.12,0-.06-.05-.1-.1-.12-.17,0-.09-.05-.14-.14-.14-.07,0-.13.03-.17.1-.05.02-.09.06-.14.12-.05.06-.09.11-.14.15-.02.02-.06.04-.12.05-.06.01-.11.03-.15.05-.09-.09-.19-.18-.31-.26-.12-.08-.23-.17-.34-.26-.14-.05-.27-.09-.41-.14-.14-.05-.26-.08-.38-.1-.09-.04-.13-.07-.1-.07-.07-.05-.13-.1-.17-.17-.05-.07-.13-.08-.24-.03-.07.07-.1.13-.09.19.01.06,0,.13-.02.22-.16,0-.27.01-.34.03-.05.02-.09.05-.14.07-.05.02-.1.05-.17.07-.07-.02-.15-.04-.24-.05-.09-.01-.19-.03-.31-.05-.21.02-.41.09-.6.19-.19.1-.38.2-.57.29-.14.02-.24.11-.31.27-.09.23-.23.45-.41.65-.18.21-.34.42-.48.65-.02.05-.06.11-.1.19s-.09.15-.14.22c-.02.07-.04.13-.05.19-.01.06-.02.12-.02.19.04.14.09.23.14.27-.05.07-.09.14-.14.21-.05.07-.09.14-.14.21.02.07.03.14.03.21s.01.13.03.17c.07.23.16.41.27.55.07.09.13.19.17.29.05.1.1.22.17.36.09.07.18.14.27.21.09.07.18.15.27.24l.26.26c.08.08.15.17.22.26.09-.02.18-.03.26-.03s.18-.01.29-.04c.05.02.1.04.15.05.06.01.11.03.15.05.16.02.31.05.46.07.15.02.29,0,.43-.07.18-.05.38-.1.58-.15.21-.06.39-.1.55-.12.16.02.31.06.46.1.15.05.3.09.46.14.16-.11.33-.21.5-.29.17-.08.36-.13.57-.15.21.07.36.19.45.38.09.12.17.24.22.38.06.14.12.27.19.41.05.16.11.31.19.45.08.14.17.27.26.41.07.09.14.19.22.31.08.12.14.22.19.31.07.37.05.69-.07.96-.16.11-.32.24-.48.38-.16.14-.32.27-.48.41-.05.09-.09.18-.14.26s-.09.17-.14.26c-.09.02-.18.05-.27.09-.09.03-.18.08-.27.15-.07.02-.14.04-.22.05s-.17.04-.26.08c-.14.09-.31.2-.52.31-.16-.09-.34-.15-.55-.17-.16.12-.34.17-.55.17s-.4.02-.58.07c-.21.02-.39,0-.57-.09-.17-.08-.35-.14-.53-.19l-.48.24-.72-.24c-.09.02-.19.03-.29.03s-.21.01-.33.03c-.09-.05-.2-.09-.31-.14s-.23-.08-.34-.1h-.22c-.08,0-.17.01-.26.03-.14-.09-.24-.17-.31-.24-.09-.07-.18-.14-.27-.22-.09-.08-.19-.13-.31-.16-.39-.21-.72-.47-1-.79-.16-.18-.33-.36-.5-.53-.17-.17-.37-.34-.6-.5-.11-.11-.24-.27-.38-.48-.05-.3-.15-.58-.31-.84-.16-.26-.32-.52-.48-.77.02-.16,0-.3-.07-.41-.07-.11-.13-.24-.17-.38.05-.18.06-.38.05-.6-.01-.22,0-.44.02-.67.02-.11-.05-.25-.21-.41,0-.09.03-.15.09-.19.06-.03.1-.08.12-.15.11-.07.17-.18.17-.34-.05-.05-.09-.11-.12-.19-.03-.08-.07-.14-.12-.19.05-.09.09-.19.14-.31.04-.11.07-.22.07-.31v-.62c.09-.14.18-.24.27-.31,0-.18-.06-.29-.19-.31-.13-.02-.22-.08-.29-.17.16-.53.27-.85.33-.98.06-.12.19-.34.39-.63.02-.25.03-.5.03-.76s.09-.51.28-.79c.04-.02.1-.07.17-.14.07-.07.14-.14.21-.21.05-.11.09-.22.12-.33.03-.1.06-.2.09-.29.14-.11.27-.22.41-.33.14-.1.29-.21.45-.33.05-.05.1-.08.15-.1.06-.02.13-.05.22-.07.11-.02.22-.07.31-.14.09-.07.18-.14.27-.21.05.02.1.03.17.03s.14.01.21.04c.18-.05.34-.13.48-.24.14-.11.29-.24.45-.38.27-.07.55-.13.84-.19.29-.06.55-.14.81-.26.16,0,.31.03.46.1.15.07.3.06.46-.03.04-.05.1-.05.17,0,.23,0,.46.01.7.03.24.02.47.05.7.07.34.05.62-.04.82-.24l.07-.07.07-.07s.1.05.15.07c.06.02.1.05.12.07.57.5,1.22.79,1.96.86.11,0,.23.02.34.07.11.05.22.09.31.14l.72.72c.23.18.31.41.24.69,0,.05,0,.09.02.14s.02.09.02.14Z"/>
    <path class="cls-2" d="m109.89,62.83c-.02.23-.04.46-.05.7-.01.24-.04.47-.08.7-.02.23-.04.48-.04.74s-.05.53-.14.81c-.05.07-.1.14-.17.22s-.14.18-.21.29c0,.09,0,.17.02.24.01.07.03.15.05.24-.05.11-.11.21-.21.29-.09.08-.18.14-.27.19-.23.07-.44.14-.63.21-.19.07-.39.13-.6.17-.32.05-.65.05-1,.02-.34-.03-.69-.04-1.03-.02-.3,0-.61,0-.94.02-.33.01-.67.02-1.01.02h-1.92c-.09.07-.19.09-.29.07-.1-.02-.2-.01-.29.03-.09-.05-.2-.05-.31-.02-.11.04-.23.03-.34-.02-.09.02-.18.04-.26.05s-.18.03-.29.05c-.09-.02-.17-.05-.24-.09-.07-.03-.15-.02-.24.05.05.07.1.14.15.22.06.08.1.18.12.29.07.09.13.18.17.27s.09.19.14.31c.04.09.08.19.1.29.02.1.05.2.07.29.11.11.24.23.38.34.14.12.27.23.41.34.11.02.23.05.36.07.13.02.25.05.36.07.14.02.27.05.41.07s.29.02.45,0c.16-.05.31-.04.45.02.14.06.29.1.45.12.21-.02.42-.04.63-.07.22-.02.43-.05.64-.07.09-.07.19-.13.29-.19.1-.06.2-.12.29-.19.3-.07.6-.06.89.03.07.12.16.23.26.34.1.11.2.24.29.38.14.21.27.41.41.6.14.19.23.42.27.67.05.12.11.23.21.34.09.11.16.22.21.31.02.12.02.22-.02.31-.03.09-.06.2-.09.31-.09.09-.21.17-.34.24-.02,0-.05.02-.07.07-.02.05-.06.08-.1.1-.14.09-.27.18-.41.27-.14.09-.26.18-.38.27-.32.27-.65.41-1,.41-.14,0-.24.01-.31.03-.12.02-.23.07-.34.14-.11.07-.24.12-.38.17-.11,0-.23.02-.34.05-.12.03-.23.06-.34.09-.07,0-.15,0-.24-.02-.09-.01-.18-.02-.27-.02-.21.02-.41.01-.62-.03s-.41-.07-.62-.07c-.07-.02-.14-.05-.21-.07-.07-.02-.14-.03-.21-.03-.39.02-.76-.04-1.1-.19-.34-.15-.69-.3-1.03-.46-.27-.07-.47-.19-.58-.38-.16-.18-.34-.34-.53-.46-.2-.13-.41-.23-.64-.33-.14-.05-.27-.11-.41-.19-.14-.08-.29-.17-.45-.26-.02-.09-.06-.18-.1-.27l-.14-.28c-.05-.07-.11-.14-.19-.21-.08-.07-.15-.14-.22-.21-.07-.07-.13-.15-.17-.24-.12-.39-.23-.77-.34-1.15s-.26-.75-.45-1.12c.02-.16.04-.33.05-.5.01-.17,0-.36-.05-.57-.02-.05-.03-.1-.03-.17v-.17c0-.11,0-.21.02-.29.01-.08,0-.15-.02-.22-.02-.18-.05-.37-.07-.55-.02-.18-.01-.35.03-.51.04-.18.09-.37.14-.55.05-.18.1-.38.17-.58-.02-.05-.03-.11-.03-.21s-.01-.18-.03-.27c.05-.25.09-.5.14-.76.05-.25.1-.49.17-.72.07-.14.14-.27.22-.39.08-.13.17-.26.26-.39.16-.28.29-.54.38-.79.27-.14.44-.22.5-.26.06-.03.11-.09.15-.15s.19-.21.45-.41c-.02-.07.03-.17.17-.31.14-.14.18-.25.14-.34.21-.39.5-.7.89-.93.14-.09.27-.19.4-.29.12-.1.23-.2.33-.29.11-.07.22-.1.33-.09.1.01.2.02.29.02.07-.02.14-.04.22-.05s.17-.03.26-.05c.04-.02.1-.05.17-.07.07-.02.13-.06.17-.1.05-.02.09-.05.14-.07.04-.02.09-.03.14-.03.21-.02.4-.08.58-.17.18-.09.35-.18.51-.27.34.14.7.18,1.06.14.23-.02.45-.01.67.03.22.05.42.1.6.17l.48-.14c.18.02.35.08.51.17l.48.28h.31s.04.04.07.05c.02.01.05.03.07.05.25.23.49.44.72.63.23.2.47.4.72.6.34.23.56.5.65.82.09.14.17.24.24.31.27.23.51.54.72.93,0,.05,0,.11.02.19.01.08.02.15.02.22-.02.11,0,.23.07.34.07.12.11.24.14.38Zm-4.36,1.13v-.86c0-.11-.01-.18-.04-.21-.02-.07-.05-.14-.08-.21-.04-.07-.06-.11-.09-.14v-.58l-.1-.1c-.09,0-.21-.02-.34-.07-.05-.21-.1-.37-.17-.48-.07-.09-.16-.15-.27-.17-.12-.02-.24-.06-.38-.1-.3.09-.62.17-.96.24-.34.07-.68.16-1,.27-.16.02-.31.03-.45.03s-.27.01-.41.03c-.23.09-.43.24-.6.43s-.34.38-.5.57c-.09.11-.17.24-.24.38-.07.14-.15.26-.24.38-.02.02-.03.09-.03.21.07.18.17.3.31.34.14.02.27.06.41.1.14.05.29.09.45.14.07-.02.13-.03.19-.03s.12-.01.19-.03c.27-.11.5-.13.69-.04.18.02.35.02.5,0,.15-.02.3-.04.46-.07.14.07.28.12.43.14.15.02.29.06.43.1.3.09.58.14.86.14s.55-.03.82-.1c.11-.11.17-.22.17-.31Z"/>
    <path class="cls-2" d="m124.82,61.05c-.07.3-.21.55-.41.75-.09.09-.17.19-.22.29-.06.1-.13.18-.22.22-.09.09-.16.17-.21.24-.05.07-.09.16-.14.27-.12.23-.31.25-.58.07-.14-.09-.23-.18-.27-.27l-.41-.03s-.08-.01-.1-.03c-.11-.05-.19-.12-.24-.22-.05-.1-.13-.19-.24-.26-.34-.16-.69-.27-1.03-.34-.34-.07-.7-.05-1.06.07-.23.3-.38.51-.45.64s-.15.35-.24.67c0,.16.03.32.09.46.06.15.11.31.15.5.11.18.26.31.45.38.09,0,.18,0,.27.02s.18.03.27.05c.09.07.17.13.24.19.07.06.14.11.21.15.16.09.31.21.46.36.15.15.3.26.46.33.18.09.35.17.51.24s.32.15.48.24c.14.02.26.08.36.17.1.09.2.19.29.31.07.14.15.28.26.41.1.14.2.29.29.45.07.25.13.51.19.77.06.26.09.54.09.84,0,.21.01.41.03.6.02.19.04.39.07.6.02.11.04.24.05.38.01.14,0,.29-.02.45-.07.14-.14.29-.21.45-.07.16-.13.33-.17.51-.09.34-.22.66-.38.96-.09.12-.2.23-.31.34l-.34.34c-.07.05-.13.1-.17.17s-.09.13-.14.17c-.23.14-.41.3-.55.48-.14.18-.26.38-.38.58-.16.02-.32.05-.48.08-.16.04-.33.07-.51.12-.14.02-.27.06-.41.12-.14.06-.26.11-.38.15h-.82c-.25-.12-.49-.16-.72-.14-.23.02-.47.07-.72.14-.23.04-.39.02-.48-.07-.16-.11-.33-.2-.5-.26-.17-.06-.34-.1-.5-.12-.23-.23-.47-.45-.72-.65s-.48-.43-.69-.69c0-.07,0-.14-.02-.22-.01-.08-.02-.15-.02-.22,0-.18,0-.35.02-.5.01-.15.02-.3.02-.46.07-.32.19-.63.36-.93.17-.3.34-.59.5-.89.14.02.26.05.38.07.11.02.24.06.38.1.11.09.25.17.41.24s.32.14.48.21c.21.12.37.16.48.14.09,0,.17.01.24.03.07.02.15.05.24.07.27.12.54.08.79-.1.11-.07.22-.14.33-.22.1-.08.19-.19.26-.33v-.46c0-.17.01-.34.03-.5,0-.07-.01-.14-.03-.21-.02-.07-.05-.14-.07-.22-.02-.08-.05-.15-.07-.22l-.48-.38c-.09-.11-.16-.23-.21-.36-.05-.12-.13-.22-.24-.29l-.82-.24c-.14-.07-.25-.15-.34-.24-.09-.09-.18-.17-.27-.24-.05-.05-.09-.08-.14-.1s-.09-.05-.14-.07c-.09-.02-.18-.04-.27-.07-.09-.02-.19-.06-.31-.1-.14-.11-.32-.22-.55-.31-.14-.16-.23-.32-.27-.48s-.13-.31-.24-.45c-.09-.11-.18-.24-.27-.38-.09-.14-.2-.27-.31-.41-.07-.25-.13-.51-.19-.77-.06-.26-.12-.52-.19-.77-.12-.34-.13-.67-.03-1,.04-.21.1-.42.15-.65.06-.23.13-.46.22-.69.14-.27.31-.65.52-1.13.23-.37.53-.7.91-1.01.38-.31.75-.62,1.12-.94.09-.05.19-.09.31-.12s.22-.06.31-.09c.28-.09.48-.17.62-.22.14-.06.29-.1.46-.12s.43-.03.77-.03h.07c.32-.11.63-.15.94-.1.31.05.61.12.91.21.07,0,.14,0,.22.02s.13.02.15.02c.21.12.38.25.53.41.15.16.31.31.5.45.11.07.24.13.38.19.14.06.26.12.38.19.23.18.43.39.6.62.17.23.34.45.5.65.05.16.08.32.1.48.02.16.06.33.1.51Z"/>
    <path class="cls-2" d="m139.69,61.05c-.07.3-.21.55-.41.75-.09.09-.17.19-.22.29-.06.1-.13.18-.22.22-.09.09-.16.17-.21.24-.05.07-.09.16-.14.27-.12.23-.31.25-.58.07-.14-.09-.23-.18-.27-.27l-.41-.03s-.08-.01-.1-.03c-.11-.05-.19-.12-.24-.22-.05-.1-.13-.19-.24-.26-.34-.16-.69-.27-1.03-.34-.34-.07-.7-.05-1.06.07-.23.3-.38.51-.45.64s-.15.35-.24.67c0,.16.03.32.09.46.06.15.11.31.15.5.11.18.26.31.45.38.09,0,.18,0,.27.02s.18.03.27.05c.09.07.17.13.24.19.07.06.14.11.21.15.16.09.31.21.46.36.15.15.3.26.46.33.18.09.35.17.51.24s.32.15.48.24c.14.02.26.08.36.17.1.09.2.19.29.31.07.14.15.28.26.41.1.14.2.29.29.45.07.25.13.51.19.77.06.26.09.54.09.84,0,.21.01.41.03.6.02.19.04.39.07.6.02.11.04.24.05.38.01.14,0,.29-.02.45-.07.14-.14.29-.21.45-.07.16-.13.33-.17.51-.09.34-.22.66-.38.96-.09.12-.2.23-.31.34l-.34.34c-.07.05-.13.1-.17.17s-.09.13-.14.17c-.23.14-.41.3-.55.48-.14.18-.26.38-.38.58-.16.02-.32.05-.48.08-.16.04-.33.07-.51.12-.14.02-.27.06-.41.12-.14.06-.26.11-.38.15h-.82c-.25-.12-.49-.16-.72-.14-.23.02-.47.07-.72.14-.23.04-.39.02-.48-.07-.16-.11-.33-.2-.5-.26-.17-.06-.34-.1-.5-.12-.23-.23-.47-.45-.72-.65s-.48-.43-.69-.69c0-.07,0-.14-.02-.22-.01-.08-.02-.15-.02-.22,0-.18,0-.35.02-.5.01-.15.02-.3.02-.46.07-.32.19-.63.36-.93.17-.3.34-.59.5-.89.14.02.26.05.38.07.11.02.24.06.38.1.11.09.25.17.41.24s.32.14.48.21c.21.12.37.16.48.14.09,0,.17.01.24.03.07.02.15.05.24.07.27.12.54.08.79-.1.11-.07.22-.14.33-.22.1-.08.19-.19.26-.33v-.46c0-.17.01-.34.03-.5,0-.07-.01-.14-.03-.21-.02-.07-.05-.14-.07-.22-.02-.08-.05-.15-.07-.22l-.48-.38c-.09-.11-.16-.23-.21-.36-.05-.12-.13-.22-.24-.29l-.82-.24c-.14-.07-.25-.15-.34-.24-.09-.09-.18-.17-.27-.24-.05-.05-.09-.08-.14-.1s-.09-.05-.14-.07c-.09-.02-.18-.04-.27-.07-.09-.02-.19-.06-.31-.1-.14-.11-.32-.22-.55-.31-.14-.16-.23-.32-.27-.48s-.13-.31-.24-.45c-.09-.11-.18-.24-.27-.38-.09-.14-.2-.27-.31-.41-.07-.25-.13-.51-.19-.77-.06-.26-.12-.52-.19-.77-.12-.34-.13-.67-.03-1,.04-.21.1-.42.15-.65.06-.23.13-.46.22-.69.14-.27.31-.65.52-1.13.23-.37.53-.7.91-1.01.38-.31.75-.62,1.12-.94.09-.05.19-.09.31-.12s.22-.06.31-.09c.28-.09.48-.17.62-.22.14-.06.29-.1.46-.12s.43-.03.77-.03h.07c.32-.11.63-.15.94-.1.31.05.61.12.91.21.07,0,.14,0,.22.02s.13.02.15.02c.21.12.38.25.53.41.15.16.31.31.5.45.11.07.24.13.38.19.14.06.26.12.38.19.23.18.43.39.6.62.17.23.34.45.5.65.05.16.08.32.1.48.02.16.06.33.1.51Z"/>
  </g>
</svg>