<svg xmlns="http://www.w3.org/2000/svg" id="_トップベース" width="223.3" height="178.6" data-name="トップベース" viewBox="0 0 167.4 133.9"><defs><style>.cls-2{stroke-width:0;fill:#4e2279}</style></defs><path d="M12.4 95c-1.7 1.5-3.2 2.8-5 4-.6.4-2.8 1.7-2.6 2.5 1.1.2 2.6 0 3.8 0H13c1.3 0 2.6.2 3.8 0 .8 0 1.1-.3 1.8-.4.8 0 1.3.3 2 .4 1.3.2 2 0 2.8 1.1.5.5.6 1.2 1 1.7l1.2 1.5c.3.4.4.8.6 1.4.3.7.8 1 1.3 1.6l1.5 2.1c.4 1 .5 1 1.5 1.5s1.3 1.3 2 2 1.5 1 2.3 1.6a20 20 0 0 0 4.6 3c1.8.9 3.8 1.5 5.3 2.6 1.8 1.2 4.4 1.8 6.5 2.4 5.6 1.5 11.3 2.5 17 3.3 5.3.8 10.8.6 16.3.6a112.4 112.4 0 0 0 33-5.2l7.3-2.5 3-1.2c1.3-.6 2-1.4 3.5-2 2.9-1 4.8-3 7.3-4.7 2-1.2 3.9-2.4 5.8-3.8 1.4-1 2.3-2.1 3.4-3.4 1-1.2 2.4-2 3.6-3 1.6-1.4 3-3.2 4.6-4.8a18 18 0 0 0 3.2-4.8l2.3-5.3c.6-1.7 1.4-3.3 1.8-5 .3-1.5.2-3 .5-4.5.3-1.3.5-2.3.5-3.6 0-2.1 0-4.1-.4-6.2v-2.1c-.2-1-.5-1.7-.6-2.7s-.4-1.8-.5-2.8c0-1-.2-1.6-.4-2.6-.8-2.8-1.7-5.5-2.1-8.3-.2-1-.7-2-1-3l-1.3-4.3c-.7-2-1.3-3.4-2.5-5-1-1.5-1.4-3-2.3-4.4a50.8 50.8 0 0 0-10.9-11.8c-1.2-1-2.7-2.3-4.1-3-1.7-.8-3.3-2.1-5-2.7-4-1.3-7.7-3.3-11.7-4.4-3.5-1-7-2-10.4-2.7-2.1-.4-4.2-1-6.4-1.3l-4.2-.5c-1-.2-1.6-.5-2.6-.5-1.5 0-3-.3-4.5-.5-1.8-.3-3.3-.2-5.1-.3-.8 0-1.3-.4-2.1-.5-1-.2-2.2 0-3.2 0h-4.6c-1.7 0-3 0-4.5.4-2 .4-3.8 0-5.9.6-2.2.7-4.5 1-6.7 1.7l-6 2.2c-1.7.5-4.1 1.4-5.4 2.5-.8.6-1 .9-2 1.3-.8.3-1.5.4-2.2.8-3.2 1.6-5.7 4.4-8.4 6.5-.6.5-1 1.2-1.7 1.6-.9.6-1 .7-1.7 1.4-1 1.4-2.8 2.3-4 3.7l-2.7 3.6-1 .9c-.6.6-.8 1.5-1.4 2.2-.7 1-1.7 1.7-2.3 2.7-.6 1.1-1 2.2-1.8 3.3-1.3 2-2 4-3 6.3-1 2.6-2.5 5.5-2.4 8.4 0 .8-.3 1.1-.5 1.9V58c-.2 1.3-1 2.6-1 3.9-.1 1-.6 2-.5 3 0 .8-.2 1-.4 1.7-.2.8 0 1.5-.1 2.2-.1.7-.5 1-.5 1.7v5c0 2.2-.4 4.8.2 6.9L13 84c0 .8.3 1.3.5 2 .1.5 0 1 0 1.6 0 .7.4 1.2.5 1.9.5 2.2-.2 4.8-2 6.5" style="stroke-width:0;fill:#fff"/><path d="M11.3 94a57.2 57.2 0 0 1-5.2 4c-1.2.8-2.9 2-2.8 3.5 0 .6.5 1.3 1.1 1.4 1.8.4 3.7.2 5.5.2h5.8c.9 0 1.7 0 2.5-.3s1.3 0 2.1.2c.6 0 1.3 0 1.8.3.7.4.9 1.5 1.4 2.1.5.7 1 1.2 1.3 2s.7 1.4 1.3 2 1.2 1.3 1.6 2.1c.4.6.7 1.2 1.2 1.6.6.5 1.2.7 1.6 1.2.6.6 1.1 1.3 1.8 1.8l4.2 3c1.5 1 3.2 1.6 4.8 2.3s3 1.8 4.6 2.5c3.4 1.4 7.3 2.2 10.9 3 4 .8 8.2 1.6 12.4 2 4.2.6 8.3.5 12.5.5 4.2 0 8.3 0 12.5-.3 4-.4 8.1-1 12.1-1.9 4-.8 7.9-1.8 11.7-3 3.8-1.3 8-2.3 11.5-4.4 1.5-.9 3.1-1.5 4.7-2.4s2.7-2 4-3c3.2-2.2 6.7-3.8 9.3-6.6 1.3-1.3 2.5-2.6 4-3.7 1.4-1.2 2.7-2.5 4-4s2.6-2.6 3.6-4.2c1.1-1.6 2-3.5 2.7-5.3l2.2-5.5c.7-1.8 1-3.7 1.2-5.6.2-2 .8-3.9.7-5.8l-.3-5.8c-.1-.9 0-1.8-.2-2.7l-.5-2.5c0-.8-.4-1.7-.5-2.6l-.4-2.4c-.4-1.9-1-3.7-1.5-5.6-.5-2-.8-3.8-1.5-5.7s-1-3.8-1.8-5.7a24 24 0 0 0-2.5-4.7c-1-1.6-1.6-3.4-2.7-5A55.8 55.8 0 0 0 142 18.7c-1.3-1-2.8-1.9-4.3-2.8-1.6-1-3-1.8-4.8-2.4-3.7-1.3-7.2-3-11-4.2a197 197 0 0 0-18-4.1l-2.6-.3-3-.6-5.9-.6c-1.8-.2-3.6-.1-5.4-.6-1.8-.4-3.6 0-5.4 0-2 0-4-.2-6 0-1 0-1.9.3-2.9.4-1 .1-2 0-3 .2-2 .2-4 .8-5.9 1.3-3.6.8-7.2 2.2-10.7 3.5-1.5.6-3 1.2-4.1 2.2-.7.5-1.2.9-2 1.2l-2.6 1c-3 1.8-5.6 4.4-8.3 6.7-1 1-2.3 1.9-3.3 3-1.3 1.4-3 2.4-4.1 3.9l-1.6 2c-.6.8-1.3 1.4-2 2.1-.5.6-.8 1.2-1.2 1.9-.4.8-1.1 1.4-1.7 2-1.3 1.5-2 3.4-3 5s-1.6 3.3-2.4 5a54.8 54.8 0 0 0-2.9 8.1c0 .9 0 1.7-.2 2.5s-.4 1.5-.4 2.3-.4 1.7-.6 2.5c-.6 1.7-.6 3.6-1 5.3 0 .9-.4 1.6-.4 2.5s-.4 1.6-.5 2.6c-.2 1.9 0 3.9 0 5.8s-.3 3.7 0 5.6l.5 2.5c0 .9.5 1.6.5 2.4 0 .7 0 1.4.2 2.2.2.7.5 1.3.5 2 0 1.6-.7 3-1.8 4-1.4 1.4.7 3.5 2.1 2.2 2.2-2 3.3-5.5 2.3-8.4-.2-.8-.3-1.2-.3-2 0-.9-.3-1.5-.5-2.3l-.3-2.3c-.3-1-.3-1.9-.3-2.8v-8.5c0-.8.6-1.5.6-2.3.1-1.7.4-3.4.7-5l.5-2.5c.3-.9.7-1.8.8-2.7.1-.8 0-1.4.3-2.1.2-.8.2-1.6.2-2.4.2-1.9 1-3.7 1.7-5.4l2.2-5.2c.8-1.7 1.8-3.2 2.7-4.9.8-1.5 2.1-2.6 3-4 .4-.7.7-1.3 1.3-1.8a15 15 0 0 0 1.8-2.1 23 23 0 0 1 3.7-4c1.2-1 2.1-2.1 3.3-3 1.4-1 2.6-2.3 4-3.4s2.5-2.3 3.9-3.3c.7-.5 1.4-1 2.1-1.3.9-.5 1.8-.7 2.7-1 1.3-.8 2.3-1.8 3.7-2.4 1.4-.7 3-1.2 4.5-1.7L63 8.3c1.8-.6 4-1 5.9-1.4 1.8-.5 3.7-.3 5.6-.6C76.3 6 78.2 6 80 6s3.8-.2 5.6 0c.7 0 1.4.3 2.1.4l3 .2c1.8 0 3.7.4 5.6.6 7.9.8 15.6 2.4 23.1 4.5 3.7 1 7.1 2.5 10.7 4 1.7.6 3.4 1.2 5 2.2 1.5.8 3 1.5 4.4 2.6a65 65 0 0 1 11.7 11.9c1 1.5 1.7 3.2 2.6 4.8 1 1.5 2 3 2.6 4.7l1.6 5.3c.7 1.8 1 3.6 1.4 5.5s1.1 3.7 1.6 5.6l.3 2.2c.1 1 .4 1.7.6 2.6 0 .8.2 1.5.4 2.3.2 1 0 1.8.2 2.7l.4 5.6c0 2-.6 3.8-.8 5.8-.2 3.8-2 7.5-3.5 11a24 24 0 0 1-2.8 4.8c-1.1 1.4-2.4 2.8-3.7 4-1.3 1.4-2.7 2.5-4 3.6s-2.5 2.6-3.8 3.8c-2.7 2.4-6.1 4-9 6.2a21 21 0 0 1-4.4 2.8c-1.6.6-3 1.7-4.5 2.3-3.7 1.6-7.7 2.8-11.5 4a96.8 96.8 0 0 1-23.4 4.2c-4 .2-8.2.2-12.3.2-4 0-8-.1-12-.7s-8-1.3-12-2.3c-3.4-.8-7-1.4-10-3.3-1.5-1-3.2-1.5-4.8-2.2s-3-1.6-4.2-2.6l-2.1-1.5c-.7-.5-1-1.2-1.6-1.7-.6-.5-1.3-.8-1.8-1.3-.4-.4-.6-1-1-1.5l-1.5-2c-.5-.6-.8-1.2-1.1-2s-1-1.2-1.5-1.9-.7-1.5-1.4-2.1c-1-1-2.3-1-3.7-1.3-.7-.2-1.3-.4-2-.3-1 0-1.6.4-2.5.4h-5.5c-1.7 0-3.7.3-5.4 0l1.1 1.4c0 .4 0 .2.4-.1l.6-.5 1.4-1c1.7-1.1 3.2-2.4 4.7-3.7s-.6-3.4-2-2.1Z" class="cls-2"/><path d="m55.1 73.3.1.4-.1.4-.2.1-.1.1h-.3l-.2.1c-.4.1-.6.3-.6.6l-.2.2h-.3l-.4.3h-.5l-.5.3h-.5l-.1-.3v-.2h-.4l-.3-.1v-.6a1.5 1.5 0 0 0-.3-.2l-.4-.5c0-.3-.2-.4-.3-.6h-.4l-.1.2-.1.1-.1.2-.1.2a9.2 9.2 0 0 1-1.8.6 6.5 6.5 0 0 1-.9.6h-.4l-.4.2c-.1 0-.2-.1-.4 0h-.4a30.3 30.3 0 0 1-1.6-.2h-.2l-.2-.1-.2-.1h-.3l-.3.1h-.4l-.4-.1-.3-.4-.2-.3-.1-.1h-.1a4 4 0 0 0-.3-1c-.3-.6-.6-1.4-.7-2.2L39 71l-.2-.2V70l-.1-.7v-.3l-.1-.7.3-.8c0-.2.1-.5 0-.8l.2-.3.2-.2.5-.8c0-.3.1-.5.3-.7l.6-.4.7-.4.7-.3H44l.4-.1.7-.1h.4c.1.1.3 0 .4 0h.2l.3.2.3.1.5-.1v-.8a5 5 0 0 0-.3-.5l-.1-.5-.1-.4v-.3l-.2-.2-1.1-.2h-.2l-.7.1a3.2 3.2 0 0 0-1.2.2l-.5.2c-.2 0-.4 0-.6-.2V59.8l-.2-.5v-1l-.2-.2h-.1v-.3l.6-.2h.4l.5-.5h.1l1.2.1a5 5 0 0 0 1.1-.3l.7.1h.8l.2.3.3.1h.3l.3-.2.5.3h.2l.3-.2c.2 0 .4.2.5.3l.4.5c.2 0 .3.2.4.3l.4.4.2.2v.2l.4.2.2.2.4.2c.2 0 .2.2.3.3l.1.3.2.4.3.7v1.4l.2.4V63.9l.1.3-.1.4H53l-.2.1c-.3.2-.3.4 0 .6v.2l.2.2V66.3c0 .4-.2.8-.5 1.2l.3 1c.2.2.3.6.4.9l.3.2.2.2.1.2a3.2 3.2 0 0 0 .3 1.3l.3.6.3.6.3.3.2.5Zm-14.8 1Zm7.3-5.7c-.1-.3-.3-.5-.5-.6l-.5-.5-.1-.2h-.9a1 1 0 0 1-.4 0 2 2 0 0 0-.4-.1 1 1 0 0 0-.5.1l-.3.2-.2.2-.4.9.1.3c.1.1.1.3 0 .4l.2.7.2.6h.1l.8.2a7.5 7.5 0 0 0 1-.1l.9-.4.3-.3.3-.7.3-.7ZM73 60.8l-.2.6-.2.7-.5.4-.3.6-.3.4c0 .2-.2.3-.3.5h-.1l-.1-.2-.2-.1h-.2v.2l-.2.2H70l-.3-.2-.4-.3-.4-.1-.3-.1h-.1l-.2-.2H68V63.4h-.4l-.1.1-.2.1h-.6l-.6.1-.5.3c-.2 0-.3.1-.3.3l-.5.6a5 5 0 0 0-.4.7l-.1.2-.2.2v.4l.1.2-.1.2-.2.2v.4l.3.6.2.3.2.3.3.2.2.3.3.2.2.3H67.5a23.9 23.9 0 0 1 1-.3l.5.1.5.2.5-.3.6-.2.4.4.2.4.2.4.2.5.3.4a5.2 5.2 0 0 1 .4.6v1l-.6.3-.4.4-.2.3-.1.3h-.3l-.3.2h-.2l-.2.1-.6.3-.5-.1-.6.1-.5.1a1 1 0 0 1-.6 0l-.5-.3-.5.3-.7-.3h-.3a2 2 0 0 0-.4.1l-.3-.1-.3-.1h-.5l-.3-.3s-.2 0-.3-.2l-.3-.1-1-.8a12.5 12.5 0 0 0-1-1l-.5-.5-.3-.9-.5-.7v-.5l-.2-.3V67.9c.1-.1 0-.3-.1-.4v-.2c.1 0 .2 0 .2-.2l.1-.3v-.2l-.2-.2.1-.3.1-.3v-.6l.3-.3c0-.2 0-.3-.2-.3l-.3-.2.3-1 .4-.6V62c0-.3.2-.5.3-.8l.2-.1.2-.2.1-.3.1-.3.4-.4a24.1 24.1 0 0 0 .6-.4h.3l.3-.2.2-.2h.4c.2 0 .4 0 .5-.2l.5-.4c.2 0 .5 0 .8-.2.3 0 .5 0 .8-.2h.5c.1.2.3.1.4 0H67.5l.7.2c.3 0 .6 0 .8-.3l.1-.1h.2l.1.1c.6.5 1.2.8 2 .9h.3l.3.2.8.7c.2.2.3.4.2.7V60.8ZM91 60.8l-.3.6-.2.7-.5.4-.4.6-.2.4-.3.5H89l-.2-.2v-.1h-.3l-.1.2-.1.2H88l-.3-.2-.4-.3-.4-.1-.4-.1-.2-.2H86V63.4h-.4l-.2.1-.1.1h-.6l-.6.1-.5.3c-.2 0-.3.1-.4.3 0 .2-.2.4-.4.6a5 5 0 0 0-.4.7l-.1.2c0 .2-.1.1-.2.2v.8l-.2.2v.4l.3.6.2.3.2.3.3.2.2.3.3.2.2.3H84.9c.2.1.3 0 .4 0a23.9 23.9 0 0 1 1.2-.3l.4.1.5.2.5-.3.6-.2.4.4.2.4.2.4.2.5.3.4a5.2 5.2 0 0 1 .4.6v1c-.3 0-.4.2-.6.3l-.4.4-.2.3-.1.3h-.3l-.3.2h-.2l-.2.1-.6.3-.5-.1-.6.1-.5.1a1 1 0 0 1-.6 0l-.5-.3-.5.3-.7-.3H83a2 2 0 0 0-.4.1l-.3-.1-.3-.1h-.5l-.3-.3c-.1 0-.2 0-.3-.2l-.3-.1-1-.8a12.5 12.5 0 0 0-1-1l-.5-.5-.3-.9-.5-.7v-.5l-.2-.3V67.9l-.1-.4v-.2c.1 0 .2 0 .2-.2l.1-.3v-.2l-.2-.2.1-.3.1-.3v-.6l.3-.3c0-.2 0-.3-.2-.3l-.3-.2.3-1 .4-.6V62c0-.3.1-.5.3-.8l.2-.1.2-.2.1-.3.1-.3.4-.4a24.1 24.1 0 0 0 .6-.4h.3l.3-.2.2-.2h.4c.2 0 .3 0 .5-.2l.4-.4c.3 0 .6 0 .9-.2.3 0 .5 0 .8-.2h.5c.1.2.3.1.4 0H85.4l.7.2c.3 0 .6 0 .8-.3l.1-.1h.2l.1.1c.6.5 1.2.8 2 .9h.3l.3.2.7.7c.3.2.3.4.3.7V60.8ZM109.9 62.8v.7l-.1.7v.8l-.2.8-.2.2-.2.3v.5l-.1.3-.3.2c-.2 0-.4 0-.6.2l-.6.1h-1a7 7 0 0 0-1 0h-4c0 .1-.1.2-.2.1h-1.2l-.3.1h-.5l.1.2.2.3.1.3.2.3v.3l.1.3c.2 0 .3.2.4.3l.4.3.4.1h.4l.4.1h.9l.4.2h.6l.7-.2.3-.1.3-.2h.9l.2.3.3.4.4.6c.2.2.3.4.3.7l.2.3.2.3v.4l-.1.3-.3.2h-.1l-.1.2-.4.2-.4.3c-.3.3-.7.4-1 .4a1.2 1.2 0 0 0-.7.2l-.3.2h-.4l-.3.1h-1.1l-.7-.1-.2-.1h-.2c-.4 0-.7 0-1-.2l-1.1-.5c-.3 0-.5-.2-.6-.4l-.5-.4-.7-.4-.4-.1-.4-.3-.1-.3-.2-.3-.1-.2-.3-.2-.1-.2-.4-1.2c0-.4-.2-.7-.4-1v-2l-.1-.6v-.5l.1-.5.2-.6v-1.2l.3-.8.2-.3.2-.4.4-.8.5-.3.2-.1.4-.4.2-.4c.1-.1.2-.2.1-.3.2-.4.5-.7 1-1l.3-.2.4-.3.3-.1h.8l.1-.1.2-.1.1-.1h.2l.6-.2.5-.3c.3.2.7.2 1 .2h.7c.2 0 .4 0 .6.2l.5-.2c.2 0 .3 0 .5.2l.5.3h.4a18 18 0 0 0 1.5 1.3c.3.2.5.5.6.8 0 .2.2.3.2.3l.8 1v.7l.2.4Zm-4.4 1.2v-1.3l-.2-.2V62l-.4-.1-.2-.5-.3-.2h-.3l-1 .2c-.3 0-.7.1-1 .3h-.9l-.6.4-.5.6-.2.4-.2.4v.2c0 .2.1.3.2.3l.5.1.4.2h.2l.2-.1h1.2l.4-.1.5.1.4.1a3 3 0 0 0 1.7 0l.1-.2ZM124.8 61c0 .3-.2.6-.4.8l-.2.3-.2.2-.2.2-.2.3c-.1.3-.3.3-.6 0a.7.7 0 0 1-.2-.2h-.5a.5.5 0 0 1-.3-.3l-.2-.2-1-.4a2 2 0 0 0-1.1.1l-.5.6-.2.7v.5c.2.1.2.3.2.5l.5.4h.5l.3.2.2.2.4.3.5.4a11 11 0 0 0 1 .4l.4.2.2.3.3.4.3.5a17.3 17.3 0 0 1 .3 1.6v1.2l.1.4v.4a9.7 9.7 0 0 0-.8 2l-.3.3-.3.3-.2.2-.1.2a2 2 0 0 0-.6.4l-.3.6-.5.1-.5.1-.4.1a5 5 0 0 1-.4.2h-.8l-.8-.2a4 4 0 0 0-.7.2h-.5a2.2 2.2 0 0 0-1-.5l-.7-.6-.7-.7v-1.4c0-.3.2-.6.4-1l.5-.8h.4l.3.1.5.3.4.2c.2.1.4.2.5.1h.3l.2.1c.3.2.5.1.8 0l.3-.3.3-.3v-1.2l-.1-.2v-.2l-.5-.4-.3-.4s0-.2-.2-.3l-.8-.2-.4-.2a3 3 0 0 0-.4-.4h-.1l-.3-.1-.3-.1-.5-.3c-.2-.2-.3-.3-.3-.5l-.2-.4-.3-.4-.3-.4-.2-.8-.2-.8v-1l.1-.6.2-.7.6-1.1a50.6 50.6 0 0 0 2.3-2l.3-.2.6-.2.5-.1h.8a2 2 0 0 1 1-.2l.9.2H121.7l.6.5.5.4.4.2.3.2.6.6.5.7.1.5.1.5ZM139.7 61c0 .3-.2.6-.4.8l-.2.3-.3.2-.2.2-.1.3c-.1.3-.3.3-.6 0a.7.7 0 0 1-.3-.2h-.4a.5.5 0 0 1-.3-.3s-.1-.2-.3-.2l-1-.4a2 2 0 0 0-1 .1l-.5.6-.2.7v.5l.2.5.5.4h.5l.2.2.2.2c.2 0 .4.2.5.3l.5.4a11 11 0 0 0 1 .4l.3.2.3.3c0 .2.2.3.3.4 0 .2.2.3.3.5a17.3 17.3 0 0 1 .2 1.6v.6l.1.6v.4c.1.1 0 .3 0 .4a9.7 9.7 0 0 0-.7 2l-.3.3-.3.3-.2.2-.1.2a2 2 0 0 0-.6.4l-.4.6-.5.1-.5.1-.4.1a5 5 0 0 1-.4.2h-.8l-.7-.2a4 4 0 0 0-.7.2h-.5a2.2 2.2 0 0 0-1-.5l-.7-.6-.7-.7v-1.4c0-.3.2-.6.4-1l.5-.8h.3l.4.1.4.3.5.2c.2.1.4.2.5.1h.2l.3.1c.2.2.5.1.8 0l.3-.3.2-.3v-1.4l-.1-.2-.5-.4-.2-.4-.2-.3-.8-.2-.4-.2a3 3 0 0 0-.4-.4h-.1l-.3-.1-.3-.1-.6-.3-.2-.5c0-.2-.2-.3-.3-.4l-.2-.4-.4-.4-.1-.8-.2-.8c-.2-.3-.2-.6 0-1v-.6l.3-.7.5-1.1a50.6 50.6 0 0 0 2.3-2l.4-.2.6-.2.5-.1h.7a2 2 0 0 1 1-.2l1 .2H136.5l.5.5.5.4.4.2.4.2.6.6.5.7.1.5.1.5Z" class="cls-2"/></svg>