<svg xmlns="http://www.w3.org/2000/svg" width="218.5" height="193.6" data-name="トップベース" viewBox="0 0 163.9 145.2"><defs><clipPath id="a"><path d="m283.6-824.5 88.3-34.6 61-22.1 38.3 28.3v82.8l25.7 58.8-69.9 70.6-104.2 16.9-70.1-34.5-34.5-33.9 65.4-132.3z" style="stroke-width:0;fill:none"/></clipPath></defs><path d="m45.2 131.7-1 1-.9 1.2-1 1.1-1 1-.8.6-.8.5-.8.6-.7.6-1.2 1.1c-.4.3-.7.8-1 1.2l-1.2 1-1.3 1-.3-1.2.2-1c0-.4.2-.8.3-1.1l.3-1 .2-.9.2-.8.2-.8v-.8c0-.7.3-1.6.5-2.4l.7-2.4.3-2.4a4 4 0 0 0-.8-2.3c-.7-1-1.6-1.8-2.6-2.6l-2.9-2.1-3-2-2.7-2.3-2.2-1.9-2.4-1.7-2.2-1.8a23 23 0 0 1-4.6-5.1l-1.2-1.7-1.2-1.6A62.5 62.5 0 0 1 7.8 99a84 84 0 0 1-3.6-12.3A30.3 30.3 0 0 1 4 78l.3-2.4.2-2.4.2-3.7.2-3.7a74.9 74.9 0 0 1 2.2-11.7A65.6 65.6 0 0 1 14.3 38l1.2-1.8 1.1-1.8.7-1.1.7-1.2.6-1.1.8-1a30 30 0 0 1 6.7-6.5 73.5 73.5 0 0 1 7.7-5.1A103 103 0 0 0 37 16l3.4-2.2 3.4-2.2a35.5 35.5 0 0 1 7.3-3.2A80 80 0 0 1 59 6.2L62.7 5A40.8 40.8 0 0 1 72 3.5l3-.3 4.6-.4a165.1 165.1 0 0 1 9-.4 44.3 44.3 0 0 1 9.4 1l2.4.5 2.5.5h1.1l1.2.1h1.1l1.1.2a56.8 56.8 0 0 1 10.3 2.7l5.4 2 5.4 2.3a64.6 64.6 0 0 1 10 5.7 81.5 81.5 0 0 1 7 5.9 40.4 40.4 0 0 1 5.6 7 95.2 95.2 0 0 1 4.8 10.6 37 37 0 0 1 1.5 6.4c0 1 .2 1.8.3 2.7a60.3 60.3 0 0 0 1.7 8.5l.2 1.5v7.8a27 27 0 0 1-1.2 7.8 52.2 52.2 0 0 0-.8 5.2v.5a6 6 0 0 1-.3 1l-.1.6a65 65 0 0 1-6 13.4l-1.7 3.2a56.4 56.4 0 0 1-3.7 6c-.7 1-1.6 1.8-2.5 2.6l-2.6 2.4-2.4 2.4a30.2 30.2 0 0 1-5.5 4.3 92.9 92.9 0 0 1-26.6 11 120.4 120.4 0 0 1-16.3 3.2l-3.4.4-3.5.4a86.2 86.2 0 0 1-8.4.6c-1 0-2 0-2.8.2a120.7 120.7 0 0 0-6.4.5h-4.2a65.9 65.9 0 0 1-6-.3l-1.8-.4-1.9-.4-1.9-.4c-1-.1-1.8-.2-1.8 0h-.6l-.7-.2-.8-.2h-.5" style="fill:#fff;stroke-width:0"/><path d="m44.1 130.6-2.4 3c-1 1-2 1.7-3.1 2.5-1 .8-2 1.6-2.9 2.6-1 1-1.8 1.9-3 2.5l2 .6c-.2-.6.3-1.6.4-2.1l.7-2.3c.4-1.7.5-3.5 1-5.2.5-1.6 1-3.2.8-4.8A7.3 7.3 0 0 0 35 123c-2.7-2.6-6.1-4.3-9-6.7l-3.9-3.3c-1.6-1.2-3.3-2.4-4.8-3.8-2.5-2.2-4.2-5.2-6.2-7.8-1-1.2-1.9-2.4-2.5-3.8-.8-1.8-1.3-3.8-1.9-5.7A40 40 0 0 1 5.3 80l1-11.8A65.6 65.6 0 0 1 17 36.5c1-1.4 1.8-3 2.7-4.4a19 19 0 0 1 3.9-4.6c2.8-2.6 6-4.9 9.4-7l9.4-6c3.2-2 6.5-3.7 10-4.8 3.6-1.2 7.2-2.1 10.7-3.1s7.3-1.5 11-1.8C78 4.5 81.8 4 85.6 4a51 51 0 0 1 11.1.7l5.9 1.1c1.6.3 3.3.2 5 .5 3.6.6 7.2 1.6 10.7 3a154 154 0 0 1 11.2 4.5c6.7 3.1 13 7.8 17.8 13.6a43.3 43.3 0 0 1 8.8 21.3l.9 5.4c.4 1.8.9 3.4 1 5.2.2 1.7.2 3.3.2 5 0 2 0 3.8-.2 5.7-.3 3.7-1.5 7.2-1.8 10.8a69.5 69.5 0 0 1-3.4 9.4c-1.7 3.5-3.5 6.8-5.3 10.1a27 27 0 0 1-3 4.6c-1.2 1.4-2.7 2.6-4.1 4-2.7 2.5-5.1 5.1-8.2 7a97.8 97.8 0 0 1-32.8 12.3c-7.4 1.6-15 2.6-22.4 3l-11.1.8c-3.3.2-7 .3-10.2-.2l-4.7-1c-1-.2-2.9-.8-4-.1-.6.4-.9 1.3-.5 2l.1.1 1.3-2.2c-.9 0-1.7-.5-2.7-.5-1.1 0-1.8 1.2-1.3 2.2v.1c1 1.7 3.6.2 2.7-1.5L45 133c1 0 1.8.5 2.7.5 1.1 0 1.9-1.3 1.3-2.3l-.6 2c-.4.3-.1.1.3.2l1.3.2 3.3.7a68.8 68.8 0 0 0 15.4.4c3.8-.4 7.7-.5 11.6-.8a151.4 151.4 0 0 0 35-7 103 103 0 0 0 21-10.5c3-2.3 5.5-5 8.3-7.6s4.7-5.9 6.4-9.2 3.8-7 5.3-10.6c.8-1.8 1.5-3.7 2.1-5.5.5-1.4.5-2.9.7-4.3.5-3.8 1.7-7.4 1.8-11.3a48 48 0 0 0-.3-10.7l-1.2-5.4c-.3-2-.5-3.9-.9-5.8-.6-4-1.9-7.7-3.6-11.3a43.2 43.2 0 0 0-14.8-18c-6.4-5-14-7.7-21.4-10.5a57.4 57.4 0 0 0-11-3c-1.6-.3-3.4-.2-5-.5l-6.3-1.1C88.8.3 81 1.2 73.3 1.8c-7.6.7-15 2.7-22.3 5.2-7.4 2.5-13.6 7.2-20.1 11.3a64.1 64.1 0 0 0-9.4 7 25.6 25.6 0 0 0-4 4.5c-1 1.6-1.8 3.3-2.9 4.9A71 71 0 0 0 3.3 67l-1 12.2c-.3 4.1.3 8.2 1.3 12.2 1 3.5 2 7.2 4 10.2 2 2.7 4 5.6 6.2 8.2 2.6 3 6 4.8 9 7.4 2.8 2.6 6.3 4.4 9.2 7 1.3 1 2.7 2.3 2.6 4s-1 3.6-1.3 5.3c-.3 1.7-.4 3.3-1 4.9-.4 1.6-.8 3.1-.1 4.8.3.7 1.4.9 2 .5 2.5-1.3 4.1-3.7 6.3-5.4 1-.8 2.1-1.5 3-2.5l2.8-3.2c1.3-1.4-.9-3.5-2.1-2Z" style="fill:#4a2571;stroke-width:0"/><path d="M30.3 76.5v.7l-.2.1H30l-.2.1h-.2c-.3.1-.4.3-.5.5v.1l-.4.1-.3.2H28l-.3.2h-.1c-.1 0 0 0 0 0h-.3l-.2-.2v-.2h-.4v-.5h-.2l-.1-.1a10.6 10.6 0 0 0-.6-1h-.1l-.2.1v.1l-.1.1-.1.2-.1.1a10.6 10.6 0 0 1-1.4.5 4 4 0 0 1-.4.2 3 3 0 0 0-.3.3h-.4l-.3.1h-1.1l-.6-.2h-.5l-.2-.1h-.2l-.2.1h-.3a2 2 0 0 1-.4-.1l-.2-.2-.1-.3-.1-.1h-.1c0-.3-.2-.5-.3-.7l-.5-1.8v-.1l-.2-.2V74l-.2-.5v-.7l.2-.7v-.7l.2-.2.2-.2.3-.6c0-.2.2-.3.3-.5l.4-.3.6-.3.6-.3h1.7l.6-.2.3.1h.5l.3.1.2.1.4-.1v-.6l-.3-.4v-.4l-.1-.3V67l-.2-.2-.9-.2h-.1l-.5.1h-.6l-.4.2-.4.1c-.2.1-.3 0-.4 0l-.1-.6V66l-.1-.5v-.8h-.1l-.2-.2v-.1l.5-.2h.4l.3-.4h.1l1 .1.8-.2H24c0 .1 0 .2.2.2l.2.2.2-.1h.3l.3.1h.4l.4.1.4.4.3.3c0 .2.2.2.3.3l.1.1v.2c.2 0 .3.1.3.2l.2.1.3.2.2.2.1.3.2.2.2.6v1.1l.1.3v.5l.2.2c0 .1 0 .2-.2.3l-.2.1c-.2.2-.3.3-.1.5v.1l.2.2v.4c0 .4-.2.7-.4 1 0 .3.2.5.3.7l.3.8.2.1.2.2v.2l.1.5.2.5.2.5c0 .2.2.3.3.4l.2.3.2.3Zm-11.7.8Zm5.8-4.4c-.1-.3-.3-.5-.4-.5-.3-.1-.4-.3-.4-.4l-.1-.1h-1.1l-.2-.2c-.2 0-.4 0-.5.2l-.2.1-.1.2-.4.7.1.2a37.8 37.8 0 0 1 .4 1.4H23l.7-.3c.1 0 .2 0 .3-.2l.2-.5.3-.6ZM44.2 76l-.3.5-.2.5-.6.6a2 2 0 0 1-1.2.6h-.7a3 3 0 0 1-.8 0 6 6 0 0 1-.4-.2l-.5-.2a2 2 0 0 0-.3-.1h-.4l-.2-.2-.3-.2c0-.2-.2-.4-.4-.6-.2-.1-.3-.4-.4-.6v-.5l-.2-.5v-3.9c0-.3 0-.5.2-.7l-.1-.4-.2-.6h-.9l-.4.1h-.4v-1.3l-.1-.4V66l.4-.3H37l.5-.3h.3c.3 0 .6-.2 1-.5V64l-.2-.4.1-.2v-.2c.1 0 .1-.1 0-.2v-.8l.1-.2v-.2H40a24.9 24.9 0 0 1 2 .3l.2.2v.2l-.1.1v.3l-.1.3v.3l-.2.5v.1l.1.2v.3l-.1.4.7.5 1 .3c.3.2.4.4.4.7a10.5 10.5 0 0 1-.1 1.7v.5l-.9.2h-.3a4 4 0 0 0-.6.1l-.7.3-.1.3v.7H41l-.2.5-.1.4v2c0 .1 0 .3.2.4h.2l.2.2c.1.2.3.3.5.3h.7l.2-.2h.2c.2 0 .3 0 .3.2l.2.3.2.3.2.3.2.4v.4ZM58 76c0 .1 0 .3-.2.5s-.1.3-.2.5l-.6.6a2 2 0 0 1-1.2.6h-1.5a6 6 0 0 1-.4-.2l-.5-.2a2 2 0 0 0-.3-.1h-.4l-.2-.2-.2-.2-.5-.6-.4-.6v-.5l-.2-.5v-3.9l.2-.7-.1-.4-.2-.6h-.9l-.4.1h-.4v-1.8l-.2-.4v-.3l.1-.2v-.5l.1-.4.3-.3h1.2l.5-.3h.3c.3 0 .6-.2 1-.5V64l-.2-.4.1-.2.1-.2v-.5l-.1-.2v-.2l.1-.2v-.2H54a24.9 24.9 0 0 1 2 .3l.2.2v.2l-.1.1v.3l-.1.3v.3l-.1.5v.6l-.1.4.7.5 1 .3c.3.2.4.4.4.7a10.5 10.5 0 0 1-.1 1.7v.5l-.9.2h-.4l-.6.1-.7.3-.1.3v.7l-.3.5-.1.4v2l.2.4h.2l.2.2c.1.2.3.3.5.3h.7l.2-.2h.2c.2 0 .3 0 .3.2l.2.3.2.3.2.3.2.4.1.4Zm16.8-7.7v1.1l-.1.6-.1.7-.2.1-.1.3v.4l-.1.2-.3.1-.5.2-.4.1a3 3 0 0 1-.8 0h-3.9l-.2.1h-1.6l.1.2.1.3.2.2v.2l.2.3v.2l.3.3.3.2h.3l.3.1h.3c.1 0 .3.1.4 0h.3l.4.2a7.7 7.7 0 0 1 1-.1 4.6 4.6 0 0 1 .4-.3h.7l.2.3.3.3.3.5.2.5.2.3.1.2v.5l-.3.2h-.1c-.1.2-.3.2-.4.3l-.3.2a1 1 0 0 1-.8.4H71l-.3.1-.3.1h-.2l-.3.1h-1.4l-.2-.1h-.1c-.3 0-.6 0-.9-.2l-.8-.4a.5.5 0 0 1-.5-.3 2.4 2.4 0 0 0-.9-.6l-.3-.1-.4-.2v-.3l-.1-.2-.2-.1-.2-.2-.1-.2-.3-.9a6 6 0 0 0-.3-.9v-1.5l-.1-.4V71l.1-.5.2-.4v-.2l-.1-.2.1-.6.1-.6.2-.3.2-.3.3-.6.4-.2.1-.1.4-.4.1-.2c.1-.1.2-.2.1-.3l.7-.7.3-.2.3-.3h.7l.2-.1h.1l.1-.1h.1l.2-.1c.1 0 .3 0 .4-.2s.3 0 .4-.2c.3.1.6.2.9.1h.5l.5.2.3-.1.5.1.3.3h.3l.6.5.6.5c.3.2.5.4.5.7l.2.2.6.7v.6l.2.3Zm-3.4 1v-.9l-.1-.2v-.6h-.4l-.2-.5-.2-.1h-.3l-.7.1-.8.2H68l-.5.4a6.7 6.7 0 0 0-.6.8s0 .2-.2.3v.1c0 .2.2.3.3.3h.3l.3.2h.4c.3-.2.4-.2.6-.1h1.1l.3.1.7.1h.6l.2-.3Zm19.2 4.6v2.6l-.4.2h-.6l-.6.1a1 1 0 0 1-.3 0h-.4l-.2-.1c-.3 0-.4 0-.6-.2l-.2-.4v-1.3l-.1-.8-.1-.1V73l-.2-.6V72c0-.2-.2-.4-.4-.5v-.4l-.1-.4-.2-.1-.3-.2-.3-.1V70l-.2-.1h-.9l-.2.4-.2.1-.2.2v.1l-.3.6v1.3l.1.1v.7l-.1.6v2.5l-.4.5-.2.1-.1.1h-.7l-.2.2-.7-.1h-.7l-.3-.1a1 1 0 0 1-.2-.3 1 1 0 0 1-.1-.3l-.1-.4v-1.5a8.5 8.5 0 0 0 0-1.7v-1.2l.1-1.2V70l.2-.6.1-.5.2-.3.2-.3c0-.3.1-.5.3-.7 0-.2.2-.4.3-.5.1-.3.3-.4.5-.3l.1-.3v-.2l.6-.4.6-.2h1.1c.1 0 .3 0 .4.2l.5.1.5.1h.5l.4.2.4.5h.6a8.6 8.6 0 0 1 .7.9v.2l.3.1v.2l.6.2.2.3.4.1v.5l.2.5c0 .2 0 .5.2.7l.2.4v.5l.2.3.1.3v2Zm13.9 2.1-.2.5c0 .2-.2.3-.3.5l-.5.6a2 2 0 0 1-1.3.6h-1.4a6 6 0 0 1-.5-.2l-.4-.2a2 2 0 0 0-.4-.1h-.4l-.2-.2-.2-.2-.5-.6-.3-.6v-.5l-.2-.5V73l-.1-.4v-1.4l.2-.7v-.4l-.3-.6h-.9l-.4.1H96l-.1-.2v-1.5l-.1-.4v-1l.1-.4.3-.3h1.3l.4-.3h.2c.4 0 .7-.2 1-.5l.1-.4-.1-.5-.2-.4.2-.2v-.8l-.1-.2v-.1l.1-.1V62l.1-.2h1.2a24.9 24.9 0 0 1 1.9.3l.3.2-.1.2-.1.1v.6l-.1.3-.1.5v1c.1.2.4.4.7.5l1 .3.4.7a10.5 10.5 0 0 1-.2 1.7v.5l-.8.2h-.3l-.7.1-.7.3v.3l-.1.3v.4l-.3.5c-.1.1 0 .2 0 .4l-.1.5v1.5l.3.4h.2l.1.2.6.3h.6l.3-.2h.2c.1 0 .2 0 .3.2l.1.3.3.3.2.3.1.4.2.4Zm9.8-12.6v.8l-.1.3v.3l-.2.3-.1.3h-.1v.2l-.4.2-.4.1h-.4l-.1-.1-.1-.1-.2-.1h-.1l-.2-.1-.1-.2-.1-.5V62l.1-.1.2-.2c0-.2.1-.2.2-.3l.2-.2.3-.3h.4v.1h.2c.1 0 .2 0 .3.3l.1.2h.2l.1.7.1.3v.3l.1.4v.3Zm-.1 6.2v1.6l-.2.3.1.3v1.5l-.1.5v2.4l-.2 1v1l-.1.3h-.1l-.4.1h-.4v-.2l-.2-.1h-.3a12.4 12.4 0 0 1-.4-.7c-.2-.1-.2-.3-.2-.5l.1-.5V69l.3-.2h.4l.3-.2.1.1.1.1h.4l.1.2v.1l.2.1h.2l.1-.1.1.1v.6Zm17.1.9v.6l-.2.3v1.3l-.3.4v.3l-.1.1-.2.2-.2.4-.1.4v.3l-.3.2-.3.2-.2.2-.2.1h-.2c-.4 0-.5.2-.5.4l-.6.4-.6.5-1.1.5h-.5l-.5.2h-1.7l-.4-.1-.5-.2-.4-.3a.8.8 0 0 1-.3-.2l-.2-.2v-.1l-.2-.1-.1-.1-.2-.1a5 5 0 0 1-.8-.7 2 2 0 0 1-.5-.9l-.3-.6a3.5 3.5 0 0 0-.2-.4v-.4l-.1-.1v-2l.1-.3.1-.4.1-.3.1-.3.1-.3.2-.3V69l.2-.5v-.4l.2-.2.1-.2.2-.2.1-.3.3-.3.1-.3.2-.1v-.7h.2l.2-.1.4-.3.5-.2.5-.2.6-.2h1l.6.1h1.2l.3.2.2.2h.1l.2.1c.3 0 .5.1.7.3l.6.4v.3c0 .1 0 .2.2.3h.4l.1.3.2.2.2.3.2.2v.1l.1.2.2.1.1.3.2.3.1.5.1.1.2.2v.5l.2.5Zm-3.8 1V71c-.1 0-.2-.2-.1-.3l-.1-.1v-.5l-.4-.6a9 9 0 0 0-.4-.5c-.4 0-.7-.1-1-.3a1 1 0 0 0-.9 0l-.1.1h-.2c-.3 0-.4 0-.5.3l-.2.3v.2l-.2.3-.1.2-.2.3-.2.3-.1.5-.1.5.1.3.2.3.1.7v.2l.6.1c.2.1.3 0 .4.2h1.3l.4-.1.4-.3.4-.3.5-.6.4-.7Zm19.5 2.4v2.6l-.3.2h-.6l-.6.1a1 1 0 0 1-.4 0h-.4l-.2-.1c-.2 0-.4 0-.5-.2l-.2-.4v-1.3c0-.3 0-.5-.2-.8v-.3l-.1-.6-.1-.6V72l-.4-.5v-.4l-.2-.4-.2-.1-.2-.2-.3-.1-.1-.2c-.1-.2-.1 0-.2-.1h-.8l-.3.4-.2.1-.1.2-.1.1-.2.6v4.1l-.1.3v.7c0 .2-.2.3-.3.5h-.1l-.2.1v.1h-.8s0 .2-.2.2l-.7-.1h-.7l-.3-.1-.2-.3v-.3l-.2-.4v-1.5a8.5 8.5 0 0 0 .1-1.7v-2.4l.1-.3V70l.2-.6V69l.3-.3.2-.3c0-.3 0-.5.2-.7l.4-.5c0-.3.2-.4.5-.3v-.3l.1-.2.6-.4.6-.2h1c.2 0 .3 0 .4.2l.5.1.6.1h.4l.4.2.4.5h.7l.2.4.4.3v.2l.1.2.2.1v.2l.6.2c.1 0 .2.1.2.3s.2.1.4.1l.1.5.1.5.2.7.2.4v.5l.2.3.1.3V74Z" style="stroke-width:0;fill:#5c3383"/></svg>