<svg xmlns="http://www.w3.org/2000/svg" id="_トップベース" width="257.8" height="203" data-name="トップベース" viewBox="0 0 193.4 152.2"><defs><clipPath id="clippath"><path d="m-466.9-836.9 88.3-34.6 61-22 38.2 28.3v82.7l25.8 58.9-69.9 70.6-104.2 16.9-70.1-34.6-34.5-33.8 65.4-132.4z" style="stroke-width:0;fill:none"/></clipPath><style>.cls-4{stroke-width:0;fill:#5b3282}</style></defs><path d="m21.5 70.5-1.6.1-1.6.1-1.6.2-1.5.4c-.4 0-.7.2-1 .3l-1 .3-1 .2-.9.3-1.7.3L8 73c-.6 0-1.2.1-1.7.3l-1.6.6 1.1.8 1.3.5c.4.2 1 .2 1.3.3l1.4.4 1 .3.9.2 1 .3a17.7 17.7 0 0 0 3.8 1.3l2.9.8 2.8 1.1c.8.4 1.7 1.2 2.3 2 .7 1 1.3 2.2 1.8 3.3l1.2 3.6 1.1 3.6A28 28 0 0 0 30 96l1.2 2.8 1 2.9a46.8 46.8 0 0 0 2.4 5.6 34.9 34.9 0 0 0 2.6 3.8l1.3 1.8 1.3 1.8A93.8 93.8 0 0 0 43 119l1.2 1.2a181 181 0 0 0 7.2 6 76.9 76.9 0 0 0 10.5 6.3 95 95 0 0 0 5.6 2.3l2.7 1.1 4.2 2 4.3 1.8 4.2 1.7c1.4.6 2.9 1 4.4 1.5a115.8 115.8 0 0 0 28.9 4.9h4l1.5.2 1.5.1c.5.1 1 0 1.6 0a35.6 35.6 0 0 0 9.5-1.8 69.6 69.6 0 0 0 9.2-3.4l3.7-1.5 3.8-1.4 3.8-1.6a31.8 31.8 0 0 0 9.5-6.5 113 113 0 0 0 11-11.6l1.6-2.3 2.3-3.5a67.1 67.1 0 0 0 5.6-10.8 27 27 0 0 0 1-4.4l.5-2.2.5-2.2.4-1 .4-1 .4-1c.2-.3.2-.6.3-1a46.7 46.7 0 0 0 1-9.7v-5.7a63 63 0 0 0-2.6-16.7 88.5 88.5 0 0 0-4-9.2 51 51 0 0 0-15.4-18 65.5 65.5 0 0 0-6.5-4.7l-2.9-1.8a137 137 0 0 1-8.7-6 35.2 35.2 0 0 0-3.4-2 28 28 0 0 1-3.5-1.7l-3.4-1.6-3.5-1.6a16 16 0 0 0-3.7-1.2l-2-.7c-.6-.3-1.4-.4-2.1-.6l-2-.8-2-.8-.7-.3-.6-.2-.6-.2-.7-.1a106 106 0 0 0-17.3-2.7c-1.4 0-2.8-.2-4.1-.4l-4.1-.3h-4.1a20 20 0 0 0-4.1.5l-3.6.8-3.7.6a30 30 0 0 0-7 2 80.3 80.3 0 0 0-33.1 26.8 153.7 153.7 0 0 0-5.2 7.3L33.4 44l-1.3 2.2a47 47 0 0 1-3.5 5.4 37.6 37.6 0 0 0-2 3.3l-.8 1.7a33 33 0 0 0-2 5l-.3 1.7a112.5 112.5 0 0 1-.6 3.5c-.3 1-.5 1.6-.7 1.6 0-.3-.2 0-.2.4l-.1.7-.1.7c-.1.4-.2.6-.3.4" style="fill:#fff;stroke-width:0"/><path d="m21.5 69-4.6.4c-1.4.1-2.7.6-4 1-3 .9-6.2.8-9 2.2-.8.5-.9 1.7-.2 2.4 1.3 1.3 3.1 1.7 4.9 2 1.5.4 3 .8 4.4 1.4 1.8.8 3.7 1.2 5.6 1.7 1.7.5 3.6 1 4.7 2.7 2.4 3.3 3 7.8 4.4 11.6.7 1.8 1.6 3.5 2.2 5.3l2 5.5c1.7 3.8 4.4 7 6.7 10.4 1.1 1.6 2.2 3.2 3.6 4.6a75.3 75.3 0 0 0 15 11.4c3.5 2 7 3.3 10.7 4.8 7.7 3.2 15 6.8 23.1 9a108 108 0 0 0 24 3.7l5.6.1c1.8.2 3.6.3 5.4.1a47 47 0 0 0 12.7-3l11.5-4.6c3.8-1.4 7.5-3 10.8-5.4 3.5-2.5 6.6-5.5 9.7-8.4 3-2.8 5.5-6 7.7-9.5s4.6-7 6.3-10.8c1.8-3.7 2.4-7.6 3.4-11.6.4-1.7 1.2-3.2 1.6-4.8.5-2 .8-4 1-6a85.9 85.9 0 0 0-2.1-25.6c-1.3-3.9-2.9-7.7-4.8-11.3s-4.5-7-7.3-10a78.8 78.8 0 0 0-9.2-8.8c-3.4-2.6-7-4.8-10.6-7.2-3.4-2.2-6.5-4.8-10.2-6.6-3.9-2-7.8-4-11.9-5.5-1.9-.7-3.9-1.2-5.8-1.8l-5.5-2.2c-1.8-.8-3.6-1-5.5-1.3l-6.5-1.1c-4.3-.6-8.6-1-12.9-1.3-4.1-.5-8.1-.4-12.2.5-4 1-8.4 1.2-12.3 2.7a73.5 73.5 0 0 0-21.2 12.9A102.5 102.5 0 0 0 36.1 37c-2.3 3.1-4.2 6.4-6.2 9.7-1.1 1.9-2.4 3.6-3.5 5.4a46.7 46.7 0 0 0-4.2 10l-.5 2.8-.3 1.3s-.3.7-.2.8c0 .3-.7.3.2-.1l1.9.2-.1-.1c-.6-.7-2-.5-2.4.3-.4.7-.2 1.7-.5 2.4l2.4-.3h-.1c-1.3-1.5-3.4.6-2.2 2l.1.1c.6.7 2 .6 2.4-.3.4-.7.2-1.7.5-2.4l-2.4.3.1.1c.5.5 1.3.5 1.9.2 1.3-.5 1.4-3 1.7-4.1.3-1.7.5-3.4 1-5a51 51 0 0 1 5.8-10.5c2-3.1 3.7-6.5 5.9-9.5 2.3-3.3 4.8-6.5 7.4-9.6A81.3 81.3 0 0 1 73.8 9c3.7-1.6 7.7-2 11.6-2.7 2-.4 4-1 6.2-1 2-.2 4 0 5.9.1 4.1.4 8.3.7 12.5 1.3l6.3 1c2 .4 4 .7 5.7 1.3l5 2 5.7 1.8c4 1.3 7.8 3.4 11.6 5.3 1.6.7 3.2 1.6 4.7 2.5l5.1 3.7c3.5 2.4 7.2 4.5 10.6 7A64.5 64.5 0 0 1 181 49.6a50 50 0 0 1 6.7 23.3 83 83 0 0 1 0 12.7c-.3 2-.5 4-1.2 5.8-.5 1.6-1.1 3-1.5 4.6-.9 4-1.6 7.8-3.5 11.5-1.8 3.6-4 7-6.3 10.3a45.5 45.5 0 0 1-7.7 9.1c-3 2.8-6 5.8-9.6 8a53.8 53.8 0 0 1-10.9 5c-7.5 2.9-15.3 7-23.6 6.7-1.7 0-3.3-.2-5-.3l-5.4-.1a106.2 106.2 0 0 1-35-8.4c-3.5-1.5-7-3.2-10.8-4.7A67 67 0 0 1 47 120.6c-1.5-1.3-3-2.6-4.2-4.3l-3.4-4.7a39.1 39.1 0 0 1-5.7-10.3c-1.3-3.6-3-7.1-4.1-10.8-1-3.5-2-7.9-4.8-10.5-2.7-2.6-6.7-2.7-10-4l-4.3-1.5C9 74.1 7 74 5.7 73l-.3 2.3c1.4-.7 3-.8 4.4-1 1.3-.2 2.5-.5 3.8-.9 1.1-.3 2.3-.8 3.5-1 1.4-.2 3-.2 4.4-.3 2-.3 2-3.3 0-3Z" style="fill:#4a2571;stroke-width:0"/><path d="m59.4 71.7-.3.6-.2.8a2 2 0 0 0-.5.5 8.4 8.4 0 0 0-.7 1.1c0 .2-.2.3-.3.5h-.1L57 75h-.2l-.1.2-.2.2h-.1l-.2.1-.3-.3c-.2 0-.3-.2-.4-.3H55l-.4-.2s-.1 0 0 0l-.3-.2c0-.1-.1-.1-.2 0l-.1.1v.3h-.6l-.1.2H53l-.3-.1c-.3 0-.5 0-.7.2l-.6.3c-.1 0-.3.1-.3.3l-.5.7-.5.7v.2l-.2.3v.2l-.1.2.1.3-.1.2-.1.2v.4l.3.6.2.3.2.4.3.2.3.3.3.3.2.2h1l.5.1h.4l.7-.2.6-.2.5.2.5.1.5-.3.6-.2c.2 0 .4.2.5.4l.3.4c0 .1 0 .3.2.5a10.7 10.7 0 0 0 .5 1l.2.2.2.3v1l-.6.5-.5.4-.1.3-.2.3-.3.1-.3.2h-.2l-.3.1-.6.4-.6-.2a1 1 0 0 1-.6.2h-1.2l-.6-.2-.5.2-.8-.2a1 1 0 0 1-.3 0h-.7l-.3-.2h-.6l-.3-.2-.3-.2a.6.6 0 0 0-.3-.2c-.5-.2-.8-.5-1.1-.8a15 15 0 0 0-1.7-1.7l-.3-.9-.5-.8-.1-.4-.2-.5v-1.4c0-.2 0-.3-.2-.5l.1-.2.2-.2.1-.3v-.2l-.2-.2.1-.4.1-.3v-.7l.3-.3c0-.2 0-.3-.2-.3l-.3-.2.3-1 .4-.8v-.8l.3-.9.2-.1.2-.2.2-.4v-.3l.5-.4a30 30 0 0 0 .6-.4l.3-.1c.1 0 .2 0 .3-.2l.3-.2h.4c.2 0 .4 0 .5-.2l.5-.4 1-.2.8-.3.5.1h2.2c.4.1.7 0 1-.2v-.2l.2.1h.2c.6.6 1.3 1 2 1h.5l.3.2.8.8c.2.2.3.4.3.7v.3Zm19.6 5v.8l-.2.4v1.8l-.4.5v.5l-.2.2-.3.2c0 .2 0 .4-.2.6l-.2.6v.3l-.3.3a1 1 0 0 0-.4.3l-.3.2a3 3 0 0 0-.3.2h-.4c-.3 0-.5.2-.5.6l-.8.6-.8.6c-.4.3-1 .5-1.6.6l-.7.2-.6.2h-2.4l-.5-.1-.7-.4-.5-.3a1 1 0 0 1-.4-.3c-.2 0-.3-.2-.3-.3l-.1-.2h-.2l-.2-.2-.2-.2-1-.9a3 3 0 0 1-.8-1.1 4 4 0 0 0-.4-.9l-.2-.3-.2-.3.1-.3-.1-.2-.1-.2v-2.6l.2-.4v-.5l.2-.4.2-.4.1-.5.2-.5v-.3l.3-.6v-.5l.3-.3.1-.2.2-.4.2-.3c0-.2.2-.4.3-.5l.3-.4.2-.2v-.6l.1-.2.2-.2h.2l.6-.4.7-.4.7-.3.7-.2h1.5l.8.2h1.3l.4-.1.3.2.3.3h.2l.2.2c.4 0 .7.1 1 .3l.8.6v.5l.3.3h.5l.2.4.3.4.3.3.2.3.1.2.1.2.3.2.1.3c0 .2.2.3.3.5l.2.6.1.2.2.2.2.8c0 .2 0 .4.2.7Z" class="cls-4"/><path d="M73.8 78v-.4c-.2-.1-.2-.3-.2-.4V77l-.1-.3v-.4a30.4 30.4 0 0 1-1-1.5l-.2-.1c-.4 0-.9-.1-1.4-.4h-1.1l-.2.2h-.1c-.4-.1-.7 0-.8.4l-.2.3-.1.4-.2.3-.1.3-.3.5-.3.4-.1.7-.2.7.3.4.1.4c.2.3.3.6.2 1s.1.2.2.2l.6.2c.2 0 .4 0 .6.2H71l.6-.1.5-.5.6-.3.6-1c.3-.3.4-.6.5-1ZM97 81.2v3.5c-.1.2-.3.2-.5.2l-.8.1a3 3 0 0 0-.8.2h-1l-.4-.2c-.3.1-.5 0-.7-.3l-.3-.5v-1.8c0-.3 0-.7-.2-1V81l-.1-.2a8.2 8.2 0 0 0-.2-1.6l-.1-.4v-.3l-.5-.7v-.5l-.2-.6a2.3 2.3 0 0 0-.7-.4l-.4-.2-.1-.2-.2-.2h-1.2a9 9 0 0 0-.4.6 4 4 0 0 1-.2.2l-.2.2-.2.2-.2.8v1.7l.1.2v.9l-.1.8v.3l.1.3v.5l-.1.6v1.8l-.5.7-.1.1h-.2l-.1.2h-.8a1 1 0 0 0-.2.1s-.2 0-.3.2l-1-.2h-1l-.3-.1a1.6 1.6 0 0 1-.5-.8l-.1-.6v-1.9a12.1 12.1 0 0 0 .1-2.5v-3.7l.1-.4.1-.7.2-.8.3-.4.2-.5.3-.9.5-.7c.2-.4.4-.5.7-.5.1 0 .2-.2.1-.3l.1-.3.8-.5.8-.3H88c.2 0 .4 0 .6.2l.7.1.7.2h.3l.3-.1c.3 0 .5.2.6.4l.5.6h.9l.4.5.4.4.1.3.1.3.3.1.1.3.8.2.3.4c.1.2.3.3.5.3l.2.7a50.1 50.1 0 0 0 1.1 3.6V80c.1.1 0 .2 0 .2v1Zm15.4 2.6a12.2 12.2 0 0 0-.6 1.5l-.8.8c-.5.5-1 .8-1.7.9h-2l-.6-.3-.6-.3-.5-.1-.6-.1-.2-.2-.4-.2-.6-.8a2 2 0 0 1-.5-.9v-.6l-.3-.7v-2.5a5.5 5.5 0 0 0-.2-1v-1.9l.3-.9-.1-.6a9 9 0 0 0-.3-.8h-.3l-.5-.1-.4.1-.5.2h-.5l-.1-.1v-1.7a5.5 5.5 0 0 0-.2-1.2V72l.1-.3v-1.3l.5-.4h1.7c.2 0 .4-.2.6-.4h.4c.5 0 .9-.3 1.2-.7l.3-.6a3 3 0 0 1-.2-.6l-.2-.6.1-.2.1-.3v-.9l-.2-.2.1-.2V65l.2-.2v-.3h1.4l.2.1a25 25 0 0 1 2.5.3h.2l.3.3v.2l-.2.3v.7l-.1.5-.2.6v.2l.1.3v.4l-.2.6 1.1.6 1.4.4c.3.2.5.5.5.9v1.7l-.2.7v.6c-.3.2-.7.4-1.1.4h-.4l-1 .2-.9.3-.1.4v1h-.1l-.3.7-.2.5v2.7l.4.6h.3l.2.2c.2.3.5.5.8.5.3 0 .6 0 .9-.2l.3-.1.3-.1c.2 0 .3.1.4.3l.2.4.4.5.2.4.2.5.2.6Zm21.1.6.1.5-.1.5h-.2l-.2.2a1 1 0 0 1-.2 0l-.3.1c-.3 0-.6.3-.6.6l-.2.2h-.4l-.4.3-.5.1c-.2 0-.3.2-.5.3h-.2c-.1.1-.2 0-.4 0l-.1-.3v-.2h-.4c-.1 0-.2 0-.3-.2V86l-.2-.2h-.2l-.4-.7a6 6 0 0 0-.4-.6h-.4l-.1.2-.1.2-.1.2-.1.2a9.8 9.8 0 0 1-2 .7l-.5.3-.4.3-.5.2h-.8l-.5.2-.7-.2-.8-.2h-.2l-.2.1-.3-.1-.2-.1h-.3l-.4.1h-.4l-.4-.1-.3-.4-.2-.3-.2-.2a6 6 0 0 0-.4-1c-.4-.7-.6-1.5-.7-2.4l-.2-.2-.2-.2v-.6l-.2-.7v-1.1l.2-.9c.1-.3.2-.6.1-.9l.2-.3.2-.2c.2-.3.4-.6.4-.9l.4-.7.6-.5.8-.4.8-.3h.4a5 5 0 0 1 1.2-.1h.8l.8-.2h1.1l.4.3h.3l.5-.1v-.8l-.3-.6-.2-.5V72l-.1-.3c0-.1 0-.2-.2-.3l-1.2-.2h-.2l-.7.2a4.8 4.8 0 0 0-1.3.2l-.6.2c-.2 0-.4 0-.6-.2l-.1-.7v-.7l-.1-.6-.2-.8v-.4l-.2-.1V68l.6-.2h.5l.5-.5h1.4l1.2-.3.8.1h.8l.2.2.3.2h.4l.3-.2.5.3h.3l.3-.2c.2 0 .4.1.5.3l.5.5c.2 0 .3.2.4.4l.5.4.1.2.1.2.4.2.2.3.4.2c.1 0 .3.1.3.3l.2.4.3.3.2.8V73l.1.4.1.4v.5l.3.4-.2.4h-.2l-.2.2c-.3.1-.3.4-.1.6l.1.2.2.2v.6c0 .5-.2 1-.5 1.4 0 .3.2.6.4 1l.4 1 .3.2.3.2v.2l.1.8.3.7a18.9 18.9 0 0 0 .7 1.2l.3.4.2.4Zm-16 1.3Z" class="cls-4"/><path d="M125.3 79.5c-.1-.4-.3-.6-.5-.8a.7.7 0 0 1-.6-.4l-.1-.2h-1.4l-.4-.2c-.2 0-.4 0-.6.2l-.3.2-.2.3-.5.9.2.3v.5l.2.7c0 .2.1.5.3.7l.9.1a9.7 9.7 0 0 0 1 0l1-.5.4-.3.3-.8.3-.7Zm26.2-8.8-.3.7a2 2 0 0 0-.1.7 2 2 0 0 0-.6.5 8.4 8.4 0 0 0-.7 1.1c0 .2-.1.3-.3.5h-.1l-.1-.2-.2-.1-.2.1-.1.1-.2.2h-.1l-.2.1-.3-.3-.4-.2-.4-.2h-.4l-.2-.1-.1-.2h-.3l-.1.1v.3h-.4l-.1.1h-.8c-.2 0-.5 0-.7.2l-.6.3-.3.3-.4.7-.6.7v.2l-.2.3v.9l-.2.2v.5l.3.5.2.4.2.3.3.3.3.2.3.3.3.3h1.9l.6-.2.6-.1.5.1.5.1.5-.3.6-.2.5.4.3.5.2.4.2.5.3.4.2.3.2.4v1l-.6.4-.5.5-.1.3-.2.2-.3.1-.3.2h-.2l-.3.2-.5.3-.6-.2a1 1 0 0 1-.6.2l-.7.1h-.6l-.6-.3-.5.3-.8-.3a1 1 0 0 1-.3 0l-.3.1-.4-.1-.3-.1h-.5c-.2 0-.3-.2-.4-.3l-.3-.2a.7.7 0 0 0-.3-.2l-1.1-.8a15 15 0 0 0-1.6-1.6c0-.3-.2-.6-.4-1l-.5-.8v-.4c-.2-.1-.2-.3-.3-.4v-1.4c.1-.1 0-.3-.1-.4v-.3l.2-.1.2-.4-.2-.2-.1-.2.1-.3.1-.4v-.6l.3-.4c0-.2 0-.3-.2-.3-.1 0-.2 0-.3-.2l.3-1 .4-.7v-.9l.4-.8.1-.2.3-.2v-.4l.2-.3.4-.3.5-.4.2-.1h.2l.3-.2.3-.3h.2l.2.1.6-.3.4-.4 1-.2c.3 0 .6-.1.8-.3l.5.1h1.5l.7.1c.4 0 .7 0 1-.3v-.1h.2l.2.1c.6.5 1.3.8 2.1 1h.4l.3.1.8.8c.3.2.3.4.3.7v.3ZM167 83.2a12.2 12.2 0 0 0-.7 1.5l-.8.8a4 4 0 0 1-1.6 1h-1c-.4 0-.7 0-1-.2-.3 0-.5 0-.7-.2l-.6-.2-.5-.2h-.5l-.3-.3c-.1 0-.2 0-.3-.2l-.7-.8a2 2 0 0 1-.5-.9V83l-.3-.7v-3l-.1-.6v-1.8l.2-.9v-.6a9 9 0 0 0-.4-.8H156l-.5.2-.4.1-.2-.2v-1.8a5.5 5.5 0 0 0-.2-1.1v-.4l.1-.3v-.7l.1-.5c0-.2.2-.3.4-.4l.5-.1h1.2l.6-.4h.4c.5 0 1-.2 1.3-.7l.2-.6a3 3 0 0 1-.2-.6l-.2-.6.2-.2V65l-.1-.2v-.2l.1-.2v-.2l.1-.2h1.6l1.3.2h1.2l.2.1.1.1.3.2-.2.3v.2l-.1.3v.4l-.1.5-.1.6v1l-.1.5 1 .6 1.4.5c.3.1.5.4.5.8V72l-.1.7v.7c-.4.2-.7.3-1.2.3h-.4l-1 .2-.9.4-.1.4v.9h-.1l-.3.8-.2.4v2.5l.1.2c0 .3.1.5.3.6h.3l.2.2c.3.3.5.5.8.5l1-.1.2-.2.3-.1c.2 0 .3.2.4.3 0 .2.1.3.3.5l.3.4.3.4.1.5.2.6Z" class="cls-4"/></svg>