<svg xmlns="http://www.w3.org/2000/svg" id="_トップベース" width="220.8" height="177.4" data-name="トップベース" viewBox="0 0 165.6 133"><defs><clipPath id="clippath"><path d="m512.9-774.5 88.2-34.6 61.1-22 38.2 28.3v82.7l25.7 58.9-69.8 70.6L552-573.7l-70-34.6-34.6-33.8 65.5-132.4z" style="stroke-width:0;fill:none"/></clipPath><style>.cls-4{stroke-width:0;fill:#5b3282}</style></defs><path d="m150.1 96.3 1.3.7 1.2.7 1.2.8c.4.2.8.6 1.1 1l.6.6.7.6.7.6.6.6 1.2 1 1.2.8 1.2 1 1 1a3 3 0 0 1-1.2.2l-1.2-.1-1.2-.3-1.1-.2-1-.2-.8-.2-.9-.1h-.9l-2.7-.5-2.6-.5-2.7-.3c-.9 0-1.8.2-2.6.7-1 .5-1.9 1.2-2.7 1.9l-2.5 2.4-2.3 2.4-2.5 2.2-2.1 1.8-2 1.9c-.6.7-1.3 1.2-2 1.8a20.8 20.8 0 0 1-4 2.7 50.6 50.6 0 0 1-3.5 1.9l-1.8.9-1.4.7-1.4.7c-.5.2-.9.5-1.4.6l-1.5.5A125.4 125.4 0 0 1 100 129a48.2 48.2 0 0 1-6.8.2l-2.7-.2-2.7-.2-2.6-.2-4.1-.2-4.1-.2a125.6 125.6 0 0 1-13-1.8 88.9 88.9 0 0 1-18.1-6c-.7-.2-1.4-.5-2-.9l-2-1-1.3-.5-1.2-.5-1.3-.5A31.1 31.1 0 0 1 30 111a59.3 59.3 0 0 1-5.9-6.4l-2.4-2.7-2.4-2.7a55.7 55.7 0 0 1-4.4-5.7l-1.6-3-1.3-3-1.2-3.2-1.2-3.1a25.3 25.3 0 0 1-1.8-7.4l-.3-2.6-.4-3.6-.3-3.6a34 34 0 0 1 1.1-11.2l.6-2a29 29 0 0 0 .6-2.8v-1l.1-.9.2-.9a31.7 31.7 0 0 1 3-8.2l2.4-4.5a83 83 0 0 1 5.4-8.5 72.1 72.1 0 0 1 14-11.8l4-2a125.7 125.7 0 0 1 11.8-3.7 55 55 0 0 1 7-1.1l3-.3 3-.4 3-.4a36.3 36.3 0 0 1 5.2-.6h5.1a132 132 0 0 1 6.9.2l3.4.5 1.9.3 1.9.3 2 .2 1.8.2h.6a28.9 28.9 0 0 1 1.2.2l.6.1a100.8 100.8 0 0 1 18.3 6.3 83.4 83.4 0 0 1 6.7 3c1 .6 2 1.2 3 2 .8.8 1.7 1.4 2.5 2l2.7 2 2.5 2.2 2.3 2.3a70 70 0 0 1 15 31.9 137 137 0 0 1 1 5.5l.5 2.8.2 2.3.2 2.2.1 2.3.2 2.3.2 1.7.2 1.7.2 1.7v3.3a46 46 0 0 1-.4 4.9l-.4 1.5-.5 1.5-.4 1.5c-.2.8-.3 1.4-.1 1.5.2-.2.1 0 0 .4l-.2.6-.2.6c0 .4-.1.6 0 .4" style="fill:#fff;stroke-width:0"/><path d="m149.4 97.5 3.4 2.2c1 .7 2 1.7 2.8 2.5 1.6 1.5 4 2.6 5.2 4.3l1-2.2c-1.5.5-3.5-.3-5-.6-1.7-.3-3.5-.4-5.3-.8-3.3-.7-6.6-1.6-9.8.4-2.8 1.8-5 4.5-7.4 6.9l-3.6 3c-1.5 1.4-2.8 2.8-4.3 4-2.5 2.2-5.4 3.6-8.3 5-1.4.8-2.7 1.6-4.2 2.2-1.5.7-3.2 1-4.8 1.5-3.5.8-7 1.4-10.6 1.7s-7.1 0-10.8-.3c-7.2-.6-14.3-.6-21.4-2s-14.6-3.6-21.3-6.8c-3.3-1.6-6.7-2.8-9.6-4.8-2.9-2-5.4-4.6-7.8-7.2l-7.3-8.2a35 35 0 0 1-5.8-8.4c-1.6-3.4-3-7-4.1-10.6-1-3.3-1.3-6.8-1.7-10.2-.4-3.5-.7-7-.5-10.5.3-3.3 1.7-6.4 2.2-9.6.3-1.7.3-3.3.8-5s1.1-3.4 1.9-5a101 101 0 0 1 5.2-9.6 46.5 46.5 0 0 1 24.5-19.2c3.5-1.2 7-2.2 10.6-2.8 3.5-.6 7-.7 10.4-1.2l4.7-.7a41 41 0 0 1 5.3-.2c4 0 8-.1 11.8.6l5.2.8c1.6.2 3.2.1 4.7.4 7.3 1.5 14.2 4.5 21 7.2 1.7.7 3.4 1.5 5 2.5s3 2.3 4.4 3.4c2.9 2.2 5.7 4.2 8 7 4.5 5.7 8.1 12 10.7 18.8a85.9 85.9 0 0 1 5.1 21.7l.9 10.2c.4 3.1.6 6.8-.1 9.9l-1.1 3.8c-.3 1.3-.8 2.6 0 3.7.3.3 1 .5 1.5.3h.1l-1.9-1.5c0 .8-.6 1.4-.6 2.2 0 .9 1 1.8 2 1.4 1.8-.7 1-3.6-.8-3v.1l1.8 1.5c0-.7.6-1.4.6-2.1 0-1-1-1.9-1.9-1.5h-.1l1.5.4.3.7.2-.7.2-1.1.7-2.3c.5-1.6.7-3.1.8-4.7.2-3.4-.2-6.7-.6-10.1-.4-3.8-.5-7.5-1-11.3-.7-3.8-1.4-7.5-2.4-11.2a74.4 74.4 0 0 0-15.4-29c-2.5-2.7-5.7-4.7-8.5-7-3-2.5-6.3-4-9.9-5.5-3.5-1.3-7-2.8-10.6-4-3.4-1.2-7-2.5-10.5-2.9-1.7-.1-3.4-.2-5.2-.5l-6.1-1c-3.9-.3-7.8-.3-11.7-.3-3.6 0-7 1-10.7 1.3s-7 .7-10.4 1.3a68 68 0 0 0-20.5 8c-2.9 2-5.6 4.4-8.1 6.8a43.2 43.2 0 0 0-6.7 8.7A88.8 88.8 0 0 0 8.4 43c-.6 1.9-.6 3.7-1 5.6-.6 3.4-1.9 6.6-2.2 10-.3 3.7.2 7.3.5 11 .4 3.4.7 6.8 1.7 10 1 3.8 2.6 7.4 4.1 11 1.5 3.2 3.4 6 5.7 8.8s4.9 5.4 7.3 8.2A54.2 54.2 0 0 0 36.8 118c1.8.8 3.7 1.5 5.4 2.4a96.7 96.7 0 0 0 32.8 9.1l11.4.6c3.6.3 7.1.7 10.7.5 3.7-.2 7.4-.8 11-1.5s6.6-1.7 9.8-3.4c2.8-1.6 5.9-2.9 8.5-4.8 3-2 5.4-4.8 8.1-7s5-5.5 8-7.6a6 6 0 0 1 4.2-1.3c2 0 3.9.8 5.9 1 1.7.3 3.4.4 5.1.8 1.6.4 3.2.8 4.8.3.9-.2 1.5-1.4 1-2.2-1.6-2-3.9-3.2-5.7-4.9-1-.9-1.9-1.8-3-2.6-1.2-1-2.6-1.7-3.9-2.5-1.6-1.1-3.1 1.5-1.5 2.6Z" style="fill:#4a2571;stroke-width:0"/><path d="M53.8 68v.8l-.3.8a7.8 7.8 0 0 1 .2.6l-.1.7.1.8v.4l-.2.3v.4l-.2.4v1a7.7 7.7 0 0 1-.4 1.2l-.1.2-.7 1.2-.7 1.4v.3c-.2 0-.2.2-.3.3l-.2.3-.5.4a83.6 83.6 0 0 1-4.6 3l-.3.2h-.1l-1-1-.1-.9-.2-.5a4 4 0 0 0-.4-.6s0-.1 0-.1l.3-.2.3-.1.4-.4c.2 0 .3-.2.5-.3l.4-.3.4-.3.5-.3.4-.5.2-.2.2-.2v-1.2l.3-.4v-1.3l-.1-.2h-.2c0 .2-.2.2-.3.3h-.4l-.1.2h-.2l-.4.3h-1l-.2-.2-.2-.2H43.9l-.6-.1h-.5a24.4 24.4 0 0 1-.8-.6h-.8l-.5-.3-.1-.2-.1-.2-.2-.4-.1-.4-.1-.3-.1-.5a3 3 0 0 1-.2-.5l-.1-.4-.2-.4c0-.2 0-.4-.2-.6l-.2-1 .2-.9V66.1l.1-.2c.1 0 .2-.1.2-.3v-.3l-.1-.2v-.2l.4-.4.2-.6h.1l.2-.1.2-.2.1-.3.2-.4.5-.5.7-.4.6-.4.5-.5.4-.2.5-.3.3-.2c.2 0 .3-.1.3-.2h.5l.3-.1.3-.3h2.8l.4.3.5.2.1.2.1.1c.1.1.2.2.3 0l.2-.1v-.1c0-.1.1 0 .1 0 .2 0 .3 0 .4.2l.4.3.3.3.4.2.4.2.1.3.2.2.3.6.3.6.5 1-.1.5v.6l.1.4.2.4v.6l-.2.6.1.3.1.2Zm-4.7 0-.3-.5v-.6l-.1-.4v-.7l-.2-.3-.3-.1-.3-.1-.3-.3-.3-.1h-1.5l-.2.2-.4.2h-.4l-.3.2-.2.3-.3.2-.2.2-.2.2v.3l-.1.2-.2.1a15.4 15.4 0 0 0 .8 2V69.2h.5l.3-.1h.2l.3.2.2.2.5.2h.4l.4-.4.3-.3h.8l.2-.2.3-.3.4-.2.2-.4ZM71.3 66.9v.7l-.2.3V68.5l-.1.5v.6l-.3.5v.4l-.2.1-.2.2-.2.5-.2.5v.4l-.3.2-.4.3-.2.2-.3.1H68.4c-.4 0-.5.2-.5.5l-.8.5-.7.5c-.4.3-.8.5-1.4.6l-.6.2-.6.2H63.5l-.8-.1h-1l-.5-.1-.5-.3-.5-.3a.9.9 0 0 1-.4-.2l-.3-.4V74l-.2-.1-.1-.1-.3-.2-.9-.8c-.3-.3-.5-.6-.6-1L57 71l-.1-.3-.2-.2.1-.3-.1-.2v-.2l-.1-.2V68l.1-.5.1-.4a3 3 0 0 1 .2-.8l.2-.3.1-.4.2-.4V64.9l.2-.5v-.5l.3-.3.2-.2.1-.3.2-.3c0-.2.2-.3.3-.4l.2-.3.2-.2c0-.1.1-.3 0-.4v-.2l.2-.2.1-.1.2-.1a14.4 14.4 0 0 1 1.8-.9c.2 0 .4 0 .7-.2h1.3c.2.2.5.2.7.2h1.5l.3.2.2.2.2.1.2.1c.4 0 .6.1.9.3l.7.5v.4c0 .1 0 .2.2.3h.2l.3.1.2.3.2.4.3.2.2.3v.2l.2.2.2.2v.3l.3.4.2.5.1.2.2.2.1.7c0 .2 0 .4.2.6ZM66.5 68v-.4c-.1 0-.2-.2-.1-.3l-.1-.2v-.6l-.5-.7a8.6 8.6 0 0 0-.6-.8l-1.2-.3a1.3 1.3 0 0 0-1 0H62.7c-.4 0-.6.1-.7.4l-.2.3-.1.3-.1.3-.2.3-.2.4-.3.3-.1.7-.2.6.2.4.2.3c.1.3.2.6.1.8v.2l.1.1a9.8 9.8 0 0 1 1.2.3l.4.1H64l.6-.1.4-.4.6-.3.5-.9.5-.8ZM88.8 67v.7l-.2.3V68.6l-.1.5v.6l-.3.5v.4l-.2.1-.2.2-.2.5-.2.5v.4l-.3.2a1 1 0 0 0-.4.3l-.2.2-.3.1H85.9c-.4 0-.5.2-.5.5l-.8.5-.7.5c-.4.3-.8.5-1.4.6l-.6.2-.6.2H81l-.8-.1h-1l-.5-.1-.5-.3-.5-.3a.9.9 0 0 1-.4-.2l-.3-.4-.2-.2-.2-.1-.2-.2-.9-.8c-.3-.3-.5-.6-.6-1l-.4-.8-.1-.3-.2-.2.1-.3-.1-.2V70l-.1-.2V68l.1-.4.1-.5.1-.4.1-.4.2-.3.1-.4.2-.4V65l.2-.5V64l.3-.3.2-.2.1-.3.2-.3c0-.2.2-.3.3-.4l.2-.3.2-.2c0-.1.1-.3 0-.4v-.2l.2-.2.1-.1.2-.1a14.4 14.4 0 0 1 1.8-.9c.2 0 .4 0 .7-.2H81c.2.2.5.2.7.2h1.5a8.3 8.3 0 0 0 .7.5l.2.1c.4 0 .6.1.9.3l.7.6V61.9c0 .2 0 .3.2.3h.3l.2.1.2.3.2.4.3.2.2.3v.2l.2.2.2.2.1.3.2.4.2.5.1.2.2.3.1.6.2.6ZM84 68.2v-.5c-.1 0-.2-.2-.1-.3l-.1-.2v-.6l-.5-.7a8.6 8.6 0 0 0-.6-.8l-1.2-.3a1.3 1.3 0 0 0-1 0H80.3c-.4 0-.6.1-.7.5l-.2.2-.1.3-.1.3-.2.3-.2.4-.3.3-.1.7-.2.6a14.5 14.5 0 0 0 .4.7c.1.3.2.6.1.8v.2l.1.1.6.1.6.2.4.1h1.1l.6-.1.4-.4.6-.3.5-.9.5-.8ZM105.5 61.3l-.2 1.2-.1 1.2v2.4l-.1 1-.1 1v.7l-.2.9-.1.8a3 3 0 0 1-.2 1v.5l-.2.6-.1.4-.1.5-.3.4-.2.4-.5.5-.7.5-.6.6c-.3.2-.5.3-.8.3h-.2c-.4.1-.8.2-1 .5h-.2a2 2 0 0 1-1 0l-.7-.3h-1.1a5 5 0 0 1-1.7-.9h-.3l-.3-.2h-.4l-.4-.2a.7.7 0 0 1-.2-.3l-.2-.3-.3-.6-.3-.6-.3-.6-.3-.5V72h-.2l-.2-.2-.2-.3.1-.6v-.7l-.1-1a19.5 19.5 0 0 1 .2-1.5l.2-1c.3-.3.4-.6.6-1l.5-1h.2l.3-.2v-.1l.2-.2.2-.1.3-.1.2-.2v-.2l.2-.1a10.3 10.3 0 0 1 1.9-.4l.3-.1c.3 0 .5-.1.8 0h1.6c0 .1.2.1.2 0l.6.3h.5c.2 0 .4-.1.4-.3V63h-.1v-1a4.1 4.1 0 0 1 0-1.1V58l.2-.7v-1l.1-.6v-.6c.2-.2.3-.3.5-.3l.4-.2h1l.9-.1.4.1.4.1c.3.2.4.4.4.7v1l.1.3v.4a5.2 5.2 0 0 1 0 .7v2.7l.2.7Zm-5 8.3a7 7 0 0 1-.2-1l-.2-.4-.3-.4c-.2 0-.4-.2-.5-.3l-.3-.1h-.3l-.3-.2h-.2l-.5.1-.4.2c-.3.2-.6.5-.7.9v.5l-.2.2-.2.3v.6c0 .3.2.6.3.8.1.3.3.5.6.7h.2l.2.2c.1.2.2.2.4.2h1l1-.3.3-.3.1-.3.2-.2V69.7ZM118.6 62.8c0 .3-.2.5-.4.7l-.2.3-.3.2-.2.2v.3c-.2.2-.4.2-.6 0a.7.7 0 0 1-.3-.2h-.5a.4.4 0 0 1-.2-.3l-.3-.3-1-.3a2 2 0 0 0-1 0l-.4.7-.3.6.1.5.2.4c0 .2.2.3.4.4h.5l.3.3.2.1.4.4c.1.2.3.2.5.3a11 11 0 0 0 1 .5l.3.1.3.3.2.4.3.5a42.5 42.5 0 0 1 .3 2.1v.6l.1.4v.4l-.2.4-.2.5c0 .3-.2.7-.4 1l-.3.3-.3.3-.2.2v.1l-.6.5-.4.6h-.5l-.5.2a2 2 0 0 0-.4 0l-.3.2h-.8l-.7-.1-.7.1h-.5c-.1-.2-.3-.3-.5-.3l-.4-.1-.7-.7-.7-.6v-1.4c0-.3.2-.6.4-.9l.5-.9.3.1.4.1.4.3c.1 0 .3 0 .4.2h.5l.2.1.3.1h.7l.3-.3.3-.3V70.7l-.1-.2-.5-.3-.2-.4-.2-.3-.8-.2-.3-.2a2.5 2.5 0 0 0-.4-.4h-.2l-.2-.1-.3-.1a2 2 0 0 0-.6-.3l-.2-.5a1 1 0 0 0-.2-.4l-.3-.4-.3-.4-.2-.7c0-.3 0-.5-.2-.8v-1l.2-.6c0-.2 0-.4.2-.6l.5-1.1c.2-.4.5-.7.9-1a32.4 32.4 0 0 0 1.3-1l.3-.1a15.4 15.4 0 0 0 1-.3h.9c.3-.2.6-.2 1-.1.2 0 .5 0 .8.2h.4l.5.4.5.4.3.2.4.2.6.6.4.6.1.5.1.5Z" class="cls-4"/></svg>