<svg xmlns="http://www.w3.org/2000/svg" id="_トップベース" width="323.3" height="245.8" data-name="トップベース" viewBox="0 0 242.5 184.3"><defs><clipPath id="clippath"><path d="m-2-806.9 88.3-34.6 61-22.1 38.3 28.3v82.8l25.7 58.8-69.9 70.6-104.2 16.9-70.1-34.5-34.5-33.9L-2-806.9z" style="stroke-width:0;fill:none"/></clipPath><style>.cls-3{stroke-width:0;fill:#4e2279}</style></defs><path d="M226.5 131.4c2.4 1.9 4.6 3.7 7.3 5.4 1 .5 4.1 2.4 3.9 3.5-1.6.4-3.8.2-5.5.2l-6.6.2c-1.8 0-3.8.2-5.6.1-1 0-1.5-.5-2.5-.6-1.2-.1-2 .5-3 .7-1.9.3-2.7.1-4 1.6-.7.8-.8 1.7-1.4 2.5-.6.7-1.2 1.3-1.7 2.1l-.8 2c-.4 1-1 1.5-1.8 2.4-.9 1-1.6 2-2.2 3.1-.6 1.3-.7 1.4-2.1 2.2s-1.9 1.8-2.9 2.9c-1 1-2.1 1.5-3.2 2.4-2.1 1.9-4 3.3-6.7 4.5s-5.4 2.2-7.6 3.8c-2.5 1.8-6.2 2.7-9.4 3.6-8 2.4-16.2 4-24.5 5.4-7.8 1.2-15.8 1-23.7 1.3-9 .2-17.6 0-26.4-1.5-7.4-1.3-14.7-2.6-21.8-4.9-3.6-1.1-7.2-2.1-10.7-3.3-1.4-.4-3-1-4.3-1.6-2-.8-3-2-5.2-2.7-4.3-1.5-7.1-4.3-10.8-6.5l-8.5-5.3c-2.1-1.4-3.5-3-5.2-4.8-1.5-1.7-3.5-2.7-5.3-4.2-2.4-2-4.5-4.5-6.8-6.7-2.1-2-3.6-4.5-4.8-6.9-1.3-2.4-2.5-4.9-3.5-7.5-1-2.4-2.2-4.7-2.9-7.2-.5-2-.3-4.3-.8-6.3-.5-1.8-.8-3.3-.9-5.1 0-3.1 0-6 .4-9 .2-1 0-2 0-3 .2-1.3.7-2.5.7-3.9 0-1.3.7-2.6.7-4s.2-2.3.6-3.7c1-4 2.2-8 2.8-12 .2-1.5.9-2.9 1.3-4.3.7-2.1 1-4.2 1.7-6.3 1-2.7 1.9-4.9 3.5-7.3 1.5-2.1 1.9-4.2 3.2-6.3A72.6 72.6 0 0 1 35 29.2c1.8-1.4 3.9-3.5 6-4.5 2.4-1.2 4.6-3.1 7.2-4 5.7-2 11-5 16.9-6.8 5-1.5 10-3 15-4.1 3-.7 6-1.6 9.2-2.1 2-.3 4.2-.5 6.2-.9 1.3-.2 2.3-.7 3.7-.7 2.2 0 4.4-.5 6.6-.9 2.5-.4 4.8-.4 7.3-.6 1.2-.1 2-.5 3-.8 1.5-.2 3.2 0 4.7 0l6.8-.2c2.3 0 4.2 0 6.5.4 3 .5 5.5 0 8.5.7 3.3.8 6.6 1.3 9.8 2.3 3 .9 5.9 2 9 2.8 2.3.7 6 2 7.8 3.4 1.1.8 1.5 1.3 3 1.8l3 1.1c4.8 2.3 8.6 6.2 12.5 9.1 1 .7 1.6 1.7 2.6 2.3 1.3.7 1.5.9 2.5 2 1.6 1.8 4.1 3.1 5.8 5 1.5 1.7 2.6 3.5 4.2 5 .4.6 1 1 1.5 1.4 1 .9 1.2 2.1 2 3 1.2 1.4 2.6 2.5 3.5 4 1 1.5 1.6 3 2.7 4.6 1.9 2.8 3 5.7 4.5 8.8 1.7 3.8 3.9 8 3.8 12 0 1.3.5 1.7.8 2.8.2.7-.1 1.5 0 2.2.5 1.8 1.5 3.6 1.7 5.5.2 1.5.8 2.8.8 4.3 0 1 .3 1.4.7 2.4.3 1-.1 2.1.2 3.2.2.9.7 1.4.8 2.4v2.2l.1 5c.1 3.1.7 6.7-.1 9.8-.2.9-.3 1.4-.3 2.3 0 1.2-.5 1.9-.7 3-.2.7 0 1.5 0 2.2 0 1-.5 1.7-.7 2.8-.6 3.2.5 6.9 3.2 9.2" style="fill:#fff;stroke-width:0"/><path d="M225.4 132.4c2.4 1.9 4.7 3.8 7.2 5.4l2.1 1.3c.4.3.8.5 1 .8.3.2.5.6.5.4l1-1.5c-2.3.6-5 .2-7.4.2l-8.6.3c-1.2 0-2.2-.4-3.3-.6-1.3-.1-2.4.4-3.6.7-2 .4-3.7.5-5.1 2.3-.7 1-1 2-1.8 3s-1.4 1.8-1.8 3c-1 2.2-3 3.7-4 5.8-.4.6-.6 1.2-1.2 1.6-1 .7-1.9 1.2-2.7 2.1s-1.4 1.8-2.4 2.5l-2.9 2.2a28 28 0 0 1-6.2 3.8c-2.4 1-4.8 2-7 3.5a23 23 0 0 1-6.7 2.8l-8.2 2.2c-5.7 1.4-11.4 2.6-17 3.5-5.9 1-11.7 1.2-17.5 1.4-11.8.2-23.4.4-35-1.7-5.7-1-11.4-2-17-3.6l-8.2-2.5c-2.8-.8-5.6-1.6-8.2-2.7-2.3-.8-4.2-2.3-6.5-3.2-2.3-.9-4.4-2.1-6.5-3.6-2.1-1.5-4.3-3-6.6-4.3-2.4-1.4-5-2.8-7.2-4.6-2-1.6-3.5-3.7-5.5-5.3-2-1.6-4.1-3-6-4.8l-5.4-5.6c-1.8-2-3-4.2-4.1-6.5a124 124 0 0 1-3.5-7.5c-1-2.5-2.3-5-2.6-7.8-.1-1.4-.2-2.7-.5-4s-.7-2.8-.8-4.1c-.3-2.8-.1-5.7.1-8.4l.2-3.9c0-1.3.6-2.6.7-4 .1-1.2.4-2.3.6-3.5.2-1.3.2-2.7.5-4 .6-2.8 1.5-5.6 2.1-8.3l.8-4c.2-1.5.8-2.7 1.2-4.1 1-2.6 1.4-5.3 2.3-7.9.8-2.4 2.2-4.4 3.4-6.6 1.4-2.3 2.2-4.7 3.7-7a93.4 93.4 0 0 1 17-17.8c2-1.5 4.3-2.6 6.4-4 2.2-1.3 4.7-2.1 7-3.1 5.2-2.2 10.2-4.4 15.5-6 5.6-1.7 11.3-3.2 17-4.5 2.8-.7 5.5-1.1 8.3-1.5l3.6-.6c1.4-.4 2.7-.5 4.1-.6 3-.3 5.7-1 8.6-1.2 1.3 0 2.7-.1 4-.3 1.2-.1 2.4-.6 3.6-.8h8.2c2.7 0 5.4-.3 8 .1 2.7.4 5.5.2 8 .6 2.9.5 5.8 1.2 8.5 1.9s5.6 1.6 8.3 2.5c2.3.8 4.6 1.4 6.9 2.3 1 .4 2 .8 2.8 1.4s1.7 1.3 2.7 1.8 2.1.9 3.2 1.2c1.2.5 2.4 1.1 3.5 1.9 4.2 2.6 7.8 6 11.5 9.2.8.6 1.7 1 2.4 1.6.9.8 1.6 1.7 2.5 2.4 2 1.6 3.8 3.1 5.5 5.2l2.4 3c1 1 2 1.6 2.6 2.7.5 1 1 1.8 1.8 2.6.9 1 1.9 1.8 2.6 2.8.7 1 1.2 2.2 1.8 3.3l2.4 3.8c1.2 2.2 2.2 4.6 3.3 7 1.1 2.5 2.4 5 3 7.7.4 1.3.4 2.5.5 3.7.1 1.3.8 2.2.7 3.5s.5 2.4.9 3.6c.5 1.2.7 2.3 1 3.6.1 1.2.6 2.3.6 3.5 0 .5 0 1 .2 1.5.2.6.6 1.2.6 1.8.2 1.4 0 2.4.5 3.7.5 1.2.4 2.4.5 3.7 0 2.8.1 5.7.3 8.5v3.7c0 1.2-.6 2.5-.7 3.8 0 1.2-.5 2-.7 3.2v2.1c0 .7 0 1.2-.3 1.8-1.4 4.1 0 9 3.3 11.7 1.4 1.3 3.6-.8 2-2a8.3 8.3 0 0 1-2.8-6.1c0-1.1.2-2 .5-3.1l.3-1.4v-2.2c0-1.2.7-2.2.7-3.4 0-1.3.5-2.6.6-4 .3-2.5 0-5.2-.1-7.8l-.1-4.3c0-1.4.1-3-.3-4.3-.1-.5-.4-1-.6-1.4-.2-.7 0-1.4 0-2.2-.1-1.2-.7-2.2-.9-3.3 0-1.2-.3-2.3-.6-3.5-.3-1.4-.5-2.7-1-4-.4-1.3-.8-2.3-.8-3.7 0-1.2-.6-2-.8-3.2l-.4-3.9-1.5-4.3c-1-2.5-2.2-4.9-3.3-7.3a60.7 60.7 0 0 0-4-7.2c-1.3-2.2-2.3-4.5-4.1-6.3-.9-.9-1.6-1.7-2.2-2.7-.7-1.2-1.4-2-2.5-3-2-1.6-3.2-4-5-5.8-1.8-1.9-4-3.2-5.8-5.1a9.9 9.9 0 0 0-2.2-1.7l-2.8-2.3c-4-3.2-7.7-7-12.4-9.2-1-.5-2.1-.8-3.2-1.2-1.2-.4-2-1-3-1.8-1.8-1.3-4-2.1-6.1-2.8l-7.5-2.4c-2.8-1-5.6-1.8-8.5-2.4-2.8-.5-5.6-1.4-8.5-1.5l-4-.1c-1.3-.2-2.7-.5-4.1-.5-2.9-.2-5.7 0-8.6 0-2.6.1-5.4-.3-8 .5-2.5.7-5.3.5-8 .9l-4.1.7-4.5.4-3.7.8c-1.4.3-2.8.4-4.3.6a272.2 272.2 0 0 0-25.7 6.5C59 14.3 54 16.9 48.7 18.9c-2.5.9-4.6 2.1-6.8 3.5l-3.2 1.9-3.1 2.4A100.2 100.2 0 0 0 18.7 45c-1.5 2.3-2.3 5-3.8 7.2-1.4 2.1-2.4 4.4-3.3 6.7-.9 2.7-1.3 5.5-2.3 8.2-1 2.7-1.3 5.5-2 8.3-.7 2.9-1.7 5.7-2.1 8.6l-1 7.4c-.3 1.3-.7 2.5-.7 3.8l-.3 4.5c-.2 2.7-.3 5.6 0 8.3l.8 3.8c.4 1.5.4 3 .6 4.6.3 2.7 1.5 5.1 2.6 7.6 1.1 2.7 2.2 5.4 3.5 8 1.2 2.2 2.4 4.5 4 6.4 1.7 2.2 3.8 4.1 5.7 6 1.8 1.9 3.8 3.4 5.9 5 2.1 1.5 3.7 3.6 5.7 5.4 4.2 3.6 9.4 5.8 14 9 1.9 1.5 3.9 2.9 6.1 3.9 1.2.5 2.3.8 3.4 1.5 1.1.6 2.2 1.3 3.4 1.8 2.6 1.1 5.3 2 8 2.8l8.8 2.7a158.4 158.4 0 0 0 34.7 5.8c5.9.2 12 0 17.9 0a132.4 132.4 0 0 0 35.3-4.7 223 223 0 0 0 8.5-2.3c2.4-.7 4.8-1.3 7-2.5 1.1-.5 2-1.2 3.1-1.8 1.2-.7 2.4-1.3 3.7-1.8 2.4-1 4.6-2.1 6.7-3.6l2.9-2.3c1-.7 2.1-1.3 3-2.3.8-.7 1.3-1.6 2-2.3.9-.6 1.8-1 2.5-1.8.7-.7 1-1.7 1.5-2.5.7-1.1 1.6-2 2.5-3 .7-.8 1-1.8 1.4-2.8.5-1.2 1.5-2 2.2-3 .5-1 .8-2.2 1.8-2.7.8-.4 1.9-.3 2.7-.5 1.1-.3 1.9-.7 3-.4 1.4.5 2.8.5 4.2.5 2.8-.2 5.7-.3 8.5-.3 2.4 0 4.9.2 7.3-.3.7-.2 1-.8 1-1.5.3-2-2.4-3.5-3.9-4.4a78 78 0 0 1-7.7-5.6c-1.5-1.2-3.6 1-2 2.2Z" class="cls-3"/><path d="M36.3 86.9v.5a3.9 3.9 0 0 1-.2.8l-.1.4-.3.4-.3.3-.2.1-.1.2-.8.3c-.3.2-.6.2-.8.2h-1l-.2-.2-.2-.1a1 1 0 0 0-.3 0h-.4l-.3-.2-.4-.2-.2-.6V87c-.1-.1-.1-.3 0-.4V85.9l.1-.3V85l.1-.1c.2 0 .4-.2.5-.3l.4-.3.5-.3.6-.3H34c.4 0 .6.1.8.4l.2.2.3.1c.3.2.4.5.5.8l.2.4v.4a4.2 4.2 0 0 1 .3.8Zm0 7.7-.1.5a9.2 9.2 0 0 0 0 1v.5l-.2.3.2.4v1.4l-.1.5-.2.6v3c0 .4-.2.8-.4 1.2l.1.6.2.5v.2l-.5.4H35a5 5 0 0 0-.8.1h-.8l-.3-.2-.3-.2h-.3a2 2 0 0 1-.4 0l-.5-.6-.3-.1-.3-.1c-.1-.1-.2-.3-.1-.5l.1-.7v-.8l-.2-.5V99a25.8 25.8 0 0 0 0-1l.1-.6v-3.5l.5-.2.4-.1h.6l.6-.2.2.1.3.1h.9l.3.3v.1l.3.2.4-.1.4-.2s.2 0 .2.2l.1.7ZM52.8 99.5v3.2c0 .2-.2.2-.4.2l-.7.1c-.2 0-.5 0-.7.2H50a2 2 0 0 1-.3-.2c-.3.1-.5 0-.7-.3l-.3-.4v-1.6c0-.3 0-.7-.2-1l-.1-.2v-.2a6.6 6.6 0 0 0-.3-1.8v-.3a1 1 0 0 0-.5-.6v-.5l-.2-.5-.2-.2-.3-.1-.4-.2-.2-.2-.2-.2h-1l-.3.6-.3.2-.2.1v.2l-.3.8V98l.1.1v1.5a9.4 9.4 0 0 0 0 .6V102c-.1 0-.1.1 0 .2v.7l-.4.7h-.1l-.2.1-.1.1h-.7l-.2.1-.3.2-.9-.2-.8.1-.4-.1-.2-.3-.2-.5-.1-.5V95l.2-.7.1-.7.3-.4.2-.4c0-.3.1-.6.3-.8l.4-.7c.1-.4.3-.5.6-.4.1-.1.2-.2.1-.3l.1-.3.7-.5c.3 0 .5-.2.7-.3l.4.1h.9l.5.1a38.3 38.3 0 0 1 1.3.3h.3l.2-.1c.3 0 .4.2.6.3l.5.5c0 .1.2.2.3.1h.5l.3.4.4.4.1.2.1.3.3.1v.3l.8.1c0 .2.2.3.3.4 0 .2.2.2.4.2a13.1 13.1 0 0 0 .3 1.2c0 .3.1.6.3.8l.2.6.1.6.2.4.2.4v2.3ZM69.1 94.8v.3l-.1.4v.4c0 .3-.1.5-.3.6l-.5.1-.6.3-.3.4-.4.1-.3.1c-.3 0-.6 0-.8.2h-.3l-.3.1v.2l-.2.2h-.3l-.2.1h-.8l-.3.1v.1l-.2.2v.3l.1.3v.2l.1.3c.2.4.2.8 0 1.3l.2.4v2.4s0 .2-.2.3h-.6l-.6.2h-.6l-.8.2h-.5l-.2.1-.3.2h-.3l-.1-.3-.1-.2v-1.9l-.1-.6-.1-.3-.2-.5v-1.9c0-.2-.1-.3-.2-.3l-.1-.2H58a1 1 0 0 1-.4.2h-.8l-.8-.1-.1-.1-.1-1V97l-.1-.5v-1.1l-.2-.7.2-.1c.2 0 .5 0 .8-.2a19.5 19.5 0 0 1 1-.5l.6-.5.8-.3a5.1 5.1 0 0 0 .3-3.2v-.2l.1-.1c.3-.4.4-.8.4-1.2V88l.1-.5v-.4l.1-.4.2-.4.4-.5v-.6l.2-.3s0-.2.2-.3l.1-.1.2-.2.3-.2.1-.2.4-.3.4-.4h.8l.1-.1.2-.1s.2 0 .2-.2h1l.2-.1.3-.1a2 2 0 0 1 1.4-.1h.6l.2.1.2.2.3.1.2.2v.2l.1.2a22.7 22.7 0 0 0 .5 1.6v.4l-.2.3v.5a1 1 0 0 0-.3.5v.6h-.4c-.3-.2-.6-.2-1-.1h-.4a1.3 1.3 0 0 0-1.4.5l-.1.1v.8l-.3.2-.2.2-.2.3c-.1.1 0 .2.1.3 0 0 .1 0 0 .2v.5l-.1.3v.5c-.2 0-.2.1-.3.2v.3c-.2.4 0 .8.2 1h.6a3.2 3.2 0 0 0 .7 0l.2-.2.3-.1a5 5 0 0 1 2 0l.2.2.3.3.4.3v1c0 .2.1.4.3.5ZM86.7 94.5c.1.3.1.6 0 .8V96.2c-.2.1-.2.3-.2.5l.1.6-.3.5v.4l-.2.2-.2.2-.2.5-.2.5v.4l-.3.2-.3.3-.3.2s-.2 0-.3.2H84c-.3 0-.5.2-.5.5l-.7.5-.7.5c-.4.3-.9.5-1.5.7l-.6.1-.5.2h-2.7l-.5-.4a4 4 0 0 0-.6-.3 1 1 0 0 1-.4-.2 2 2 0 0 1-.2-.3l-.1-.2h-.2l-.2-.2-.2-.1-1-.8-.6-1a4 4 0 0 0-.4-.8l-.2-.3-.1-.2V98l-.1-.2V95a3.4 3.4 0 0 1 .3-.8l.1-.3a6.5 6.5 0 0 1 .3-.9V93l.3-.6v-.5l.2-.2.2-.3a3 3 0 0 1 .3-.6c0-.2.1-.3.3-.5l.2-.3.2-.1V88.9h.3l.1-.2.6-.3.6-.3.6-.3.7-.2h1.3c.3.1.5.2.8.1H80.8c.2 0 .3.1.3.2.1 0 .2 0 .3.2h.2l.2.2c.3 0 .6 0 .9.2l.7.6v.4l.3.3h.5l.2.4.2.3.3.2.2.3.1.2.1.2.2.2.2.3c0 .1 0 .3.2.4l.2.5v.2l.3.3.1.6.2.6ZM82.1 96l-.1-.5-.1-.4-.1-.1v-.6l-.5-.7a8.7 8.7 0 0 0-.5-.7l-.1-.1-1.3-.3h-1l-.2.1h-.1c-.4 0-.6.1-.7.5l-.2.3v.3l-.2.3-.2.3-.2.3-.2.4c0 .2 0 .5-.2.7l-.1.6a10.8 10.8 0 0 1 .4.7l.2.9v.2a60.6 60.6 0 0 1 2.2.3h.6l.5-.1.5-.4.5-.3.6-.9c.2-.2.4-.5.4-.8ZM101.4 89.2l-.1.8a1 1 0 0 0-.2.4v.5l-.2.2-.1.2-.3.4-.2.3v.3l-.1.3-.1.1v.1h-.4a2 2 0 0 0-1.4 0l-.3.1h-.4l-.1.1-.7.5-.6.5-.3.9v.9l-.1.1v.2l-.2.2v.2l-.2.4-.2.4v1.4l-.1.5-.1.7V103l-.1.2-.6.6-.7.1a9.7 9.7 0 0 0-1.2-.1h-.3l-.4-.2h-.2l-.2.1a2 2 0 0 1-.8-.5v-1.2l-.1-.2-.1-.4v-.5L90 100l.1-.2.1-.3V96.8l-.1-.3H90v-.1l-.1-.4-.1-.4a15.7 15.7 0 0 0-.2-.9V91.3l.1-.3V90.1c0-.2 0-.4.2-.5l-.1-.4V89l.2-.4v-.3l.1-.3.4-.2h1.4l.2-.1.2-.1h.9l.3.6v1l.5.7h.4l.2-.2.2-.2.4-.4.3-.3.7-.3.8-.4h.9l.1-.1c.3.1.6.2.8 0 .3 0 .7 0 1 .2l.6.3.6.3.2.2.2.3ZM127 96.5a9.7 9.7 0 0 0 0 1.3l-.1.5-.1.5V100.2l-.2.6v.5l-.2.3v.3l-.3.2c-.2.2-.3.2-.5.2l-.3-.1h-.3a2 2 0 0 0-.6-.2h-.8l-.2.1h-.3a1 1 0 0 1-.4-.8l-.1-.7-.2-.7v-1.5l.1-.4V96.2a2.6 2.6 0 0 0-.5-1h-.2l-.3-.2-.3-.2a2 2 0 0 1-.4.2h-.2l-.2-.1h-.2c0 .3-.3.4-.4.6l-.3.1-.3.3h-.2l-.3.2v.2l-.2.2v.2l-.1.1a3 3 0 0 0-.2 1v.4l-.2.3V101.1l-.2.5v.4l-.8-.1h-2.4c-.2 0-.4-.1-.5-.3l-.3-.8a4 4 0 0 1 0-.9V95.8l-.1-.2v-.7l-.2-.3-.2-.2h-.5l-.3-.2-.4-.2h-.3l-.2-.2a5 5 0 0 0-.6.3h-.2l-.3.1-.3.3-.4.4-.1.3-.2.3c0 .4-.2.7-.3 1V99.8l-.2 1.1-.1.5-.2.4a3 3 0 0 1-.3.5 1 1 0 0 1-.5.2h-.6l-.6.2-.3.1h-1a5 5 0 0 0-.4-.5l-.3-.4v-1.3l-.1-.8-.2-.7.1-.4.1-.5.1-.5V96.4l.1-.6v-.3a3.2 3.2 0 0 1 0-1.6l.1-.2.3-.3c.1 0 .2 0 .3-.2v-1.6l.1-.4.5-.6.4-.5v-.3l.2-.2h.2v-.1l1.2-.4 1.1-.4a3 3 0 0 1 1.2-.3H110.7c.3-.2.6-.2 1-.3h1.6l.4.2.5.3.5.1.3.1.2.2.2.3.3.3.1.3.1.3.3.3h.4l.3-.3.3-.3h.3l.8-.6.2-.2v-.3h.4l.3-.1.5-.2.4-.3h1.2c.3.2.6.2 1 .2a6.7 6.7 0 0 1 1 .1l.8.7v.1h.1c.2.7.6 1 1 1.3l.1.2v.2c.2 0 .3.2.5.1.3 0 .4.2.4.4l.1.8c0 .3.2.5.3.8l.2.8V95l.1.3v1.2ZM146.2 100.8c0 .1.1.3 0 .4v.4l-.2.1-.1.1h-.3l-.2.1c-.3.1-.5.3-.6.6l-.1.2h-.4l-.4.3h-.4a1 1 0 0 0-.5.3s-.1 0-.2 0h-.3l-.1-.2v-.2h-.4s-.2 0-.2-.2v-.5h-.2l-.2-.2-.4-.5-.3-.6h-.4l-.1.2-.1.2-.1.2-.1.1a10.8 10.8 0 0 1-1.7.7c-.2 0-.3.2-.5.3l-.4.3h-.4l-.4.2c-.1 0-.2-.1-.4 0H135l-.7-.2H133.7l-.2-.2h-.3l-.3.2-.4-.1h-.4c0-.2-.2-.3-.2-.3l-.2-.4h-.1l-.1-.2-.4-.8c-.3-.6-.5-1.4-.7-2.2l-.1-.1-.2-.2V98l-.2-.6.1-.4-.1-.6.2-.8c.1-.3.1-.5 0-.8l.3-.3.1-.2c.2-.2.4-.5.4-.8 0-.2.2-.4.4-.6l.5-.5.7-.4c.3 0 .5-.2.7-.3h.4a4 4 0 0 1 1 0h.4l.4-.1.7-.2.4.1h.5l.4.1.3.1.5-.1-.1-.8a5 5 0 0 0-.3-.5l-.1-.4v-.4l-.1-.3-.2-.2-1-.2h-.3l-.6.1a3.7 3.7 0 0 0-1.2.3l-.5.1h-.6v-1.4a32.1 32.1 0 0 0-.3-1.3v-.2l-.1-.1-.2-.1V85.9l.6-.1.5-.1.4-.4h1.3a6 6 0 0 0 1-.3l.8.1h.7l.2.2.3.2.3-.1.3-.1.4.2h.3l.3-.2c.2 0 .3.2.5.3l.4.4.4.4.4.3.1.2.1.2.3.2.3.2.3.2c.2 0 .3.2.3.3l.2.3c0 .1 0 .2.2.3l.2.7v1l.2.4v.9l.3.3c0 .2 0 .3-.2.4h-.2l-.1.2c-.3.2-.3.4-.1.6v.1c.2 0 .2.1.2.2v.6c0 .4-.1.8-.4 1.2 0 .3.2.6.4 1l.4.8.2.2.3.2v.2l.1.7.3.6.3.6c0 .2.2.3.3.5l.3.4.2.4Zm-14.5 1.3Zm7-5.7c-.1-.3-.3-.6-.5-.7-.2 0-.4-.2-.5-.4l-.1-.2h-1.3l-.3-.1a1 1 0 0 0-.6.2l-.2.2-.2.2-.4.8.1.4c.1 0 .1.2 0 .4l.2.6.3.6.8.1a5.4 5.4 0 0 0 1 0l.8-.4c.2 0 .3-.2.4-.4l.2-.6.3-.7ZM160 99.7l-.2.7-.3.6-.7.7c-.4.5-1 .8-1.5.9h-1.9l-.5-.2-.5-.3-.5-.1h-.5l-.2-.2-.3-.2-.6-.7c-.2-.3-.4-.5-.5-.9v-.5l-.3-.6v-2.3a4.4 4.4 0 0 0-.1-1V94c0-.3 0-.5.2-.8l-.1-.6-.3-.7h-1.1a10 10 0 0 1-.8.3l-.1-.1-.1-.1v-.4l-.1-.6V90l-.2-.5a19.2 19.2 0 0 1 .1-.6v-.6l.1-.5.3-.4h1.6l.5-.4h.4c.4 0 .8-.2 1.2-.6l.1-.6-.1-.5a5 5 0 0 0-.2-.6l.1-.2.1-.2v-.8l-.2-.2.1-.2v-.1l.1-.3v-.2h1.5l1.1.2a6.8 6.8 0 0 0 1.3.1h.1l.2.2v.3l-.2.2v1.1l-.2.5v.2l.1.2v.5l-.1.5 1 .5 1.2.4c.3.2.4.4.5.8a11.5 11.5 0 0 1-.2 2.1v.6a2 2 0 0 1-1 .3h-.2l-.2.1-.8.1-.9.4V92.9h-.1l-.3.7-.1.4v2.5c0 .2.2.4.4.5h.2l.2.2c.2.3.4.4.7.4l.8-.1.3-.2h.3c.1 0 .3 0 .3.2l.2.4c.2.1.3.2.3.4l.3.4a21 21 0 0 0 .4 1ZM168.4 84l.1.4a3.9 3.9 0 0 1-.2 1l-.2.3-.2.4-.3.3-.2.1-.1.2-.8.3-.8.2h-1l-.2-.2-.2-.1a1 1 0 0 0-.4 0h-.3l-.3-.3-.4-.1-.2-.6V84.6c-.1 0-.1 0 0-.1v-1.2c-.1 0-.1-.2 0-.4l.1-.3v-.4l.1-.2c.2 0 .3 0 .5-.2l.4-.3.5-.4.5-.2h1.4c.3 0 .6.1.8.4l.2.2h.3l.5.8.1.4.2.4a4.2 4.2 0 0 1 .2.9Zm0 7.7v.5a9.2 9.2 0 0 0 0 1v.5l-.3.3.2.4v1.9l-.2.6v3c0 .4-.2.8-.4 1.2v.5l.2.6v.2l-.4.4h-1c-.3 0-.5.1-.8 0l-.3-.1a2 2 0 0 0-.4-.2h-.3a2 2 0 0 1-.3 0l-.6-.7h-.2l-.3-.1-.2-.6.2-.6v-.9l-.2-.4V96a25.8 25.8 0 0 0 0-1V91.5l.1-.3v-.5l.5-.2h1l.5-.2h.3l.3.2h.9s.2 0 .3.3v.1l.3.1h.4l.3-.2.3.1.1.7ZM186.4 92.3v.8l-.1.3V95.1l-.4.5v.4l-.1.2-.3.2-.1.5-.2.5v.4l-.3.2c-.2 0-.3.2-.4.3l-.2.2c-.1 0-.2 0-.3.2H183.7c-.4 0-.5.2-.5.5l-.7.5-.7.5c-.4.3-.9.5-1.5.7l-.6.1-.5.2h-2.7l-.6-.4a4 4 0 0 0-.5-.3 1 1 0 0 1-.4-.2 2 2 0 0 1-.3-.3v-.2h-.2l-.2-.2-.2-.1-1-.8-.6-1a4 4 0 0 0-.4-.8l-.2-.3-.1-.2v-.5l-.2-.2v-2.3l.2-.5a3.4 3.4 0 0 1 .2-.8l.1-.3a6.5 6.5 0 0 1 .3-.9v-.2l.2-.6v-.5l.3-.2.2-.3a3 3 0 0 1 .3-.6c0-.2.1-.3.3-.5l.2-.3.2-.2v-.8h.3l.1-.2.6-.3.6-.3.6-.3.7-.2h1.3l.8.1H180.5l.3.1.3.3h.2l.2.1.9.3.7.5v.5l.3.3h.5c0 .1 0 .2.2.3l.2.4.3.2.2.3.1.2.1.2.2.2.2.2c0 .2 0 .4.2.5l.2.5v.2c.2 0 .2.2.3.2l.1.7.2.6Zm-4.7 1.4v-.5c-.1 0-.2-.2-.1-.4l-.1-.1V92l-.5-.7a8.7 8.7 0 0 0-.5-.7l-.1-.1a3 3 0 0 1-1.3-.3h-1l-.2.1h-.1c-.4 0-.6.1-.7.4l-.2.3-.1.4-.1.2-.2.3-.2.4c0 .2-.2.3-.3.4l-.1.7-.1.6a10.8 10.8 0 0 1 .4.7c0 .3.2.6.1.9l.2.2a60.6 60.6 0 0 1 2 .3h.7l.5-.1.5-.4.5-.4c.2-.3.3-.6.6-.8l.4-.9ZM202.8 96.2v3.2l-.4.2h-.7l-.8.3h-.9a2 2 0 0 1-.3-.2c-.3.1-.5 0-.7-.3l-.2-.4-.1-.5v-1.1c0-.4 0-.7-.2-1v-.2l-.1-.2a6.6 6.6 0 0 0-.3-1.8V94a1 1 0 0 0-.4-.6l-.1-.5-.1-.5s-.2 0-.3-.2l-.3-.1-.4-.2-.1-.2-.2-.2H195l-.3.6-.3.2-.1.1-.1.2-.3.7v.8c.1.1.1.2 0 .2V94.8l.2.1v.8l-.1.7a9.4 9.4 0 0 0 0 .5V99.6l-.4.7h-.1l-.2.1-.1.1h-.7l-.2.1-.2.2-1-.2-.8.1-.4-.1-.2-.3-.2-.5v-1.3l-.2-1 .1-1V92l.1-.3.1-.8.2-.6c0-.2 0-.3.2-.4l.2-.4c0-.3.2-.6.3-.8l.4-.7c.1-.4.3-.5.6-.4h.1v-.3l.1-.3.7-.5c.3 0 .5-.2.8-.3h.4c.3.2.5.2.8 0a38.3 38.3 0 0 1 1.8.4h.6c.2 0 .4.2.5.3l.5.5.4.1h.4l.4.4.4.4v.2l.1.3.3.1.1.2.7.2.3.4c0 .2.2.2.4.2a13.1 13.1 0 0 0 .3 1.2c0 .3.2.6.3.8l.2.6.2.6.1.4.2.3v2.4Z" class="cls-3"/></svg>