<svg xmlns="http://www.w3.org/2000/svg" id="_トップベース" width="195.4" height="161.8" data-name="トップベース" viewBox="0 0 146.5 121.4"><defs><clipPath id="clippath"><path d="m1161.5-804.3 88.2-34.6 61-22 38.3 28.3v82.7l25.7 58.8-69.8 70.6-104.3 16.9-70-34.5-34.6-33.8 65.5-132.4z" style="stroke-width:0;fill:none"/></clipPath><style>.cls-4{stroke-width:0;fill:#5c3383}</style></defs><path d="m132 85.4 1 .6 1.1.7 1.1.7 1 .8.6.5.5.6.6.5.6.6 1 .8 1.2.7c.4.2.7.6 1 .9l1 1-1.1.1-1.1-.1-1-.2-1.1-.2-.8-.2-.8-.1-.8-.1-.7-.1c-.8 0-1.6-.2-2.4-.4l-2.4-.4-2.4-.3c-.8 0-1.5.2-2.3.6l-2.4 1.8-2.1 2-2.1 2.2-2.2 2c-.7.5-1.3 1-1.8 1.6l-1.8 1.7a33.4 33.4 0 0 1-3.7 3 35.2 35.2 0 0 1-4.7 2.7l-1.6.8-1.2.7-1.2.6a13 13 0 0 1-2.6 1 98.5 98.5 0 0 1-10.8 2.2 41.4 41.4 0 0 1-6 .2l-2.5-.1-2.3-.2-2.4-.2-3.6-.1-3.7-.2c-1.3 0-2.4-.2-3.6-.3a48.5 48.5 0 0 1-7.8-1.3 92.2 92.2 0 0 1-16.2-5.1l-1.8-.8-1.8-.9-1-.5-1.2-.4-1.1-.5-1.1-.5a27.1 27.1 0 0 1-6.1-4.7 58.3 58.3 0 0 1-5.3-5.6L18 91l-2.2-2.4a47.6 47.6 0 0 1-4-5 28.3 28.3 0 0 1-2.5-5.3l-1.1-2.8-1-2.8a24.5 24.5 0 0 1-1.7-6.5L5.2 64 5 60.8a83.7 83.7 0 0 1-.4-6.4 26.5 26.5 0 0 1 .6-5c0-.6.2-1.2.4-1.7l.5-1.8.4-1.7.1-.8c.1-.3 0-.6 0-.8l.1-.8.2-.8a30.6 30.6 0 0 1 2.6-7.4l2-4 2.3-3.8a44.8 44.8 0 0 1 5.6-7 73.6 73.6 0 0 1 6-5.1 35.8 35.8 0 0 1 10.2-5.2 67.6 67.6 0 0 1 13.3-3.2 239.8 239.8 0 0 1 5.3-.6 46.5 46.5 0 0 0 4.2-.7 37.6 37.6 0 0 1 3-.2H66a103 103 0 0 1 9 .5l1.8.3 1.7.2L80 5l1.7.2h1l.6.1.5.2A98 98 0 0 1 97 9.7l3 1.2 3 1.2 3 1.4c1 .5 1.8 1.1 2.7 1.9l2.2 1.8 2.4 1.7a34.1 34.1 0 0 1 4.3 4 63.4 63.4 0 0 1 14 30.5l.4 2.5.4 2.5.3 2 .1 2 .2 2 .1 2a35 35 0 0 0 .4 3l.2 1.6v3a33 33 0 0 1-.3 4.2l-.4 1.4-.4 1.3-.3 1.3c-.2.8-.3 1.3-.1 1.4.1-.2 0 0 0 .4l-.2.5-.2.5c0 .3-.1.5 0 .4" style="fill:#fff;stroke-width:0"/><path d="M131.2 86.7c1 .6 2 1 3 1.7l2 2 2.3 1.8c1 .7 2.1 1.3 2.8 2.3l1-2.2c-1.2.3-2.6-.2-3.7-.4l-4.5-.6c-3-.5-6-1.7-9-.2-2.6 1.4-4.6 3.9-6.6 6l-3.2 2.8c-1.3 1-2.4 2.3-3.6 3.4-2.5 2.3-5.3 3.7-8.3 5.2-1.3.7-2.7 1.6-4 2.1-1.6.7-3.3 1-5 1.4-3.1.7-6.3 1.2-9.6 1.4-3.4.2-6.8-.3-10.1-.5-6.6-.3-13.1-.6-19.6-2a87 87 0 0 1-18.2-6.4L33 103c-1.4-.7-2.7-1.6-4-2.6-2.5-2-4.8-4.3-6.9-6.8l-6.4-7.2a31 31 0 0 1-5-8.3c-1-2.8-2.4-5.7-3-8.6-.8-3-1-6.3-1.4-9.5-.3-3.3-.5-6.6.2-9.9l1.1-4.5.7-4.6a66.6 66.6 0 0 1 8.4-17c2-2.6 4.3-4.8 6.7-7 2.4-2 5-3.8 7.9-5.1a56.7 56.7 0 0 1 18.4-5L59 5.3c2.9-.3 5.8-.2 8.7-.2 3 0 6 .4 9 .9 2.6.4 5.1.4 7.6 1a125 125 0 0 1 18 6.2c3 1.2 5.2 3 7.7 4.9 2.5 1.9 5 3.7 7 6.2 4.1 5 7.4 10.7 9.7 16.7 2.2 5.8 3.7 12.1 4.5 18.3l.7 8.5c.4 3 .7 6 .3 8.9-.1 1.2-.6 2.4-1 3.7-.2 1-1 2.8-.2 3.8.3.5 1 1 1.7.7l-1.8-1.5c0 .6-.6 1.2-.6 1.9 0 .9 1 1.8 2 1.4.8-.3 1.3-1 1.1-1.8-.2-.8-1.1-1.4-1.9-1.1l1.9 1.5c0-.6.5-1.2.5-2s-1-1.7-2-1.4l1.6.8c.4.5.1.5.3-.2 0-.5.2-1 .3-1.3l.6-2c.5-1.6.6-3.1.6-4.7 0-3-.4-6-.6-9a93 93 0 0 0-2.8-18 66.3 66.3 0 0 0-13.7-26.5c-2.2-2.4-5-4-7.4-6-1.2-1-2.3-2-3.6-2.7a230 230 0 0 0-14.1-5.8c-3-1-6-2-9-2.7-1-.2-2.1-.2-3.1-.3-1.8-.1-3.5-.4-5.2-.7-3.1-.5-6.2-.7-9.4-.7-3 0-6 0-8.9.4C51 3.6 44.5 4 38.2 6a43.4 43.4 0 0 0-24 16.4A69.7 69.7 0 0 0 5.5 40c-.4 1.5-.4 3-.7 4.6s-.9 3.1-1.2 4.7a33 33 0 0 0-.3 10c.3 3.3.6 6.7 1.3 10 .6 3 2 6 3.1 9s2.6 5.9 4.6 8.5c2 2.7 4.6 5 6.8 7.7 2.2 2.6 4.5 5.1 7.2 7.3 2.4 2 5 3.5 7.8 4.6 2.8 1.2 5.5 2.7 8.3 3.7a87.1 87.1 0 0 0 30.2 5.7c3.5.1 7 .6 10.6.5a58 58 0 0 0 19.8-4.2c3-1.6 5.9-2.9 8.5-4.8 2.6-2 4.8-4.3 7.2-6.4 2.4-2 4.3-4.8 6.9-6.6 1.5-1 2.8-1.2 4.6-.9 1.6.3 3 .7 4.7.9 1.4 0 2.8.3 4.2.6 1.3.3 2.6.6 4 .2.8-.3 1.5-1.4.9-2.2-1.5-2-3.8-3-5.6-4.8-.7-.7-1.5-1.5-2.4-2.1l-3.2-2c-1.7-1-3.2 1.5-1.6 2.6Z" style="fill:#4a2571;stroke-width:0"/><path d="M56.8 62a9 9 0 0 0-.1 1.2v.5l-.1.5-.1.3V65.7a6 6 0 0 1-.3 1v.4l-.2.2-.2.3c-.2.1-.3.2-.5.1H55c-.1-.1-.2 0-.4 0l-.5-.3H53.2l-.2.1h-.3a1 1 0 0 1-.3-.8l-.2-.7-.2-.8V64l.1-.3.1-.4.1-.9v-1c0-.2-.2-.4-.4-.6l-.1-.3-.3-.1-.3-.2-.3-.1a2 2 0 0 1-.4.1h-.2l-.1-.1H50l-.5.5-.3.2-.3.2-.2.2h-.3v.3l-.2.2v.1l-.1.2a4.2 4.2 0 0 0-.3 1.1v.3l-.2.3V65a43.1 43.1 0 0 1-.2 1.9l-.1.5-.7-.2H44c-.2 0-.4-.1-.5-.3l-.3-.9v-1.3a6.4 6.4 0 0 0 .2-1v-1a5.5 5.5 0 0 0 0-1.2v-.2l-.1-.3v-1l-.2-.2-.2-.2h-.3l-.2-.1-.3-.2-.4-.1-.3-.2h-.2c-.2 0-.4 0-.6.2h-.5l-.4.4-.4.4-.1.3-.1.3-.4 1v2.2l-.2 1.2a24.6 24.6 0 0 1-.4 2l-.4.5-.5.2h-.6l-.6.2h-.3l-.3.1h-.3l-.5-.1a5 5 0 0 0-.3-.5l-.3-.4v-1.3a8 8 0 0 1-.1-.8l-.2-.7.1-.5.2-.4v-.6l.1-.6V60.4l.1-1.3.1-.3v-.2l.3-.3.4-.2V56.5l.2-.4.5-.6.4-.6v-.2l.2-.3h.2l1.2-.4a9 9 0 0 0 1.2-.4 3 3 0 0 1 1.2-.3H40.5l1-.2H43l.4.2a25.4 25.4 0 0 0 1.5.7l.3.3.2.3.2.3v.4l.3.2c.1.1.2.2.4.1l.3-.3.3-.3h.4l.8-.6.2-.3V54h.7c.2-.2.3-.3.5-.3l.4-.2h1.3c.3.2.6.2.9.2l.9.1h.2l.8.8v.1c.3.6.6 1 1 1.3l.1.2v.2l.5.2c.3 0 .4.2.4.4l.1.8.3.8.2.9v1.3l.1.3v1ZM79.7 66.7v.4l-.1.4-.2.1-.1.1H79l-.2.1c-.3 0-.6.3-.6.6l-.2.1-.3.1-.4.3h-.5a1 1 0 0 0-.5.3h-.5l-.1-.3v-.2h-.4s-.2 0-.2-.2V68h-.2l-.2-.2-.3-.6-.4-.5s-.2-.1-.2 0h-.2v.2l-.2.1v.2l-.2.2a8.3 8.3 0 0 1-1.7.6 6.5 6.5 0 0 1-1 .6h-.4l-.4.2H69l-.7-.1-.7-.2H67l-.2-.2h-.3l-.3.2-.4-.1c-.1-.1-.3 0-.4 0L65 68l-.1-.3-.2-.1v-.1l-.4-.8c-.3-.7-.5-1.5-.6-2.3l-.2-.1c0-.1 0-.2-.2-.2v-.6l-.1-.7v-.3l-.1-.7.3-.8c0-.2.1-.5 0-.8l.3-.3.1-.2.5-.8c0-.3.2-.5.3-.7l.6-.4.7-.4c.3 0 .5-.2.7-.3H69l.7-.2h.4c.1.1.3.1.4 0h.2l.3.2.3.1.5-.1v-.8l-.3-.5-.1-.5-.1-.4v-.3l-.2-.2-1.1-.2h-.2l-.7.1a3.2 3.2 0 0 0-1.2.2l-.5.2-.6-.1V53.3a8 8 0 0 0-.2-.6v-1l-.2-.2h-.1v-.3l.6-.2h.4l.5-.4H69c.2 0 .6 0 1-.2h.8c.3.1.5.1.8 0 0 .2.1.2.2.3l.2.2.4-.2h.3l.4.2h.3l.3-.1c.2 0 .4 0 .5.2l.4.5c.2 0 .3.2.4.3l.4.4.1.2.1.2.4.2.2.3.4.2c.2 0 .2.1.2.2l.2.4.2.3.2.7v1l.1.4.1.4V57.3l.2.3c0 .1 0 .3-.2.4h-.1l-.2.1c-.3.2-.3.4-.1.7h.1l.1.3v.3l.1.3c0 .4-.3.8-.5 1.2l.3 1 .4.9.3.2.2.1v.2l.2.8.2.6.3.6.3.5.3.4.2.4Zm-14.8 1Zm7.3-5.7-.5-.6c-.3-.2-.5-.3-.5-.5l-.2-.2h-.9a1 1 0 0 1-.4 0l-.3-.1a1 1 0 0 0-.6.1l-.2.2-.2.2-.5.9.2.3v.5l.1.6.3.6.8.2a9.2 9.2 0 0 0 1-.1l.9-.4.4-.3a15.5 15.5 0 0 0 .6-1.4ZM101 60.7v.2l-.2.5-.2.4-.5.8-.4.7-.5.6a8.2 8.2 0 0 1-1.4 1l-.4.1-.4.3-.3.1-.3.3c-.3 0-.5.2-.7.3l-.7.2h-.7l-.4-.2h-.6l-.7.2-.2-.1-.3-.1-.2-.2h-.3l-.2.4-.2.3v2.3l.1 1v.9l-.2.7a4.2 4.2 0 0 1 0 1c-.2.2-.5.3-.7.3h-.8a2 2 0 0 1-.8-.2h-1.1l-.6-.1h-.7v-.2h-.1a3.9 3.9 0 0 1-.3-1v-.4l-.2-.4.1-.5.2-.5v-.9l-.1-.4-.1-.4.1-.3.2-.3v-.5c-.1-.1-.2-.3-.1-.5v-.3l.2-.3-.1-1.4v-3.8a5.5 5.5 0 0 1 .4-1.4l.1-.6.1-.5.2-.8c0-.1 0-.3.2-.4l.4-.6a6.8 6.8 0 0 0 .8-1.5l.2-.2.2-.4c.2-.5.5-.8 1-1 .1 0 .3 0 .4-.2.2 0 .3-.2.5-.3l1-.3a11.5 11.5 0 0 1 1.4-.4h.5a4 4 0 0 0 .7 0l.6.1.6.3h1.1l.5.1.5.3.3.1.2.2.2.1.1.2.9.8a16.8 16.8 0 0 1 1 1.3l.2.3.2.2v.5a3 3 0 0 0 .1.7v1.5c.2.4.2.6 0 .9 0 .1 0 .3.2.4v1Zm-4.4-1.3c0-.4-.1-.7-.3-1a3 3 0 0 0-.5-1 5.2 5.2 0 0 0-1.3-1l-1 .1-.6.2c-.3 0-.4 0-.4.2a3.8 3.8 0 0 1-.8 1 3.1 3.1 0 0 0-.2 1.9 9.2 9.2 0 0 0 .6 2s.1.2.3.2l.4.2h.4a4.2 4.2 0 0 1 1 .2h.8l.2-.2.3-.1.2-.2v-.3c.4-.4.6-.7.7-1.1l.2-1.1Z" class="cls-4"/></svg>