<svg xmlns="http://www.w3.org/2000/svg" id="_トップベース" width="279.5" height="214" data-name="トップベース" viewBox="0 0 209.6 160.5"><defs><clipPath id="clippath"><path d="m837.8-763.6 88.3-34.6 61-22.1 38.2 28.4v82.7l25.8 58.8-69.9 70.6L877-562.9l-70.1-34.5-34.5-33.9 65.4-132.3z" style="stroke-width:0;fill:none"/></clipPath><style>.cls-4{stroke-width:0;fill:#5c3383}</style></defs><path d="m19.3 115.4-1.6 1-1.6.8-1.6 1-1.4 1-.8.8-.9.7-.8.8-.9.7-1.5 1.1a38.5 38.5 0 0 0-3.1 2.2 8 8 0 0 0-1.3 1.3c.4.2 1 .2 1.5.2l1.6-.1 1.5-.3 1.5-.3 1.2-.2 1-.2 1.2-.2h1.2c1 0 2.2-.3 3.4-.5l3.5-.7c1.1-.2 2.3-.3 3.4-.3s2.3.3 3.4.8a44.4 44.4 0 0 1 6.6 5.2l3 3c1 1 2.1 2 3.2 2.7l2.7 2.2 2.5 2.3a32.6 32.6 0 0 0 10 6.6l2.3 1.2 2.3 1.1a95.4 95.4 0 0 0 5.3 2.5l1.9.6a159 159 0 0 0 15.8 3 63.3 63.3 0 0 0 12.2 0l3.4-.2 3.4-.2 5.3-.2 5.3-.3a153.1 153.1 0 0 0 16.7-2 135.8 135.8 0 0 0 26-8.2l2.6-1.2 1.6-.6 1.6-.6 1.7-.7 1.5-.7a40.3 40.3 0 0 0 8.9-6.3 83 83 0 0 0 7.7-7.7l3-3.3 3.2-3.2a67.3 67.3 0 0 0 5.7-6.9 36.3 36.3 0 0 0 3.8-7.2l1.6-3.8c.6-1.2 1-2.6 1.5-3.8.4-1 .8-2 1-2.9l.9-3 .5-3 .4-3 .5-4.5.4-4.4.2-4.4a27.4 27.4 0 0 0-1.5-9.1l-.7-2.4-.6-2.3-.2-1.1V57l-.2-1.2-.1-1a41.5 41.5 0 0 0-4-10l-3-5.5a81.6 81.6 0 0 0-6.9-10.4 41.6 41.6 0 0 0-4.3-4.5 94.3 94.3 0 0 0-8.8-7 53.8 53.8 0 0 0-14.8-7 106.3 106.3 0 0 0-15.5-3.8l-3.8-.4-3.9-.4-3.8-.4a70.8 70.8 0 0 1-6-1 40.7 40.7 0 0 0-6.7-.4h-8.9a53.1 53.1 0 0 0-11.2 1.2A97.9 97.9 0 0 1 89 6.4a133.4 133.4 0 0 0-19.2 5.9l-4.4 1.5a73.2 73.2 0 0 0-8.6 3.6c-1.3.7-2.6 1.6-3.9 2.6l-3.3 2.4-3.4 2.4A64.5 64.5 0 0 0 40 30a87 87 0 0 0-21.6 48.5 41.6 41.6 0 0 0-.6 5.5c0 1 0 1.8-.2 2.7s-.1 1.8-.2 2.8a61.3 61.3 0 0 1-.8 6.2v4a41 41 0 0 0 .4 5.8l.6 1.8.6 1.8.5 1.9c.2 1 .3 1.7.1 1.8-.2-.2-.2 0 0 .5l.2.7.3.8c.1.4.2.7 0 .5" style="fill:#fff;stroke-width:0"/><path d="M18.5 114.1c-1.5 1-3 1.7-4.5 2.6-1.3.9-2.5 2-3.6 3s-2.4 2-3.8 2.8c-1.4 1-2.8 2-4 3.3-.6.8-.4 2.1.8 2.5 1.9.6 3.9 0 5.8-.3l5.7-.9c4-.2 9-2.6 12.9-.6 4 2.2 6.9 6 10.3 9l5.3 4.3c1.6 1.5 3.2 3 5 4.4 3.4 2.6 7.3 4.2 11 6.1 1.8 1 3.6 1.9 5.4 2.6 2 .9 4.2 1.3 6.3 1.8 4.8 1 9.5 2 14.4 2.3 4.9.4 9.7 0 14.7-.3l14.4-.7a124.3 124.3 0 0 0 41.4-10c4-1.8 8.4-3.1 12.3-5.5 3.8-2.4 7.2-5.4 10.4-8.6l9.4-9.8a47 47 0 0 0 8.3-10.5c2.1-4 3.6-8.1 5.4-12.3a46 46 0 0 0 3-12.7c.5-4.7 1.2-9.4 1-14 0-2.4-.3-4.6-.9-6.8-.6-2.4-1.4-4.7-1.9-7-.3-2-.3-3.9-.9-5.8-.6-2.2-1.4-4.2-2.3-6.2-1.9-4.2-4.3-8.3-6.8-12.2a62.3 62.3 0 0 0-32-25c-4.4-1.5-9-2.9-13.6-3.7S138 4.7 133.3 4c-4.6-.5-9-1.5-13.7-1.4-4.8 0-9.7-.2-14.5.3-4.3.5-8.5 1.4-12.8 1.6s-8.6 1.6-12.7 2.8c-4.4 1.3-8.7 3-13 4.5s-8.7 3-12.5 5.5c-1.9 1.2-3.6 2.6-5.4 3.9L43.3 25a49.4 49.4 0 0 0-9.2 10 85.3 85.3 0 0 0-7.3 11.6 99.6 99.6 0 0 0-10.7 41l-.8 6.4a45.1 45.1 0 0 0 .5 12.6l1 3.2.4 1.6.2.8c.2.3-.6.5.3-.4l1.5-.4h-.1c-1-.5-2 .5-2 1.4 0 1 .7 1.9.9 2.9l.1-1.2v.1l2-.5-.1-.1c-1.7-1-3.2 1.6-1.5 2.6h.1c.6.4 1.7.3 2-.5.3-.5.3-1 .2-1.6-.2-.5-.6-1.2-.6-1.7l-2 1.4h.2c.5.3 1.1 0 1.5-.3 1.2-1.2.2-3.6-.2-4.9-.6-2-1.3-3.8-1.5-5.9-.5-4.4 0-8.6.6-13s.6-9 1.4-13.3A128 128 0 0 1 23.4 63 84.4 84.4 0 0 1 44 28.3c1.7-1.4 3.6-2.6 5.4-4l5.3-3.8c3.6-2.6 7.9-4 12-5.5l12.6-4.4L86 8.8c2-.5 4-1 6-1.2 4.1-.2 8.1-1 12.2-1.5 4.7-.6 9.5-.4 14.2-.5 2.2 0 4.4 0 6.6.3l6.7 1c4.7.6 9.4.9 14 1.7a86.4 86.4 0 0 1 25.8 9c3.9 2.4 7.4 5.3 10.8 8.3 3.2 3 5.8 6.5 8.2 10.2 2.4 3.9 4.9 8 6.8 12.1.9 2 1.6 4.1 2.2 6.2.5 1.8.4 3.7.8 5.6.5 2.3 1.3 4.5 1.9 6.8s.7 4.4.8 6.6c0 4.6-.7 9.1-1.2 13.6s-1.6 8.5-3.3 12.6c-1.7 4.1-3.3 8.3-5.6 12-2.3 3.8-5.4 6.9-8.5 10-6.1 6.2-11.7 13.2-19.6 17.4-1.9 1-4 1.7-6 2.6l-6.2 2.7a128.7 128.7 0 0 1-40.8 8.9c-4.8.2-9.5.3-14.3.7a75.5 75.5 0 0 1-28.1-2.7c-4-1-7.3-3-11-4.7A43.6 43.6 0 0 1 48 140l-5.2-4.5a56 56 0 0 1-5-4.4c-3-2.9-6.1-6.5-10.2-7.8-4.1-1.4-8.3.6-12.4 1-1.9 0-3.6.3-5.4.6s-3.8 1.1-5.6.6l.7 2.5c1-1.3 2.3-2.1 3.7-3s2.5-1.8 3.7-2.8 2.2-2 3.4-2.9l4.4-2.5c1.6-1 .1-3.6-1.5-2.6Z" style="fill:#4a2571;stroke-width:0"/><path d="m38 86.1-.3.6-.3.7-.6.6c-.4.4-.9.7-1.4.8h-.9l-.9-.1a4 4 0 0 1-1-.4l-.4-.2a6 6 0 0 0-.5 0l-.2-.2s-.2 0-.3-.2a4 4 0 0 0-.5-.7 2 2 0 0 1-.5-.7v-.6l-.2-.6v-2.5l-.1-.5v-1.5c0-.3.2-.6.3-.8 0-.1 0-.3-.2-.5s0-.5-.2-.7h-.3l-.3-.1-.4.1-.5.2h-.4v-.2l-.1-.2v-1.2a4 4 0 0 0-.2-1 8 8 0 0 1 .2-.6v-1l.4-.3.4-.1h1c.2 0 .4-.1.5-.3h.4c.4 0 .8-.2 1-.6l.3-.5-.2-.5c0-.2 0-.3-.2-.5l.2-.2v-1.5l.1-.2v-.2H33.2l1 .2 1.1.1h.1l.2.1.2.2-.1.2-.1.2v.3l-.1.3v.5l-.2.5V73.5a5.1 5.1 0 0 0 2 1c.2.1.4.3.4.7v1.4l-.1.6v.6c-.3.2-.6.2-1 .2h-.2l-.2.1h-.7l-.9.4v.4l-.1.3v.5l-.4.6V83c0 .2 0 .3.2.5h.3l.1.2.7.4.8-.1.2-.1.3-.1.3.2.2.4.3.4.2.4.2.4.1.5ZM49.4 71.5c0 .1.1.3 0 .4v.5l-.1.3-.2.4-.3.3-.2.3-.2.1-.2.2-.7.3a3 3 0 0 1-.7.1h-1l-.2-.2-.2-.1a1 1 0 0 0-.3-.1h-.4l-.3-.2-.3-.1-.2-.6v-2.7l.2-.3v-.5h.1l.4-.3.4-.3.5-.3.6-.3h.4l.4.1h.5c.2 0 .5.1.7.4 0 0 0 .2.2.2h.3l.4.8.1.4.1.4.1.4.1.4ZM49.2 78.7v1.9l-.3.3.2.3v1.4l-.1.5-.2.5v2.8l-.4 1.2v.5a12 12 0 0 0 .1.6l-.4.4h-.2l-.7.1h-.8l-.3-.2-.3-.1h-.3l-.3-.1a16 16 0 0 1-.5-.6l-.2-.1-.3-.1c-.1-.1-.2-.3-.1-.5l.1-.6c.1-.3 0-.6 0-.8l-.1-.4v-4.1l.2-.5v-2a5 5 0 0 1 0-.9v-.4l.5-.2H45.7l.6-.2.2.1.3.2.4-.1h.4l.3.3v.1l.3.2.4-.1.3-.2.2.2.2.7ZM76.6 82.5a8 8 0 0 0 0 1l-.1.6-.1.5v1l-.1.3v.5l-.2.6-.1.2-.1.3-.2.2-.5.1h-.6l-.5-.2h-.5l-.1-.1h-.2l-.2.1H73a.9.9 0 0 1-.4-.7l-.1-.7-.2-.7V84.1l.2-.3V82l-.3-.6-.1-.2-.2-.2-.3-.1a2 2 0 0 1-.3-.2l-.4.2-.2-.1h-.2c-.1 0 0 0 0 0l-.6.5-.2.1-.3.2-.2.2h-.3v.2l-.1.2-.1.2-.1.1a3 3 0 0 0-.2.9v.5l-.2.2v2.2l-.1.3-.1.4-.1.4-.7-.1h-2.3c-.2 0-.4-.2-.5-.3l-.2-.8a3.6 3.6 0 0 1 0-1v-.7l.1-.4v-2.6l-.1-.2v-.7l-.1-.2-.2-.2h-.5a10.9 10.9 0 0 1-.6-.4l-.3-.1-.2-.1-.6.2h-.2l-.2.1-.4.3c0 .2-.2.3-.3.4l-.2.3v.3l-.4.9-.1 1v1a9.3 9.3 0 0 1-.5 3l-.3.4a1 1 0 0 1-.5.2H58l-.6.2H57l-.2.1h-.3l-.5-.1c0-.2-.2-.3-.3-.4a10 10 0 0 1-.3-.5V86.7c.1-.3.1-.6 0-.8V85l-.2-.7V84c.2-.1.2-.2.2-.4l.1-.5v-1.2l.1-.6V81a3.2 3.2 0 0 1 .2-1.7l.2-.2.3-.2v-1.2l.1-.3.1-.4.5-.5.4-.5v-.3l.2-.2h.2l1-.4 1.1-.4c.4-.2.8-.2 1.2-.2H61.5c.2-.2.5-.2.8-.3h1.6l.3.3.5.2.5.1.2.2h.2l.3.4.2.3.1.3.1.3.3.2.3.1.3-.3.3-.3h.3l.8-.5.1-.3.1-.2h.7l.4-.3c.2 0 .2-.1.3-.2h1l.2.1.9.2a7.6 7.6 0 0 1 1 .1l.7.7h.1c.2.6.5 1 1 1.3V77.2l.5.2c.2 0 .3.2.3.3l.1.8c0 .3.2.5.3.7l.2.8v1.6c.1.2.1.5 0 .8ZM96.2 77.2a13.2 13.2 0 0 0 0 1.3l-.1.7-.1.7-.2.2-.2.3v.4l-.1.3-.3.2-.6.2-.5.1a4 4 0 0 1-1 0 28.9 28.9 0 0 1-2.8 0h-1.7l-.2.1h-1.2l-.2.1h-.5l.2.2v.3l.2.2.2.3v.3l.1.2.4.4.4.3h.3l.3.1H89.8l.4.2a115.9 115.9 0 0 1 1.5-.3l.2-.2h.9l.2.4.3.3.4.6.2.6.2.3.2.3v.3l-.1.3-.3.2-.2.2-.4.2-.3.3c-.3.2-.6.4-1 .4a1 1 0 0 0-.2 0l-.3.1-.4.2h-.3l-.3.1h-1.1l-.5-.1h-.2l-.2-.1c-.4 0-.7 0-1-.2l-1-.4a.8.8 0 0 1-.5-.4 2.5 2.5 0 0 0-1.1-.7c-.1 0-.3 0-.4-.2l-.4-.2V86l-.2-.2-.2-.2-.2-.2-.2-.2c0-.4-.2-.7-.3-1 0-.4-.2-.8-.4-1V79.7l.2-.5v-.5a21.1 21.1 0 0 1 .3-1.3l.2-.4.2-.4.4-.7.4-.2.2-.2s.1-.2.4-.3l.1-.3.2-.4c.2-.3.4-.6.8-.8a3.2 3.2 0 0 0 .7-.6h.7l.3-.1h.1l.2-.2H88.3l.5-.2c.2 0 .3-.2.5-.3.3.2.6.2 1 .2h.6c.2 0 .4 0 .5.2l.5-.2.5.2.4.2h.3l.1.1.7.6.6.6c.4.2.6.4.6.7l.3.3.6.9v.4l.1.3.2.3Z" class="cls-4"/><path d="M92.2 78.2v-1l-.1-.1v-.7l-.2-.1h-.3c0-.3-.1-.4-.2-.5l-.2-.2a3 3 0 0 1-.4 0l-.8.2a7 7 0 0 0-1 .2h-.8l-.5.5-.5.5-.2.3-.2.4v.2c0 .2.1.3.3.3l.3.1a17.7 17.7 0 0 1 .6.1h.2c.2-.1.4-.2.6 0h.5l.4-.1.4.1.4.1.8.1h.8l.1-.4ZM119.8 86.1l-.3.6-.3.7-.6.6c-.4.4-1 .7-1.5.8h-.8l-.9-.1a4 4 0 0 1-1-.4l-.4-.2a6 6 0 0 0-.5 0l-.2-.2c-.1 0-.2 0-.3-.2a4 4 0 0 0-.5-.7 2 2 0 0 1-.5-.7v-.6l-.2-.6v-2.5l-.1-.5v-1.5l.2-.8v-.5l-.3-.7h-.3l-.4-.1-.4.1-.4.2h-.4l-.1-.2v-1.4a4 4 0 0 0-.2-1 8 8 0 0 1 .1-.6V75l.1-.4.4-.3.4-.1h1c.2 0 .4-.1.5-.3h.4c.4 0 .7-.2 1-.6l.3-.5-.2-.5-.2-.5.2-.2v-1l-.1-.2v-.1l.1-.2V70l.1-.2h1.4l1 .2 1 .1h.2l.1.1.3.2-.1.2-.1.2v.3l-.1.3v.5l-.2.5V73.5a5.1 5.1 0 0 0 2 1c.2.1.4.3.4.7v1.4l-.1.6v.6c-.3.2-.6.2-1 .2h-.2l-.2.1h-.7l-.9.4v.4l-.1.3v.5l-.4.6v.4l-.1.6V83c0 .2.2.3.3.5h.3l.1.2c.2.2.4.4.7.4l.8-.1.2-.1.3-.1.3.2.2.4.3.4.2.4.2.4.1.5ZM141 86.8v.4l-.1.4-.1.1-.2.1h-.2l-.2.1c-.3 0-.5.2-.6.5l-.1.2h-.3l-.4.3h-.5a1 1 0 0 0-.4.3s-.1 0-.2 0h-.3l-.1-.3v-.2h-.3l-.3-.1V88a4.6 4.6 0 0 0-.3-.2 7.4 7.4 0 0 0-.6-1l-.3-.1h-.1l-.1.2-.1.2-.1.1-.1.2-.8.3-.8.2-.5.3a5 5 0 0 0-.4.3h-.4a3 3 0 0 1-.3.2c-.1 0-.3-.1-.4 0h-.4l-.6-.1-.7-.1H129.4l-.2-.1-.2-.1h-.3l-.3.1h-.4l-.4-.1-.2-.3-.2-.3-.1-.1v-.1l-.4-.8a7 7 0 0 1-.6-2l-.1-.2-.2-.2a47 47 0 0 0-.2-2c0-.3.2-.5.3-.8 0-.2.1-.5 0-.8l.2-.2.2-.2.4-.8.3-.6.5-.4a43.6 43.6 0 0 0 1.7-.6h1.7l.7-.2h.4c.2 0 .2.1.4 0s.1 0 .1 0l.3.2.3.1.5-.1-.1-.7-.2-.5-.2-.4v-.7l-.2-.2-1-.2h-.2l-.6.1h-.7l-.4.2-.5.2c-.2 0-.4 0-.5-.2l-.1-.5v-.7l-.1-.5-.1-.7V73l-.1-.1-.1-.1c-.1 0-.1-.2 0-.2v-.1l.5-.1h.4l.4-.5h.2l1 .1 1-.2h1.4l.2.3.3.1h.3l.3-.2.4.3h.3l.2-.2c.2 0 .3.1.5.3 0 .2.2.3.4.4l.3.3.4.4.1.2.1.1.3.3s.2 0 .2.2l.4.2s.2 0 .2.2l.2.3c0 .1 0 .2.2.3l.2.7V77.3c0 .2.1.2.2.3V78.2l.1.3-.1.3h-.2l-.1.2c-.3.1-.3.3-.1.5v.1l.2.2v.6c0 .4-.2.8-.4 1.1l.3.9.3.8.3.2.2.2v.2l.1.6.3.6.2.6.3.5.3.3.1.4ZM127.3 87.8Z" class="cls-4"/><path d="M134 82.5c-.1-.3-.3-.5-.5-.6-.2 0-.3-.2-.4-.4l-.1-.1-.2-.1h-1l-.4-.1a1 1 0 0 0-.5.2l-.2.1-.2.2-.4.8c0 .1 0 .2.2.3v.4a16.5 16.5 0 0 0 .3 1.2h.1l.7.1H132.3l.8-.4c.2 0 .3-.1.4-.3l.2-.6.3-.6ZM160.3 80v.2l-.2.3v2.1l-.2.2.1.1.1.2c0 .3 0 .7-.2 1s-.2.6-.3 1l-.4.2-.2.5-.3.3c0 .2-.2.2-.3.3h-.2c0 .2-.2.4-.4.5l-.4.4-.2.3-.2.3-.5.2-.4.2h-.4l-.2-.1-.2.1-.3.3-.2.1h-.2l-.2.2-.3.1-.7-.1h-.6l-.4-.1-.5-.1-.4-.2h-.4l-.3-.1h-.3l-.6-.3a7 7 0 0 1-.5-.3c-.2 0-.3-.1-.4-.3l-.3-.3-.1-.1V87a1 1 0 0 0-.3-.5l-.3-.3a4.6 4.6 0 0 0-.4-1l-.2-.2-.1-.7-.4-.5v-.2l.1-.2-.2-.6v-.5l.1-.7v-6.1l.1-1v-1.2l.2-.4V71.2l.3-.4v-.6l.1-.2.3-.8.1-.7.3-.5a2.7 2.7 0 0 1 1 0h.3l.7-.1a10.6 10.6 0 0 1 1 0h.8v.2l.2.3-.2.7v.5l.2.8-.2.8V74l-.1.7v.3l-.2.3v.6l-.2.6v.3l-.1.4v.1l.7-.4.4-.7.7-.2.6-.3h1.1l.6.2.6.1.7.3.7.3c.2 0 .4.1.5.3l.2.3.3.2.4.4.4.4.3.2.4.8c.2.3.2.5.2.8Z" class="cls-4"/><path d="M156 81.6v-.2c-.2-.2-.4-.3-.4-.5-.1-.3-.3-.3-.5-.3h-.8a47 47 0 0 0-.8 0h-.6l-.1.1h-.2l-.5.5-.4.6V83h.1v.2c.2 0 .3.2.3.3 0 .2 0 .2.2.3l.1.2.4.8h.1l.1.1h.4l.4-.2.4-.2.5-.1c.2 0 .3 0 .5-.2h.1l.4-.5.3-.5v-1.6ZM174.6 85.8c0 .2 0 .4-.3.5-.1.2-.2.4 0 .6v1l-.1.1-.1.2h-.2a8.8 8.8 0 0 1-1 .1h-.2a4 4 0 0 0-.8-.1l-.9-.1h-.4a2 2 0 0 0-.5 0l-.6-.3-.7-.4-.5-.6-.6-.6-.1-.3a2 2 0 0 0-.2-.3l-.4-1c0-.2 0-.3-.2-.4-.1-.3-.2-.6-.1-.9v-.2l-.1-.3-.2-.2v-.3l-.2-.3a15 15 0 0 0 .2-1.4l-.2-.3V80l.3-.2.1-.7.1-.7v-2.8c.2-.4.2-.9.2-1.4v-2.2l.3-.6v-.2l-.1-.2.2-.3.2-.3.1-.3.1-.2.2-.3h.8l.3.2.4.2h.5a3 3 0 0 0 1.3.2h.1l.4.2v1.3l-.1 1-.2.8-.1 1-.1 1.3a12.4 12.4 0 0 0 0 1.6l-.3.7-.2.6v.6l.1.7v1.3l.2.3v.2l-.1.3v.3l.1.4.3.3.1.3v.1l.2.2c0 .1 0 .2.2.3l.3.1.4.1.4.1h.5l.2.1.1.1.4.6.3.3.2.3ZM194.2 77.2a13.2 13.2 0 0 0-.1 1.3v.7c0 .3 0 .5-.2.7l-.1.2-.2.3v.4l-.1.3-.3.2-.6.2-.5.1a4 4 0 0 1-1 0 28.9 28.9 0 0 1-2.8 0h-1.7l-.3.1h-1.1l-.2.1h-.5l.1.2.2.3.1.2.1.3.1.3.1.2.3.4c.2 0 .3.2.4.3h.4l.3.1H187.8l.4.2a115.9 115.9 0 0 1 1.5-.3l.2-.2h.8l.3.4.3.3.3.6.3.6c0 .1 0 .2.2.3l.2.3v.3l-.1.3-.4.2-.1.2-.4.2-.3.3c-.3.2-.6.4-1 .4a1 1 0 0 0-.2 0l-.4.1-.3.2h-.3l-.4.1h-1l-.6-.1h-.2l-.1-.1c-.4 0-.7 0-1-.2a39.8 39.8 0 0 1-1.6-.8 2.5 2.5 0 0 0-1-.7c-.2 0-.3 0-.4-.2l-.4-.2-.1-.3-.1-.2-.2-.2-.2-.2-.2-.2-.3-1c-.1-.4-.2-.8-.4-1V81.2l-.1-.5v-.5l.2-.5.1-.5V78l.2-.6.3-.4.2-.4.3-.7.5-.2.1-.2.5-.3.1-.3c.1-.1.2-.3.1-.4.2-.3.5-.6.9-.8l.3-.3c.2 0 .3-.2.3-.3h.8l.3-.1h.1l.2-.2h.2l.6-.2.5-.3c.3.2.6.2 1 .2h.6c.2 0 .3 0 .5.2l.4-.2.5.2.5.2h.3v.1l.7.6.7.6c.3.2.5.4.6.7 0 .2.2.3.2.3.3.2.5.5.7.9v.4l.1.3.1.3Z" class="cls-4"/><path d="M190.2 78.2v-1l-.1-.1v-.7l-.2-.1h-.3c0-.3 0-.4-.2-.5l-.2-.2a3 3 0 0 1-.4 0 9 9 0 0 1-.9.2 7 7 0 0 0-.9.2h-.8l-.5.5-.5.5-.2.3-.2.4v.2c0 .2.1.3.2.3l.4.1a17.7 17.7 0 0 1 .6.1h.2c.2-.1.4-.2.6 0h.5l.4-.1.4.1.4.1.8.1h.7l.2-.4Z" class="cls-4"/></svg>