<svg xmlns="http://www.w3.org/2000/svg" xmlns:xlink="http://www.w3.org/1999/xlink" id="_トップベース" width="2640" height="1425.8" data-name="トップベース" viewBox="0 0 1980 1069.4"><defs><style>.cls-3{fill:none;stroke:#4e2279;stroke-miterlimit:10;stroke-width:8px}.cls-4{fill:#4e2279;stroke-width:0}</style></defs><use xlink:href="#image" transform="translate(807.5 492.7)"/><use xlink:href="#image-2" transform="rotate(46 842 1956.3)"/><use xlink:href="#image" transform="translate(386.6 69.3)"/><g style="opacity:.29"><path d="m138.4 306.3 33.3 446.4 409.7 290.2 219.9-267.1-273.9-455.2-389-14.3z" style="fill:none;stroke:#4e2279;stroke-miterlimit:10;stroke-width:11px"/><path d="m138.3 306.3 297.4 322.1M438 630.8l91.6-307.9M438 630.8 173.8 755.1M581.9 1042.3 436.7 627.2M802.7 774 434.8 629.5M362.2 510.1l-33.7 41.6M308 451l-33.7 41.6M253.8 391.9l-33.7 41.6M494.6 566.7l-62.9-46.4M511.4 511.6l-62.9-46.4M528.2 456.5l-62.9-46.4M383.9 701.2l-43.7-69.8M337 723.4l-43.7-69.7M290.1 745.7 246.4 676M673.2 756.3l-4.4-68.8M609.8 731.7l-4.4-68.7M546.5 707.2l-4.4-68.7M559.5 894.3l-59.8-1.4M534.9 822.8l-59.9-1.3M510.1 751.4l-59.8-1.4" class="cls-3"/></g><use xlink:href="#image" transform="translate(951.9 342)"/><use xlink:href="#image-2" transform="matrix(-1 0 0 1 1176.8 15.7)"/><path d="m1282.2 40.2-.6 1.1c-.2.4-.3.8-.3 1.3l-1 1-.8 1-.5 1-.6 1h-.2a.8.8 0 0 1-.3-.4c0-.2 0-.3-.2-.3s-.3 0-.4.2l-.2.3-.3.3h-.2l-.4.2c-.1-.2-.3-.4-.6-.5a11 11 0 0 1-.7-.5l-.8-.3-.7-.2-.2-.2c-.2 0-.3-.2-.4-.3 0-.1-.2-.2-.5 0l-.1.3v.4l-.7.1-.3.1-.3.2-.5-.1-.6-.1c-.5 0-.9.2-1.2.4l-1.2.5c-.2.1-.5.3-.6.6l-.8 1.3-1 1.3-.2.4-.3.4a2.2 2.2 0 0 0 0 .8c0 .2 0 .4.2.5l-.3.4c0 .2-.2.3-.3.4l.1.5v.3l.6 1 .4.7.3.7.6.4.5.5.5.5.5.5h.5l.6-.1h.3l.3.2.9.1.8-.1a29.9 29.9 0 0 0 2.3-.6l1 .2.8.3 1-.6c.4-.2.7-.3 1.2-.3.4.1.7.4.8.7l.5.8c0 .3.2.5.4.8l.3 1 .6.7c0 .2.2.4.4.6l.4.7c.1.7 0 1.3-.2 1.9l-1 .7-.9.8a11.9 11.9 0 0 1-.5 1l-.6.2-.5.3-.5.1-.5.2-1 .6c-.3-.2-.7-.3-1-.3l-1.2.3c-.4 0-.8 0-1.1.2a2 2 0 0 1-1.2-.2l-1-.4-1 .5-1.4-.5h-.6a3 3 0 0 0-.7.2 7.6 7.6 0 0 0-1.3-.5h-.9l-.6-.4-.6-.5-.6-.3c-.8-.4-1.4-1-2-1.6a24.8 24.8 0 0 0-2.2-2l-.7-1c-.1-.6-.3-1.1-.6-1.6l-1-1.6-.1-.8-.4-.7c.1-.4.2-.8.1-1.2v-1.4c.1-.2 0-.5-.3-.8l.1-.4.3-.3c.2-.1.3-.3.3-.7l-.2-.3-.3-.4.3-.6.1-.7V49l.6-.6c0-.4-.1-.6-.4-.6a.9.9 0 0 1-.6-.4l.7-2c0-.2.4-.6.8-1.2v-1.5c0-.5.2-1 .6-1.6 0 0 .2 0 .3-.2l.4-.4.3-.7.1-.6.9-.6.9-.7.3-.2.4-.1.6-.3.6-.4h.3l.4.1c.4 0 .7-.2 1-.4l.9-.8 1.6-.4c.6 0 1.1-.2 1.7-.5l.9.2c.3.2.6.1.9 0h1.7l1.4.2c.7 0 1.3 0 1.7-.5l.1-.1.2-.2.3.2.2.1c1.1 1 2.4 1.6 3.9 1.7l.7.1.6.3 1.4 1.5c.5.3.7.8.5 1.3v.6ZM1318 49.7c.2.5.2 1 0 1.5l-.2.6V53l-.3 1.2.1 1.2-.6 1v.8l-.4.3-.5.5-.4 1-.4 1v.7l-.7.5a2 2 0 0 0-.7.6l-.5.3-.6.4h-.6c-.7 0-1 .4-1 1l-1.5 1-1.5 1.1a7 7 0 0 1-3 1.3 4 4 0 0 0-1.2.3 6 6 0 0 1-1.1.3h-.7c-.6 0-1.1 0-1.7-.2h-.6l-.5.2-1-.2-1-.1-1-.6-1.1-.6a2 2 0 0 1-.8-.5 4 4 0 0 1-.5-.7l-.2-.2-.3-.3-.4-.2-.4-.3c-.7-.5-1.4-1-2-1.7-.5-.6-1-1.3-1.2-2.2l-.8-1.5c0-.2-.2-.4-.3-.5l-.3-.5.2-.6-.3-.4-.1-.5v-3.7l.1-1 .2-.8.2-.8.3-.8.3-.8.2-.8.5-.9v-.6l.4-1 .1-1 .5-.5c.2-.1.2-.3.3-.5a4.9 4.9 0 0 1 .7-1.2l.6-1 .5-.6.4-.3.1-.8v-.5l.1-.4c.2 0 .3 0 .4-.2l.4-.2a17.8 17.8 0 0 1 5-2.2h2.7c.5.3 1 .4 1.6.4a14.5 14.5 0 0 0 2.2-.1h.7l.6.4c.2 0 .3.2.5.4l.4.2.5.2c.7 0 1.2.3 1.8.6l1.4 1.1v.4l.1.4c0 .3.1.5.4.7h.5c.2 0 .3 0 .5.2l.4.6.5.7.5.5.4.6.3.4.1.3.4.4.3.6.4 1 .4 1 .3.4.4.5.2 1.3c0 .4.2.9.4 1.3Zm-9.5 2.4-.1-.8c-.2-.3-.2-.5-.2-.8 0-.1 0-.2-.2-.3v-1.3a197.3 197.3 0 0 1-2.2-3c-.8 0-1.6-.3-2.5-.7a2.7 2.7 0 0 0-2.2 0l-.2.2h-.4c-.7-.1-1.2.2-1.4.9l-.3.5-.2.7-.3.6-.3.5-.5.8-.5.7c0 .5-.2 1-.3 1.4l-.3 1.3.4.7.3.7c.3.6.4 1.2.4 1.8v.2l.2.3a114.9 114.9 0 0 1 3.3.8l1-.1H1303.1l1.1-.2 1-.8 1-.7 1.2-1.7c.5-.5.8-1 1-1.7ZM1351 58.3l.1 1.1-.1 1.1v4.3c-.2.3-.5.5-.9.5h-1.5c-.5 0-1 .2-1.5.4l-.9.1h-1l-.6-.5c-.5.2-1 0-1.3-.6l-.5-.9-.2-1v-2.3c.1-.6 0-1.3-.2-2l-.2-.3v-.4a16.3 16.3 0 0 0-.5-4.3c-.1-.5-.4-1-.9-1.3l-.1-1-.2-1-.6-.4-.6-.3a4 4 0 0 1-.8-.4l-.3-.3c0-.2-.2-.3-.4-.5h-.4l-.4.1H1335.7l-.7 1-.5.4-.3.3c-.2.1-.3.3-.3.4l-.4 1.5v.7c-.1.3-.1.6 0 .8v.4l-.1.4c-.1.2-.2.3 0 .4l.1.3.2.3v1.6l-.3 1.5.1.5.1.6c0 .2 0 .5-.2.9s0 .7 0 1v.8l-.1.8V65c-.1.5-.4.8-.8 1.3l-.3.1-.3.1-.3.2-.2.1a5 5 0 0 1-.6 0h-.5l-.4.1-.5.3-1.8-.3a3 3 0 0 0-1.8.1c-.3 0-.5-.1-.7-.3l-.5-.6a2 2 0 0 1-.3-1l-.2-1 .1-1.5-.2-2 .3-2.3V53a60.7 60.7 0 0 1 .3-4.5 97 97 0 0 1 .6-2.8l.5-.8.5-.8c0-.6.3-1.2.6-1.7l.9-1.4c.2-.6.6-.9 1.2-.7h.1c.2-.2.2-.4.1-.6 0-.3 0-.5.2-.7l1.5-.8 1.5-.6c.4 0 .6 0 .8.2h1.7a57.8 57.8 0 0 1 3.7.9l.5-.2h.6c.4.1.8.4 1.1.7l1 1c.2.3.4.3.7.3h.9a27.1 27.1 0 0 1 1.6 2l.2.6c.2 0 .4.1.5.3l.2.5 1.4.4.6.8c.2.3.5.4.9.4a24.6 24.6 0 0 0 .5 2.4l.5 1.7.5 1.2.2 1.2c0 .3.1.6.3.8l.4.7-.1.6a5.7 5.7 0 0 0 0 1v.6l.1.4v2.2ZM1378.5 40.6a3 3 0 0 1-.8 1.5l-.5.6a1 1 0 0 1-.4.5l-.4.4-.3.6c-.2.5-.6.5-1.2.1l-.5-.5h-.8l-.2-.2a.8.8 0 0 1-.5-.4 1 1 0 0 0-.5-.5c-.7-.3-1.4-.6-2-.7s-1.5 0-2.2.2l-.9 1.2a7 7 0 0 0-.5 1.3l.2 1 .3 1c.3.3.5.6 1 .7h.5l.5.1.5.4.4.3 1 .8a22.2 22.2 0 0 0 3 1.6l.6.3.5.6.6.8.5 1a31.5 31.5 0 0 1 .6 3.1v1.2l.2 1.2V60.5l-.3.9-.4 1-.7 1.9-.7.7-.6.7c-.2 0-.3.2-.4.3l-.2.3c-.5.3-.9.6-1.1 1l-.8 1.2a10.7 10.7 0 0 0-2 .4c-.2 0-.5 0-.8.2l-.7.3h-1.7c-.5-.2-1-.3-1.4-.2-.5 0-1 0-1.5.2-.4.1-.7 0-1-.1l-1-.5-.9-.3-1.4-1.3-1.4-1.3V65a15 15 0 0 1 0-2c.1-.6.4-1.2.7-1.8l1-1.7h.8l.7.3.8.5 1 .4 1 .3h.4l.5.2c.6.2 1 .1 1.6-.2l.6-.5.5-.6v-1l.1-1v-.3l-.2-.5-.1-.4-1-.8-.4-.7a1 1 0 0 0-.5-.6l-1.6-.5-.7-.4a5.9 5.9 0 0 0-.8-.7l-.3-.2a11 11 0 0 1-1.2-.3l-1-.6-.6-1-.5-.9-.5-.7-.7-.9a31.5 31.5 0 0 1-.8-5 33.8 33.8 0 0 1 .8-2.7l1-2.2c.5-.8 1-1.4 1.8-2a100 100 0 0 0 2.8-2.2l.7-.2 1.2-.4a4 4 0 0 1 1-.2l1.5-.1c.7-.2 1.4-.3 2-.2.6 0 1.2.2 1.8.4h.7l1 .9 1 .9.8.3.8.4 1.2 1.3 1 1.3.2 1c0 .2 0 .6.2 1ZM1413.7 44.2v1.4l-.2 1.4-.1 1.5c0 .5 0 1-.3 1.6l-.3.4-.4.6v.5l.1.5c0 .2-.2.4-.4.5l-.6.4a23.6 23.6 0 0 0-2.4.8h-4a62.4 62.4 0 0 0-4 0h-3.8c-.2.2-.4.2-.6.2h-.5a.8.8 0 0 0-.6 0 1 1 0 0 1-.7 0h-.5l-.6.2-.5-.2-.5.1.3.5c.2.1.2.3.3.5l.3.6a7.6 7.6 0 0 1 .6 1.8l.8.6.8.7.7.2.8.1.8.1h1.8c.2.2.5.3.8.3l1.3-.1 1.3-.2.5-.3.6-.4c.6-.2 1.2-.1 1.8 0l.5.7.6.8.8 1.2c.3.4.5.8.6 1.3l.4.7.4.6v.6l-.2.6-.7.5-.1.2-.2.2-.9.5-.7.6a3 3 0 0 1-2 .8h-.6l-.7.3-.7.4h-.7l-.7.2h-.5a5 5 0 0 0-.5 0 4 4 0 0 1-1.3 0c-.4-.2-.8-.2-1.2-.2l-.4-.2h-.4c-.8 0-1.5-.1-2.2-.4l-2-1c-.6 0-1-.3-1.2-.7l-1-.9-1.3-.7-.9-.3-.8-.5-.2-.6-.3-.5a2 2 0 0 0-.4-.5c-.2 0-.3-.2-.4-.4l-.4-.4a488.6 488.6 0 0 1-1.4-5.5l-.1-1.2-.1-.3V53l-.2-1 .1-1 .3-1.2.3-1.1v-.5l-.1-.5.3-1.5c0-.5.2-1 .3-1.4l.4-.8.5-.8.8-1.6 1-.5.3-.3.9-.8c0-.2 0-.4.3-.6s.4-.5.3-.7c.4-.8 1-1.4 1.8-1.9l.8-.6.6-.5c.2-.2.5-.2.7-.2h1l.5-.2.3-.1.4-.2.2-.2h.3c.4 0 .8-.2 1.2-.4l1-.5c.7.2 1.4.3 2.1.2l1.4.1 1.2.4 1-.3 1 .3.9.6h.8l.1.2a36 36 0 0 0 2.9 2.4 3 3 0 0 1 1.3 1.7l.4.6c.6.5 1 1 1.5 1.8v.9c0 .2 0 .4.2.6l.2.8Zm-8.6 2.3v-1.7l-.1-.5-.2-.4a.8.8 0 0 0-.2-.2v-1.2l-.2-.2a2 2 0 0 1-.6-.1c-.1-.5-.2-.8-.4-1a1 1 0 0 0-.5-.3l-.8-.2-1.9.4-2 .6h-.9l-.8.1-1.2.9-1 1.1-.4.8-.5.7v.4c0 .4.2.6.5.7l.8.2 1 .3.3-.1h.4c.5-.3 1-.3 1.4-.1h1l.9-.2c.2.2.5.2.8.3l.9.2a5.9 5.9 0 0 0 3.3 0c.3-.2.4-.4.4-.6ZM1449.5 53v.5l-.4 1-.4.9c-.2.6-.5 1.1-1 1.6l-.9 1.3-.8 1.3a12.8 12.8 0 0 1-3 1.8l-.6.3c-.2.3-.5.5-.8.6a6 6 0 0 0-.7.3c-.2 0-.4.3-.6.5l-1.4.6c-.4.2-.9.4-1.4.4h-.4l-.4.1a4 4 0 0 0-.6-.2l-.7-.3a26 26 0 0 0-2.5.4l-.5-.3-.5-.2-.5-.2h-.6l-.5.6-.4.8v1l.2 1.2-.1.7c-.2.5-.2 1 0 1.6l.2 1.8v2c-.2.4-.3.9-.3 1.4a8.5 8.5 0 0 1-.2 1.8c-.4.5-.9.8-1.4.8h-1.6c-.5 0-1-.2-1.5-.4h-2.3l-1.2-.3-.6-.2h-.8v-.1l-.2-.1a9.7 9.7 0 0 1-.5-2.2c0-.2 0-.4-.2-.6l-.2-.7.2-1 .3-1a10.7 10.7 0 0 1 0-1.8c0-.3 0-.6-.2-.9s-.1-.5-.2-.8l.3-.6.3-.6-.1-.9-.2-1 .3-.7.2-.6-.2-2.6a147.6 147.6 0 0 1 0-7.6 12.8 12.8 0 0 1 .8-2.9 22.2 22.2 0 0 0 .5-2.2l.4-1.6c0-.3.1-.5.3-.8l.9-1.2a10.2 10.2 0 0 0 1.5-3l.2-.2.1-.1.5-1c.4-.9 1-1.5 2-1.8l.8-.5 1.1-.6 1.9-.6a23.8 23.8 0 0 1 2.9-.7l1-.1a5.6 5.6 0 0 0 1.4.1l1.2.2c.4 0 .7.2 1.1.4h.6l.6.2h1l1 .1a10 10 0 0 0 1.7.8l.4.3.2.4.4.3 1.7 1.5a26.2 26.2 0 0 1 2.1 2.7l.4.5.4.5V44.8l.1.6.2.7V48.5c.2.6.2 1.2 0 1.7l.1.8v1l.1 1Zm-8.8-2.5c0-.8-.2-1.5-.5-2-.2-.7-.6-1.3-1.1-1.8a8.8 8.8 0 0 0-2.5-2 5 5 0 0 0-2.2 0c-.2.2-.5.4-1 .4s-.8.2-1 .3c-.1.4-.4.8-.7 1.2a4 4 0 0 1-.7.8l-.5 2 .1 1.9a57.8 57.8 0 0 0 1.2 4c0 .2.2.4.4.4l.9.5h1.9l1 .2c.4.3 1 .2 1.6 0l.4-.3c.2 0 .4-.2.5-.3.2 0 .4-.2.4-.4 0-.3 0-.5.2-.5.6-.8 1-1.5 1.2-2.3l.4-2.1ZM1477.4 63.4l-.6 1.4-.6 1.4-1.4 1.3c-1 1-2 1.6-3.1 1.7-.6.1-1.2.2-1.8.1l-2-.3a19.4 19.4 0 0 1-2.3-.9l-.8-.3-1-.2-.5-.3-.6-.3c-.3-.6-.7-1-1.1-1.5-.4-.5-.8-1-1-1.8v-1l-.5-1.3v-4.6a18.2 18.2 0 0 0-.2-2.8v-.8c.2-.6.2-1.2 0-1.8l.6-1.6-.3-1.2c0-.5-.3-1-.4-1.4a3 3 0 0 1-.7 0l-.8-.2-.8.3a22.2 22.2 0 0 1-1.6.4s-.2 0-.3-.2l-.1-.2-.1-.4V44a7.4 7.4 0 0 0-.4-2l.2-.7.1-.5v-1.3c0-.4 0-.7.2-1 .1-.3.4-.5.7-.8a3 3 0 0 1 1-.1h2.2a2 2 0 0 0 1-.6l.4-.1h.4c1 0 1.7-.4 2.4-1.1l.4-1.2a6 6 0 0 1-.3-1l-.4-1.2.3-.4.2-.5v-1.1l-.2-.5-.1-.5.1-.3.2-.3v-.5l.2-.4h.8l.7.1h1.5l2.3.4c.8.2 1.5.2 2.2.2h.3l.2.2c.2 0 .4.2.5.3l-.2.5-.2.5-.1.6-.1.7-.1 1-.3 1 .1.4v1.3l-.3 1c.6.5 1.3.8 2 1.2l2.6.9c.5.3.8.8.8 1.5 0 1 0 2.1-.2 3.2l-.1 1.2v1.2a4 4 0 0 1-2.1.6h-.4a1 1 0 0 1-.4.1l-1.6.2-1.9.7-.2.8a7.6 7.6 0 0 0 0 1.7l-.2.1-.6 1.2-.2.9v5c0 .4.3.8.6 1l.5.2c.2 0 .3.1.4.3.4.6.9.9 1.4.9.5 0 1 0 1.7-.3l.5-.2.6-.2c.3 0 .6.3.7.6 0 .3.2.6.4.8l.6.7.5.9.4.9.3 1.1Z" class="cls-4"/></svg>