<?xml version="1.0" encoding="UTF-8"?>
<svg id="_背景" data-name="背景" xmlns="http://www.w3.org/2000/svg" width="1980" height="197.72" viewBox="0 0 1980 197.72">
  <defs>
    <style>
      .cls-1 {
        fill: #4e2279;
        stroke-width: 0px;
      }
    </style>
  </defs>
  <path class="cls-1" d="m0,0v139.96c22.16-.92,56.64-1.11,98.54,4.11,33.33,4.16,51.08,9.21,97.37,17.92,0,0,55.71,10.48,106.29,17.05,82.24,10.67,148.98,3.14,213.26-4.11,98.97-11.17,114.65-24.47,207.09-31.54,39.56-3.03,77.75-5.67,129.6-2.06,67.27,4.69,92.78,15.64,200.23,29.49,34.18,4.41,58.17,7.5,87.77,9.6,25.65,1.82,97.03,5.85,241.37-11.66,129.11-15.66,140.94-27.25,229.71-29.49,25.81-.65,70-1.62,127.54,4.11,36.96,3.68,58.83,8.08,126.17,18.61,49.63,7.76,89.79,13.52,115.06,17.05V0H0Z"/>
</svg>